<svg version="1.1" viewBox="0 0 137.3 136.3" xmlns="http://www.w3.org/2000/svg">
 <g fill="#f5f5ff">
  <g stroke="#4876ff">
   <path class="cls-1" d="m136.6 85.1-0.1 12.2-14.6 8.6-0.1-0.1 3.7-14.2zm-0.1 0-9.4 5.2-1.6 1-70.2-40.4 6.2-3.7 43.8 25.5 7.6-1.1z"/>
   <path class="cls-1" d="m125.5 91.6-3.7 14.2 0.1 0.1-51 29.7v-12.3 0.1l10.1-5.9z"/>
   <path class="cls-1" d="m125.5 91.3-44.5 26.2-10.1 5.8-4.7-2.7c7.7-4.6 7.6-12-0.3-16.6s-20.7-4.6-28.8-0.2l-36.3-20.8 54.5-32.1z"/>
   <path class="cls-1" d="m70.9 123.3v12.2l-7-4v-9.7l2-1 0.3-0.3z"/>
  </g>
  <path class="cls-1" d="m65.9 104c8 4.6 8 12 0.3 16.6l-11-6.3-3.1-1.8 2 1.2 2-1.2-2-1.2 2-1.2 2 1.2 2-1.2-1.6-1.2 2-1.2-3.1-1.8-2 1.2 2 1.2-2 1.2-2-1.2-2 1.2 2 1.2-2 1.2-2-1.2h-0.1l-12-6.9c7.9-4.4 20.7-4.4 28.6 0.2zm0.3 16.6-10.8-6.3z"/>
  <path class="cls-1" d="m30.8 112.3c0-3 2-6 6-8.3l0.3-0.1 12 6.9-3 1.7-5.2 3 5.2 3 5.2-3 1-0.6-2-1.2 2-1.1 3.2 1.8 10.8 6.3-0.3 0.2-2 1c-8 3.6-19.7 3.3-27.2-1-3.8-2.2-5.8-5-6-7.8z"/>
  <path class="cls-1" d="m64 121.8v9.8c-8 3.8-19.7 3.4-27.2-1-4.1-2.3-6.1-5.4-6-8.5v-9.1c0.3 2.8 2.3 5.6 6 7.8 7.4 4.3 19.1 4.6 27.2 1z" stroke="#4876ff"/>
 </g>
 <path class="cls-2" d="m60.6 107.7-2.1 1.2 2.1 1.2-2.1 1.2-2.1-1.2-2 1.2 2 1.2-2 1.2-2.1-1.2h-0.1l-1-0.5-2.1-1.2 0.1-0.1 2.1 1.2 2-1.2-2-1.2 2-1.2 2.1 1.2 2.1-1.2-2.1-1.2 2.1-1.2z" fill="#4876ff"/>
 <path class="cls-2" d="m52.3 114.9-1 0.6-5.2 3-5.2-3 5.2-3 3-1.7 2.1 1.2 1 0.6-2 1.1zm-5.2 1.8 2-1.2-3.1-1.8-2 1.2zm4.1-4.7-2.1-1.2z" fill="#4876ff"/>
 <path class="cls-1" d="m49.2 115.5-2.1 1.2-3.1-1.8 2.1-1.2zm-0.2-4.7-12-7zm-12-6.9h-0.2c-4 2.4-6 5.4-6 8.4l-30.1-17.5v-11.8z" fill="#f5f5ff"/>
 <g fill="none" stroke="#4876ff" stroke-linecap="round" stroke-linejoin="round" stroke-width="1.43px">
  <path class="cls-3" d="m37.1 103.8-36.3-20.9 54.5-32 6.2-3.7 43.8 25.5 7.6-1.1 23.6 13.5-9.4 5.2-1.6 1-44.5 26.2-10.1 5.9v-0.1l-4.7-2.7m-29.1-16.7-36.4-21v11.9l30.1 17.5m40.1 11-4.7-2.7m-2.2 11 7 4"/>
  <path class="cls-3" d="m70.9 135.6 51-29.7 14.6-8.6 0.1-12.2-11.1 6.5-44.5 25.9-10.1 5.8z"/>
  <path class="cls-3" d="m55.2 50.8 0.1 0.1 70.2 40.4h0.1l-0.1 0.3-3.7 14.2m-57.8 26c-8 3.7-19.7 3.3-27.2-1-4.1-2.4-6.1-5.5-6-8.6v-9.2"/>
  <path class="cls-3" d="m37.1 103.8c8-4.5 20.8-4.4 28.8 0.2s8 12 0.3 16.6l-0.3 0.3-2 1c-8 3.6-19.7 3.3-27.2-1-3.8-2.2-5.8-5-6-7.8v-0.8c0-3 2-6 6-8.3l0.3-0.1zm26.9 27.9v-9.8"/>
 </g>
 <g fill="#f5f5ff" stroke="#4876ff">
  <path class="cls-1" d="m80.5 26.5-0.1 0.1-3.7 2.2-8.5-4.9 0.1-0.1 3.7-2.2z"/>
  <path class="cls-1" d="m76.7 28.8-7.3 4.2-6.2 3.4-6.2-10.5-7.3-12.6h0.1l8.5 4.9v-15.1l9.8 5.7v15.1h0.1z"/>
  <path class="cls-1" d="m71.9 21.5 0.1 0.1-3.7 2.2-0.1 0.1h-0.1v-15.1l3.8-2.3zm0-15.1v0.1l-3.8 2.3-9.8-5.7 3.7-2.4 0.1 0.1zm-13.6 7.2v4.6l-8.5-4.9v-0.1l3.6-2.3h0.1l4.7 2.7z"/>
 </g>
 <g fill="none" stroke="#4876ff" stroke-linecap="round" stroke-linejoin="round" stroke-width="1.48px">
  <path class="cls-4" d="m80.5 26.5-8.5-4.9-0.1-0.1v-15.1l-9.8-5.6m-3.9 12.8-4.7-2.7m14.6-2.1-9.8-5.8"/>
  <path class="cls-4" d="m76.7 28.8-8.5-4.9h-0.1v-15.1"/>
  <path class="cls-4" d="m58.3 3.1v15.1l-8.5-4.9h-0.1l7.3 12.6 6.2 10.5 6.2-3.4 7.3-4.2m-23.3-17.8-3.6 2.2m8.5-10.2 3.7-2.2m6.1 8 3.8-2.3"/>
  <path class="cls-4" d="m68.3 23.8 3.7-2.2v-0.1m4.7 7.3 3.7-2.2"/>
 </g>
 <g fill="#f5f5ff" stroke="#4876ff">
  <path class="cls-1" d="m83.8 89.1v7.6l-4.3 2.1v-7.5z"/>
  <path class="cls-1" d="m83.8 82.3v6.8l-4.3 2.2v-6.9z"/>
  <path class="cls-1" d="m83.8 63.8v18.5l-4.3 2.1v-18.5zm0 0-4.3 2.1-34.7-20 4.3-2.1zm-24.8 8.3 0.2-0.1 10.7-3.4 9.6 15.8v6.9l-33.5-19.3 11.4-3.1z"/>
  <path class="cls-1" d="m79.5 66v18.4l-9.6-15.8-10.9 3.4-1.7-3.1-11.3 3.1-1.2-0.7v-25.4zm-24.5-6a6.6 6.6 0 0 0-3-5.2c-1.6-1-3-0.2-3 1.7a6.6 6.6 0 0 0 3 5.2c1.6 0.9 3 0.2 3-1.7z"/>
  <path class="cls-1" d="m52 54.8a6.6 6.6 0 0 1 3 5.2c0 1.9-1.3 2.7-3 1.7a6.6 6.6 0 0 1-3-5.2c0-1.9 1.3-2.6 3-1.7z"/>
 </g>
 <g fill="none" stroke="#4876ff" stroke-linecap="round" stroke-linejoin="round" stroke-width="1.51px">
  <path class="cls-5" d="m79.5 98.8-34.7-20v-32.9l34.7 20z"/>
  <path class="cls-5" d="m83.8 96.7v-32.9l-34.7-20m-4.3 27.5 1.2 0.7 33.5 19.3m-24.5-31.3c0 1.9-1.3 2.7-3 1.7a6.6 6.6 0 0 1-3-5.2c0-1.9 1.3-2.6 3-1.7a6.6 6.6 0 0 1 3 5.2z"/>
  <path class="cls-5" d="m46 72 11.4-3.1 1.6 3.2 3.1 5.7m-2.9-5.8 10.7-3.4 9.6 15.8m-34.7-38.5 4.3-2.1m30.4 22.2 4.3-2.2m-4.3 35 4.3-2.1m-4.3-5.4 4.3-2.2m-4.3-4.7 4.3-2.1"/>
 </g>
</svg>
