<svg width="232" height="95" viewBox="0 0 232 95" fill="none" xmlns="http://www.w3.org/2000/svg">
<path d="M27.506 35.265C27.5323 35.36 27.577 35.4488 27.6376 35.5265C27.6982 35.6042 27.7735 35.6691 27.8592 35.7177C27.9449 35.7663 28.0393 35.7975 28.1371 35.8095C28.2349 35.8216 28.334 35.8143 28.429 35.788C28.5239 35.7618 28.6128 35.7171 28.6905 35.6565C28.7681 35.5959 28.8331 35.5206 28.8817 35.4348C28.9302 35.3491 28.9614 35.2547 28.9735 35.1569C28.9856 35.0592 28.9783 34.96 28.952 34.865L27.506 35.265ZM23.2 24.725C23.1047 24.6972 23.0048 24.6886 22.9061 24.6996C22.8074 24.7107 22.7119 24.7413 22.6251 24.7895C22.5384 24.8378 22.462 24.9028 22.4006 24.9808C22.3391 25.0588 22.2938 25.1483 22.2672 25.2439C22.2405 25.3396 22.2332 25.4396 22.2455 25.5381C22.2579 25.6367 22.2896 25.7318 22.339 25.8179C22.3884 25.9041 22.4544 25.9796 22.5332 26.04C22.612 26.1004 22.702 26.1446 22.798 26.17L23.2 24.725ZM40.188 35.725C40.2857 35.7024 40.3778 35.6605 40.459 35.6017C40.5401 35.5429 40.6087 35.4685 40.6606 35.3827C40.7125 35.297 40.7467 35.2017 40.7612 35.1025C40.7756 35.0033 40.7701 34.9022 40.7448 34.8052C40.7195 34.7082 40.6751 34.6173 40.6141 34.5378C40.5531 34.4582 40.4767 34.3918 40.3896 34.3422C40.3024 34.2927 40.2062 34.2612 40.1067 34.2494C40.0071 34.2377 39.9063 34.2461 39.81 34.274L40.188 35.725ZM30.197 37.559C30.507 38.679 29.827 39.862 28.623 40.175L29 41.626C30.977 41.113 32.185 39.124 31.643 37.159L30.197 37.559ZM28.623 40.175C27.411 40.49 26.195 39.786 25.883 38.656L24.437 39.056C24.977 41.011 27.031 42.138 29 41.626L28.623 40.175ZM25.883 38.656C25.573 37.536 26.253 36.353 27.457 36.04L27.08 34.59C25.103 35.103 23.894 37.091 24.437 39.056L25.883 38.656ZM27.457 36.04C28.669 35.725 29.885 36.429 30.197 37.559L31.643 37.159C31.103 35.204 29.049 34.077 27.08 34.589L27.457 36.04ZM28.952 34.865L26.8 27.075L25.354 27.475L27.506 35.265L28.952 34.865ZM24.904 25.197L23.2 24.725L22.798 26.17L24.503 26.643L24.904 25.197ZM26.8 27.075C26.6731 26.6249 26.4318 26.2153 26.0995 25.8862C25.7672 25.557 25.3553 25.3196 24.904 25.197L24.505 26.643C24.93 26.761 25.246 27.084 25.354 27.475L26.8 27.075ZM31.11 38.085L40.188 35.725L39.811 34.274L30.732 36.634L31.11 38.085Z" fill="#D87A0C"/>
<path d="M29.565 28.73C29.08 26.975 28.838 26.097 29.25 25.406C29.661 24.714 30.566 24.479 32.376 24.008L34.296 23.51C36.106 23.04 37.011 22.804 37.724 23.203C38.437 23.603 38.68 24.48 39.164 26.236L39.679 28.098C40.164 29.853 40.407 30.731 39.995 31.423C39.583 32.114 38.678 32.35 36.868 32.82L34.948 33.319C33.138 33.789 32.233 34.024 31.52 33.625C30.807 33.225 30.565 32.348 30.08 30.593L29.565 28.73Z" stroke="#D87A0C" stroke-width="1.5"/>
<path d="M54.08 23.56H61.952L61.744 25.32H55.76L55.312 28.888H60.736L60.528 30.648H55.104L54.496 35.576H52.608L54.08 23.56ZM67.7538 28.408C67.0924 28.3867 66.6658 28.376 66.4738 28.376C65.7911 28.376 65.2791 28.5413 64.9378 28.872C64.5964 29.192 64.3831 29.7253 64.2978 30.472L63.6578 35.576H61.8178L62.4418 30.52C62.6018 29.1653 63.0071 28.184 63.6578 27.576C64.3191 26.968 65.3271 26.664 66.6818 26.664C67.2151 26.664 67.6684 26.68 68.0418 26.712L67.7538 28.408ZM72.9214 26.6C74.02 26.6 74.8467 26.8613 75.4014 27.384C75.9667 27.896 76.2494 28.6587 76.2494 29.672C76.2494 29.9067 76.2334 30.1627 76.2014 30.44L76.0254 31.88H70.0574V31.896C70.036 32.1307 70.0254 32.2907 70.0254 32.376C70.0254 32.92 70.18 33.3253 70.4894 33.592C70.8094 33.848 71.3427 33.976 72.0894 33.976H72.8734C73.428 33.976 74.2707 33.928 75.4014 33.832L75.2254 35.496C74.2867 35.592 73.444 35.64 72.6974 35.64H71.9134C70.6227 35.64 69.6734 35.3787 69.0654 34.856C68.468 34.3333 68.1694 33.5653 68.1694 32.552C68.1694 32.3067 68.1854 32.056 68.2174 31.8L68.3774 30.456C68.5267 29.176 68.948 28.216 69.6414 27.576C70.3347 26.9253 71.3214 26.6 72.6014 26.6H72.9214ZM74.3774 30.328V30.312C74.3987 30.0773 74.4094 29.9067 74.4094 29.8C74.4094 29.288 74.2707 28.8987 73.9934 28.632C73.7267 28.3653 73.3 28.232 72.7134 28.232H72.3934C71.1347 28.232 70.42 28.9307 70.2494 30.328H74.3774ZM81.9839 26.6C83.0825 26.6 83.9092 26.8613 84.4639 27.384C85.0292 27.896 85.3119 28.6587 85.3119 29.672C85.3119 29.9067 85.2959 30.1627 85.2639 30.44L85.0879 31.88H79.1199V31.896C79.0985 32.1307 79.0879 32.2907 79.0879 32.376C79.0879 32.92 79.2425 33.3253 79.5519 33.592C79.8719 33.848 80.4052 33.976 81.1519 33.976H81.9359C82.4905 33.976 83.3332 33.928 84.4639 33.832L84.2879 35.496C83.3492 35.592 82.5065 35.64 81.7599 35.64H80.9759C79.6852 35.64 78.7359 35.3787 78.1279 34.856C77.5305 34.3333 77.2319 33.5653 77.2319 32.552C77.2319 32.3067 77.2479 32.056 77.2799 31.8L77.4399 30.456C77.5892 29.176 78.0105 28.216 78.7039 27.576C79.3972 26.9253 80.3839 26.6 81.6639 26.6H81.9839ZM83.4399 30.328V30.312C83.4612 30.0773 83.4719 29.9067 83.4719 29.8C83.4719 29.288 83.3332 28.8987 83.0559 28.632C82.7892 28.3653 82.3625 28.232 81.7759 28.232H81.4559C80.1972 28.232 79.4825 28.9307 79.3119 30.328H83.4399ZM92.786 35.64C91.3887 35.64 90.2367 35.5707 89.33 35.432L89.554 33.64C90.8553 33.8 92.002 33.88 92.994 33.88H93.202C93.874 33.88 94.402 33.816 94.786 33.688C95.1807 33.56 95.4633 33.3733 95.634 33.128C95.8047 32.8827 95.9113 32.568 95.954 32.184C95.9753 31.992 95.986 31.8587 95.986 31.784C95.986 31.4107 95.9007 31.128 95.73 30.936C95.5593 30.744 95.3033 30.6107 94.962 30.536C94.6313 30.4507 94.13 30.3653 93.458 30.28C92.69 30.1947 92.082 30.0613 91.634 29.88C91.186 29.6987 90.85 29.4373 90.626 29.096C90.4127 28.744 90.306 28.2747 90.306 27.688C90.306 27.4533 90.322 27.192 90.354 26.904C90.4927 25.6987 90.898 24.84 91.57 24.328C92.242 23.816 93.2713 23.56 94.658 23.56H95.778C96.5887 23.56 97.4847 23.5707 98.466 23.592L98.258 25.352C97.6927 25.352 97.2607 25.3467 96.962 25.336L95.57 25.32H94.45C93.6713 25.32 93.1007 25.4587 92.738 25.736C92.386 26.0027 92.21 26.5147 92.21 27.272C92.21 27.6027 92.274 27.8533 92.402 28.024C92.53 28.184 92.706 28.296 92.93 28.36C93.154 28.424 93.5167 28.4933 94.018 28.568C94.114 28.5787 94.306 28.6053 94.594 28.648C95.3833 28.7653 96.0127 28.92 96.482 29.112C96.9513 29.304 97.3033 29.5813 97.538 29.944C97.7727 30.296 97.89 30.776 97.89 31.384C97.89 31.608 97.874 31.848 97.842 32.104C97.7353 32.9893 97.5007 33.688 97.138 34.2C96.786 34.712 96.274 35.08 95.602 35.304C94.93 35.528 94.0607 35.64 92.994 35.64H92.786ZM100.562 23.24H102.402L101.986 26.664H104.162C106.37 26.664 107.474 27.6773 107.474 29.704C107.474 29.9493 107.458 30.216 107.426 30.504L106.802 35.576H104.962L105.586 30.456C105.607 30.2427 105.618 30.0933 105.618 30.008C105.618 28.92 105.063 28.376 103.954 28.376H101.778L100.898 35.576H99.0578L100.562 23.24ZM109.944 25.464L110.184 23.544H112.28L112.04 25.464H109.944ZM110.68 35.576H108.84L109.944 26.664H111.784L110.68 35.576ZM112.392 38.936L113.896 26.664H117.912C119.021 26.664 119.853 26.92 120.408 27.432C120.962 27.944 121.24 28.7013 121.24 29.704C121.24 29.96 121.224 30.2267 121.192 30.504L121.048 31.72C120.738 34.2907 119.32 35.576 116.792 35.576H114.648L114.232 38.936H112.392ZM117 33.864C118.28 33.864 119.005 33.1653 119.176 31.768L119.336 30.456C119.357 30.2427 119.368 30.0933 119.368 30.008C119.368 28.92 118.813 28.376 117.704 28.376H115.528L114.856 33.864H117ZM121.923 38.936L123.427 26.664H127.443C128.552 26.664 129.384 26.92 129.939 27.432C130.494 27.944 130.771 28.7013 130.771 29.704C130.771 29.96 130.755 30.2267 130.723 30.504L130.579 31.72C130.27 34.2907 128.851 35.576 126.323 35.576H124.179L123.763 38.936H121.923ZM126.531 33.864C127.811 33.864 128.536 33.1653 128.707 31.768L128.867 30.456C128.888 30.2427 128.899 30.0933 128.899 30.008C128.899 28.92 128.344 28.376 127.235 28.376H125.059L124.387 33.864H126.531ZM133.022 25.464L133.262 23.544H135.358L135.118 25.464H133.022ZM133.758 35.576H131.918L133.022 26.664H134.862L133.758 35.576ZM138.59 28.376L137.726 35.576H135.886L136.974 26.664H140.99C143.198 26.664 144.302 27.6773 144.302 29.704C144.302 29.9493 144.286 30.216 144.254 30.504L143.63 35.576H141.79L142.414 30.456C142.435 30.2427 142.446 30.0933 142.446 30.008C142.446 28.92 141.891 28.376 140.782 28.376H138.59ZM145.908 30.52C146.186 27.9493 147.604 26.664 150.164 26.664H153.988L152.82 36.2C152.703 37.064 152.346 37.7467 151.748 38.248C151.162 38.7493 150.271 39 149.076 39C148.02 39 147.023 38.9573 146.084 38.872L146.276 37.208C147.3 37.304 148.271 37.352 149.188 37.352C149.775 37.352 150.207 37.256 150.484 37.064C150.762 36.872 150.927 36.568 150.98 36.152L151.044 35.576H149.044C146.836 35.576 145.732 34.5467 145.732 32.488C145.732 32.2533 145.748 32.0027 145.78 31.736L145.908 30.52ZM151.252 33.896L151.94 28.344H149.956C148.644 28.344 147.914 29.0533 147.764 30.472L147.62 31.784C147.599 31.9973 147.588 32.1413 147.588 32.216C147.588 33.336 148.143 33.896 149.252 33.896H151.252Z" fill="#D87A0C"/>
<path d="M57.964 49.42C58.412 49.42 58.672 49.636 58.744 50.068L60.112 58.432H58.612L58.216 55.828H54.34L53.296 58.432H51.748L55.204 49.972C55.356 49.604 55.636 49.42 56.044 49.42H57.964ZM56.392 50.74L54.868 54.508H58.012L57.436 50.74H56.392ZM61.0668 58.432L62.1948 49.18H63.5748L62.4468 58.432H61.0668ZM64.0082 58.432L65.1362 49.18H66.5162L65.3882 58.432H64.0082ZM69.8023 54.64C70.0103 52.712 71.0743 51.748 72.9943 51.748H75.8623L74.9863 58.9C74.8983 59.548 74.6303 60.06 74.1823 60.436C73.7423 60.812 73.0743 61 72.1783 61C71.3863 61 70.6383 60.968 69.9343 60.904L70.0783 59.656C70.8463 59.728 71.5743 59.764 72.2623 59.764C72.7023 59.764 73.0263 59.692 73.2343 59.548C73.4423 59.404 73.5663 59.176 73.6063 58.864L73.6543 58.432H72.1543C70.4983 58.432 69.6703 57.66 69.6703 56.116C69.6703 55.94 69.6823 55.752 69.7063 55.552L69.8023 54.64ZM73.8103 57.172L74.3263 53.008H72.8383C71.8543 53.008 71.3063 53.54 71.1943 54.604L71.0863 55.588C71.0703 55.748 71.0623 55.856 71.0623 55.912C71.0623 56.752 71.4783 57.172 72.3103 57.172H73.8103ZM76.7752 54.592C77.0072 52.664 78.0672 51.7 79.9552 51.7H80.5312C82.1872 51.7 83.0152 52.46 83.0152 53.98C83.0152 54.164 83.0032 54.364 82.9792 54.58L82.8592 55.588C82.6272 57.516 81.5672 58.48 79.6792 58.48H79.1032C77.4472 58.48 76.6192 57.72 76.6192 56.2C76.6192 56.016 76.6312 55.816 76.6552 55.6L76.7752 54.592ZM79.8352 57.196C80.7952 57.196 81.3392 56.672 81.4672 55.624L81.5992 54.544C81.6152 54.384 81.6232 54.272 81.6232 54.208C81.6232 53.392 81.2072 52.984 80.3752 52.984H79.7992C78.8392 52.984 78.2952 53.508 78.1672 54.556L78.0352 55.636C78.0192 55.796 78.0112 55.908 78.0112 55.972C78.0112 56.788 78.4272 57.196 79.2592 57.196H79.8352ZM84.0643 54.592C84.2963 52.664 85.3563 51.7 87.2443 51.7H87.8203C89.4763 51.7 90.3043 52.46 90.3043 53.98C90.3043 54.164 90.2923 54.364 90.2683 54.58L90.1483 55.588C89.9163 57.516 88.8563 58.48 86.9683 58.48H86.3923C84.7363 58.48 83.9083 57.72 83.9083 56.2C83.9083 56.016 83.9203 55.816 83.9443 55.6L84.0643 54.592ZM87.1243 57.196C88.0843 57.196 88.6283 56.672 88.7563 55.624L88.8883 54.544C88.9043 54.384 88.9123 54.272 88.9123 54.208C88.9123 53.392 88.4963 52.984 87.6643 52.984H87.0883C86.1283 52.984 85.5843 53.508 85.4563 54.556L85.3243 55.636C85.3083 55.796 85.3003 55.908 85.3003 55.972C85.3003 56.788 85.7163 57.196 86.5483 57.196H87.1243ZM91.3413 54.64C91.5733 52.712 92.6053 51.748 94.4373 51.748H96.0093L96.3213 49.18H97.7013L96.5733 58.432H93.6813C92.0253 58.432 91.1973 57.672 91.1973 56.152C91.1973 55.968 91.2093 55.768 91.2333 55.552L91.3413 54.64ZM95.3493 57.148L95.8533 53.008H94.2813C93.3773 53.008 92.8613 53.54 92.7333 54.604L92.6133 55.588C92.5973 55.748 92.5893 55.864 92.5893 55.936C92.5893 56.744 93.0053 57.148 93.8373 57.148H95.3493ZM99.7412 58.48C99.0052 58.464 98.3692 58.432 97.8332 58.384L98.0132 57.088C98.7972 57.16 99.4252 57.204 99.8972 57.22H100.305C100.817 57.22 101.173 57.156 101.373 57.028C101.581 56.9 101.709 56.716 101.757 56.476C101.765 56.436 101.769 56.38 101.769 56.308C101.769 56.108 101.737 55.976 101.673 55.912C101.617 55.824 101.525 55.764 101.397 55.732C101.269 55.7 101.025 55.664 100.665 55.624L100.389 55.588C99.9732 55.556 99.5772 55.484 99.2012 55.372C98.9052 55.26 98.6852 55.1 98.5412 54.892C98.3972 54.676 98.3252 54.392 98.3252 54.04C98.3252 53.968 98.3332 53.844 98.3492 53.668C98.4052 53.18 98.5452 52.8 98.7692 52.528C98.9932 52.248 99.3052 52.048 99.7052 51.928C100.105 51.808 100.621 51.748 101.253 51.748H101.745L103.437 51.76L103.281 53.032H101.097C100.745 53.032 100.477 53.052 100.293 53.092C100.109 53.124 99.9732 53.184 99.8852 53.272C99.8052 53.352 99.7532 53.472 99.7292 53.632C99.7212 53.672 99.7172 53.724 99.7172 53.788C99.7172 53.916 99.7532 54.024 99.8252 54.112C99.9052 54.208 100.021 54.276 100.173 54.316C100.333 54.348 100.625 54.388 101.049 54.436C101.553 54.484 101.965 54.56 102.285 54.664C102.565 54.76 102.777 54.924 102.921 55.156C103.073 55.388 103.149 55.688 103.149 56.056C103.149 56.232 103.141 56.368 103.125 56.464C103.029 57.208 102.749 57.728 102.285 58.024C101.821 58.328 101.109 58.48 100.149 58.48H99.7412ZM108.595 58.432C107.995 58.432 107.515 58.264 107.155 57.928C106.795 57.584 106.615 57.14 106.615 56.596C106.615 56.476 106.619 56.384 106.627 56.32C106.699 55.824 106.827 55.432 107.011 55.144C107.195 54.848 107.459 54.636 107.803 54.508C108.155 54.372 108.615 54.304 109.183 54.304H111.199L111.211 54.208C111.219 54.168 111.223 54.112 111.223 54.04C111.223 53.728 111.119 53.476 110.911 53.284C110.703 53.092 110.379 52.996 109.939 52.996H109.627C108.915 52.996 108.275 53.016 107.707 53.056L107.887 51.832L108.235 51.808C108.363 51.8 108.587 51.788 108.907 51.772C109.235 51.756 109.519 51.748 109.759 51.748H110.083C110.907 51.748 111.531 51.944 111.955 52.336C112.379 52.728 112.591 53.252 112.591 53.908C112.591 53.98 112.583 54.104 112.567 54.28L112.075 58.432H108.595ZM107.995 56.464C107.995 56.696 108.059 56.876 108.187 57.004C108.323 57.124 108.515 57.184 108.763 57.184H110.851L111.055 55.504L109.063 55.492C108.759 55.484 108.515 55.544 108.331 55.672C108.155 55.792 108.047 56.008 108.007 56.32L107.995 56.464ZM117.839 53.056C117.343 53.04 117.023 53.032 116.879 53.032C116.367 53.032 115.983 53.156 115.727 53.404C115.471 53.644 115.311 54.044 115.247 54.604L114.767 58.432H113.387L113.855 54.64C113.975 53.624 114.279 52.888 114.767 52.432C115.263 51.976 116.019 51.748 117.035 51.748C117.435 51.748 117.775 51.76 118.055 51.784L117.839 53.056ZM121.714 51.7C122.538 51.7 123.158 51.896 123.574 52.288C123.998 52.672 124.21 53.244 124.21 54.004C124.21 54.18 124.198 54.372 124.174 54.58L124.042 55.66H119.566V55.672C119.55 55.848 119.542 55.968 119.542 56.032C119.542 56.44 119.658 56.744 119.89 56.944C120.13 57.136 120.53 57.232 121.09 57.232H121.678C122.094 57.232 122.726 57.196 123.574 57.124L123.442 58.372C122.738 58.444 122.106 58.48 121.546 58.48H120.958C119.99 58.48 119.278 58.284 118.822 57.892C118.374 57.5 118.15 56.924 118.15 56.164C118.15 55.98 118.162 55.792 118.186 55.6L118.306 54.592C118.418 53.632 118.734 52.912 119.254 52.432C119.774 51.944 120.514 51.7 121.474 51.7H121.714ZM122.806 54.496V54.484C122.822 54.308 122.83 54.18 122.83 54.1C122.83 53.716 122.726 53.424 122.518 53.224C122.318 53.024 121.998 52.924 121.558 52.924H121.318C120.374 52.924 119.838 53.448 119.71 54.496H122.806ZM127.728 54.64C127.96 52.712 128.992 51.748 130.824 51.748H132.396L132.708 49.18H134.088L132.96 58.432H130.068C128.412 58.432 127.584 57.672 127.584 56.152C127.584 55.968 127.596 55.768 127.62 55.552L127.728 54.64ZM131.736 57.148L132.24 53.008H130.668C129.764 53.008 129.248 53.54 129.12 54.604L129 55.588C128.984 55.748 128.976 55.864 128.976 55.936C128.976 56.744 129.392 57.148 130.224 57.148H131.736ZM138.156 51.7C138.98 51.7 139.6 51.896 140.016 52.288C140.44 52.672 140.652 53.244 140.652 54.004C140.652 54.18 140.64 54.372 140.616 54.58L140.484 55.66H136.008V55.672C135.992 55.848 135.984 55.968 135.984 56.032C135.984 56.44 136.1 56.744 136.332 56.944C136.572 57.136 136.972 57.232 137.532 57.232H138.12C138.536 57.232 139.168 57.196 140.016 57.124L139.884 58.372C139.18 58.444 138.548 58.48 137.988 58.48H137.4C136.432 58.48 135.72 58.284 135.264 57.892C134.816 57.5 134.592 56.924 134.592 56.164C134.592 55.98 134.604 55.792 134.628 55.6L134.748 54.592C134.86 53.632 135.176 52.912 135.696 52.432C136.216 51.944 136.956 51.7 137.916 51.7H138.156ZM139.248 54.496V54.484C139.264 54.308 139.272 54.18 139.272 54.1C139.272 53.716 139.168 53.424 138.96 53.224C138.76 53.024 138.44 52.924 138 52.924H137.76C136.816 52.924 136.28 53.448 136.152 54.496H139.248ZM141.317 58.432L142.445 49.18H143.825L142.697 58.432H141.317ZM145.122 50.848L145.302 49.408H146.874L146.694 50.848H145.122ZM145.674 58.432H144.294L145.122 51.748H146.502L145.674 58.432ZM147.426 51.748H148.842L149.466 57.184H150.594L152.55 51.748H153.99L151.734 57.928C151.614 58.264 151.382 58.432 151.038 58.432H148.83C148.654 58.432 148.51 58.38 148.398 58.276C148.286 58.18 148.218 58.036 148.194 57.844L147.426 51.748ZM157.714 51.7C158.538 51.7 159.158 51.896 159.574 52.288C159.998 52.672 160.21 53.244 160.21 54.004C160.21 54.18 160.198 54.372 160.174 54.58L160.042 55.66H155.566V55.672C155.55 55.848 155.542 55.968 155.542 56.032C155.542 56.44 155.658 56.744 155.89 56.944C156.13 57.136 156.53 57.232 157.09 57.232H157.678C158.094 57.232 158.726 57.196 159.574 57.124L159.442 58.372C158.738 58.444 158.106 58.48 157.546 58.48H156.958C155.99 58.48 155.278 58.284 154.822 57.892C154.374 57.5 154.15 56.924 154.15 56.164C154.15 55.98 154.162 55.792 154.186 55.6L154.306 54.592C154.418 53.632 154.734 52.912 155.254 52.432C155.774 51.944 156.514 51.7 157.474 51.7H157.714ZM158.806 54.496V54.484C158.822 54.308 158.83 54.18 158.83 54.1C158.83 53.716 158.726 53.424 158.518 53.224C158.318 53.024 157.998 52.924 157.558 52.924H157.318C156.374 52.924 155.838 53.448 155.71 54.496H158.806ZM165.147 53.056C164.651 53.04 164.331 53.032 164.187 53.032C163.675 53.032 163.291 53.156 163.035 53.404C162.779 53.644 162.619 54.044 162.555 54.604L162.075 58.432H160.695L161.163 54.64C161.283 53.624 161.587 52.888 162.075 52.432C162.571 51.976 163.327 51.748 164.343 51.748C164.743 51.748 165.083 51.76 165.363 51.784L165.147 53.056ZM169.023 51.7C169.847 51.7 170.467 51.896 170.883 52.288C171.307 52.672 171.519 53.244 171.519 54.004C171.519 54.18 171.507 54.372 171.483 54.58L171.351 55.66H166.875V55.672C166.859 55.848 166.851 55.968 166.851 56.032C166.851 56.44 166.967 56.744 167.199 56.944C167.439 57.136 167.839 57.232 168.399 57.232H168.987C169.403 57.232 170.035 57.196 170.883 57.124L170.751 58.372C170.047 58.444 169.415 58.48 168.855 58.48H168.267C167.299 58.48 166.587 58.284 166.131 57.892C165.683 57.5 165.459 56.924 165.459 56.164C165.459 55.98 165.471 55.792 165.495 55.6L165.615 54.592C165.727 53.632 166.043 52.912 166.563 52.432C167.083 51.944 167.823 51.7 168.783 51.7H169.023ZM170.115 54.496V54.484C170.131 54.308 170.139 54.18 170.139 54.1C170.139 53.716 170.035 53.424 169.827 53.224C169.627 53.024 169.307 52.924 168.867 52.924H168.627C167.683 52.924 167.147 53.448 167.019 54.496H170.115ZM172.4 54.64C172.632 52.712 173.664 51.748 175.496 51.748H177.068L177.38 49.18H178.76L177.632 58.432H174.74C173.084 58.432 172.256 57.672 172.256 56.152C172.256 55.968 172.268 55.768 172.292 55.552L172.4 54.64ZM176.408 57.148L176.912 53.008H175.34C174.436 53.008 173.92 53.54 173.792 54.604L173.672 55.588C173.656 55.748 173.648 55.864 173.648 55.936C173.648 56.744 174.064 57.148 174.896 57.148H176.408ZM184.756 51.748H186.82L186.664 53.032H184.6L183.94 58.432H182.56L183.22 53.032H181.828L181.984 51.748H183.376L183.436 51.256C183.612 49.84 184.428 49.132 185.884 49.132C186.244 49.132 186.664 49.152 187.144 49.192L186.952 50.464L186.556 50.44C186.172 50.424 185.94 50.416 185.86 50.416C185.508 50.416 185.252 50.504 185.092 50.68C184.932 50.848 184.832 51.112 184.792 51.472L184.756 51.748ZM191.339 53.056C190.843 53.04 190.523 53.032 190.379 53.032C189.867 53.032 189.483 53.156 189.227 53.404C188.971 53.644 188.811 54.044 188.747 54.604L188.267 58.432H186.887L187.355 54.64C187.475 53.624 187.779 52.888 188.267 52.432C188.763 51.976 189.519 51.748 190.535 51.748C190.935 51.748 191.275 51.76 191.555 51.784L191.339 53.056ZM195.214 51.7C196.038 51.7 196.658 51.896 197.074 52.288C197.498 52.672 197.71 53.244 197.71 54.004C197.71 54.18 197.698 54.372 197.674 54.58L197.542 55.66H193.066V55.672C193.05 55.848 193.042 55.968 193.042 56.032C193.042 56.44 193.158 56.744 193.39 56.944C193.63 57.136 194.03 57.232 194.59 57.232H195.178C195.594 57.232 196.226 57.196 197.074 57.124L196.942 58.372C196.238 58.444 195.606 58.48 195.046 58.48H194.458C193.49 58.48 192.778 58.284 192.322 57.892C191.874 57.5 191.65 56.924 191.65 56.164C191.65 55.98 191.662 55.792 191.686 55.6L191.806 54.592C191.918 53.632 192.234 52.912 192.754 52.432C193.274 51.944 194.014 51.7 194.974 51.7H195.214ZM196.306 54.496V54.484C196.322 54.308 196.33 54.18 196.33 54.1C196.33 53.716 196.226 53.424 196.018 53.224C195.818 53.024 195.498 52.924 195.058 52.924H194.818C193.874 52.924 193.338 53.448 193.21 54.496H196.306ZM202.011 51.7C202.835 51.7 203.455 51.896 203.871 52.288C204.295 52.672 204.507 53.244 204.507 54.004C204.507 54.18 204.495 54.372 204.471 54.58L204.339 55.66H199.863V55.672C199.847 55.848 199.839 55.968 199.839 56.032C199.839 56.44 199.955 56.744 200.187 56.944C200.427 57.136 200.827 57.232 201.387 57.232H201.975C202.391 57.232 203.023 57.196 203.871 57.124L203.739 58.372C203.035 58.444 202.403 58.48 201.843 58.48H201.255C200.287 58.48 199.575 58.284 199.119 57.892C198.671 57.5 198.447 56.924 198.447 56.164C198.447 55.98 198.459 55.792 198.483 55.6L198.603 54.592C198.715 53.632 199.031 52.912 199.551 52.432C200.071 51.944 200.811 51.7 201.771 51.7H202.011ZM203.103 54.496V54.484C203.119 54.308 203.127 54.18 203.127 54.1C203.127 53.716 203.023 53.424 202.815 53.224C202.615 53.024 202.295 52.924 201.855 52.924H201.615C200.671 52.924 200.135 53.448 200.007 54.496H203.103ZM52.576 68.592C52.808 66.664 53.868 65.7 55.756 65.7H56.332C57.988 65.7 58.816 66.46 58.816 67.98C58.816 68.164 58.804 68.364 58.78 68.58L58.66 69.588C58.428 71.516 57.368 72.48 55.48 72.48H54.904C53.248 72.48 52.42 71.72 52.42 70.2C52.42 70.016 52.432 69.816 52.456 69.6L52.576 68.592ZM55.636 71.196C56.596 71.196 57.14 70.672 57.268 69.624L57.4 68.544C57.416 68.384 57.424 68.272 57.424 68.208C57.424 67.392 57.008 66.984 56.176 66.984H55.6C54.64 66.984 54.096 67.508 53.968 68.556L53.836 69.636C53.82 69.796 53.812 69.908 53.812 69.972C53.812 70.788 54.228 71.196 55.06 71.196H55.636ZM62.5651 65.748H64.6291L64.4731 67.032H62.4091L61.7491 72.432H60.3691L61.0291 67.032H59.6371L59.7931 65.748H61.1851L61.2451 65.256C61.4211 63.84 62.2371 63.132 63.6931 63.132C64.0531 63.132 64.4731 63.152 64.9531 63.192L64.7611 64.464L64.3651 64.44C63.9811 64.424 63.7491 64.416 63.6691 64.416C63.3171 64.416 63.0611 64.504 62.9011 64.68C62.7411 64.848 62.6411 65.112 62.6011 65.472L62.5651 65.748ZM70.7521 67.032C70.2561 67.032 69.8761 67.164 69.6121 67.428C69.3561 67.692 69.1961 68.084 69.1321 68.604L69.0121 69.636C68.9961 69.796 68.9881 69.912 68.9881 69.984C68.9881 70.792 69.4001 71.196 70.2241 71.196H70.6921C71.0521 71.196 71.6561 71.16 72.5041 71.088L72.3721 72.372C71.6681 72.444 71.0641 72.48 70.5601 72.48H70.0681C68.4121 72.48 67.5841 71.728 67.5841 70.224C67.5841 70.024 67.5961 69.816 67.6201 69.6L67.7401 68.64C67.8601 67.68 68.1801 66.96 68.7001 66.48C69.2201 65.992 69.9561 65.748 70.9081 65.748H71.3521L73.0321 65.772L72.8761 67.044L70.7521 67.032ZM74.6752 63.18H76.0552L75.7432 65.748H77.3752C79.0312 65.748 79.8592 66.508 79.8592 68.028C79.8592 68.212 79.8472 68.412 79.8232 68.628L79.3552 72.432H77.9752L78.4432 68.592C78.4592 68.432 78.4672 68.32 78.4672 68.256C78.4672 67.44 78.0512 67.032 77.2192 67.032H75.5872L74.9272 72.432H73.5472L74.6752 63.18ZM82.72 72.432C82.12 72.432 81.64 72.264 81.28 71.928C80.92 71.584 80.74 71.14 80.74 70.596C80.74 70.476 80.744 70.384 80.752 70.32C80.824 69.824 80.952 69.432 81.136 69.144C81.32 68.848 81.584 68.636 81.928 68.508C82.28 68.372 82.74 68.304 83.308 68.304H85.324L85.336 68.208C85.344 68.168 85.348 68.112 85.348 68.04C85.348 67.728 85.244 67.476 85.036 67.284C84.828 67.092 84.504 66.996 84.064 66.996H83.752C83.04 66.996 82.4 67.016 81.832 67.056L82.012 65.832L82.36 65.808C82.488 65.8 82.712 65.788 83.032 65.772C83.36 65.756 83.644 65.748 83.884 65.748H84.208C85.032 65.748 85.656 65.944 86.08 66.336C86.504 66.728 86.716 67.252 86.716 67.908C86.716 67.98 86.708 68.104 86.692 68.28L86.2 72.432H82.72ZM82.12 70.464C82.12 70.696 82.184 70.876 82.312 71.004C82.448 71.124 82.64 71.184 82.888 71.184H84.976L85.18 69.504L83.188 69.492C82.884 69.484 82.64 69.544 82.456 69.672C82.28 69.792 82.172 70.008 82.132 70.32L82.12 70.464ZM91.9638 67.056C91.4678 67.04 91.1478 67.032 91.0038 67.032C90.4918 67.032 90.1078 67.156 89.8518 67.404C89.5958 67.644 89.4358 68.044 89.3718 68.604L88.8918 72.432H87.5118L87.9798 68.64C88.0998 67.624 88.4038 66.888 88.8918 66.432C89.3878 65.976 90.1438 65.748 91.1598 65.748C91.5598 65.748 91.8998 65.76 92.1798 65.784L91.9638 67.056ZM92.4195 68.64C92.6275 66.712 93.6915 65.748 95.6115 65.748H98.4795L97.6035 72.9C97.5155 73.548 97.2475 74.06 96.7995 74.436C96.3595 74.812 95.6915 75 94.7955 75C94.0035 75 93.2555 74.968 92.5515 74.904L92.6955 73.656C93.4635 73.728 94.1915 73.764 94.8795 73.764C95.3195 73.764 95.6435 73.692 95.8515 73.548C96.0595 73.404 96.1835 73.176 96.2235 72.864L96.2715 72.432H94.7715C93.1155 72.432 92.2875 71.66 92.2875 70.116C92.2875 69.94 92.2995 69.752 92.3235 69.552L92.4195 68.64ZM96.4275 71.172L96.9435 67.008H95.4555C94.4715 67.008 93.9235 67.54 93.8115 68.604L93.7035 69.588C93.6875 69.748 93.6795 69.856 93.6795 69.912C93.6795 70.752 94.0955 71.172 94.9275 71.172H96.4275ZM102.8 65.7C103.624 65.7 104.244 65.896 104.66 66.288C105.084 66.672 105.296 67.244 105.296 68.004C105.296 68.18 105.284 68.372 105.26 68.58L105.128 69.66H100.652V69.672C100.636 69.848 100.628 69.968 100.628 70.032C100.628 70.44 100.744 70.744 100.976 70.944C101.216 71.136 101.616 71.232 102.176 71.232H102.764C103.18 71.232 103.812 71.196 104.66 71.124L104.528 72.372C103.824 72.444 103.192 72.48 102.632 72.48H102.044C101.076 72.48 100.364 72.284 99.9084 71.892C99.4604 71.5 99.2364 70.924 99.2364 70.164C99.2364 69.98 99.2484 69.792 99.2724 69.6L99.3924 68.592C99.5044 67.632 99.8204 66.912 100.34 66.432C100.86 65.944 101.6 65.7 102.56 65.7H102.8ZM103.892 68.496V68.484C103.908 68.308 103.916 68.18 103.916 68.1C103.916 67.716 103.812 67.424 103.604 67.224C103.404 67.024 103.084 66.924 102.644 66.924H102.404C101.46 66.924 100.924 67.448 100.796 68.496H103.892Z" fill="black"/>
</svg>
