<svg width="232" height="95" viewBox="0 0 232 95" fill="none" xmlns="http://www.w3.org/2000/svg">
<path d="M23.296 40.6021L29.66 34.2381M37.674 31.4081L35.769 37.1241C35.7385 37.2155 35.6864 37.2982 35.6171 37.3652C35.5478 37.4322 35.4634 37.4816 35.371 37.5091L23.693 40.9811C23.5878 41.0123 23.476 41.0141 23.3699 40.9862C23.2637 40.9584 23.1672 40.9019 23.0909 40.823C23.0146 40.7442 22.9614 40.6459 22.9371 40.5388C22.9128 40.4318 22.9183 40.3202 22.953 40.2161L26.745 28.8421C26.7722 28.7604 26.8166 28.6855 26.8753 28.6226C26.9339 28.5596 27.0055 28.51 27.085 28.4771L32.472 26.2591C32.5815 26.2138 32.702 26.202 32.8182 26.2252C32.9344 26.2483 33.0412 26.3053 33.125 26.3891L37.529 30.7941C37.6078 30.8728 37.6631 30.972 37.6887 31.0805C37.7143 31.1889 37.7092 31.3023 37.674 31.4081Z" stroke="#D87A0C" stroke-width="1.5" stroke-linecap="round" stroke-linejoin="round"/>
<path d="M38.403 23.1821L40.767 25.5461C40.9446 25.716 41.0865 25.9198 41.1844 26.1453C41.2822 26.3709 41.334 26.6137 41.3367 26.8595C41.3395 27.1054 41.293 27.3493 41.2002 27.5769C41.1074 27.8046 40.97 28.0114 40.7962 28.1852C40.6223 28.3591 40.4155 28.4965 40.1878 28.5893C39.9602 28.6821 39.7163 28.7285 39.4704 28.7258C39.2246 28.7231 38.9818 28.6713 38.7562 28.5735C38.5307 28.4756 38.3269 28.3337 38.157 28.1561L35.792 25.7921C35.4584 25.4434 35.2746 24.978 35.28 24.4955C35.2853 24.013 35.4793 23.5518 35.8205 23.2106C36.1617 22.8694 36.6229 22.6754 37.1054 22.67C37.5879 22.6647 38.0543 22.8485 38.403 23.1821Z" fill="#D87A0C" stroke="#D87A0C" stroke-width="1.5" stroke-linecap="round" stroke-linejoin="round"/>
<path d="M31.781 32.116C31.6426 31.9727 31.4771 31.8585 31.2941 31.7799C31.1111 31.7012 30.9143 31.6599 30.7151 31.6581C30.516 31.6564 30.3184 31.6944 30.1341 31.7698C29.9497 31.8452 29.7823 31.9566 29.6414 32.0974C29.5006 32.2383 29.3892 32.4057 29.3138 32.5901C29.2384 32.7744 29.2004 32.9719 29.2021 33.1711C29.2039 33.3703 29.2453 33.5671 29.3239 33.7501C29.4025 33.9331 29.5168 34.0986 29.66 34.237C29.9429 34.5103 30.3218 34.6614 30.7151 34.658C31.1084 34.6546 31.4846 34.4969 31.7627 34.2187C32.0409 33.9406 32.1986 33.5644 32.202 33.1711C32.2054 32.7778 32.0543 32.3989 31.781 32.116Z" stroke="#D87A0C" stroke-width="1.5" stroke-linecap="round" stroke-linejoin="round"/>
<path d="M54.08 23.56H61.952L61.744 25.32H55.76L55.312 28.888H60.736L60.528 30.648H55.104L54.496 35.576H52.608L54.08 23.56ZM67.7538 28.408C67.0924 28.3867 66.6658 28.376 66.4738 28.376C65.7911 28.376 65.2791 28.5413 64.9378 28.872C64.5964 29.192 64.3831 29.7253 64.2978 30.472L63.6578 35.576H61.8178L62.4418 30.52C62.6018 29.1653 63.0071 28.184 63.6578 27.576C64.3191 26.968 65.3271 26.664 66.6818 26.664C67.2151 26.664 67.6684 26.68 68.0418 26.712L67.7538 28.408ZM72.9214 26.6C74.02 26.6 74.8467 26.8613 75.4014 27.384C75.9667 27.896 76.2494 28.6587 76.2494 29.672C76.2494 29.9067 76.2334 30.1627 76.2014 30.44L76.0254 31.88H70.0574V31.896C70.036 32.1307 70.0254 32.2907 70.0254 32.376C70.0254 32.92 70.18 33.3253 70.4894 33.592C70.8094 33.848 71.3427 33.976 72.0894 33.976H72.8734C73.428 33.976 74.2707 33.928 75.4014 33.832L75.2254 35.496C74.2867 35.592 73.444 35.64 72.6974 35.64H71.9134C70.6227 35.64 69.6734 35.3787 69.0654 34.856C68.468 34.3333 68.1694 33.5653 68.1694 32.552C68.1694 32.3067 68.1854 32.056 68.2174 31.8L68.3774 30.456C68.5267 29.176 68.948 28.216 69.6414 27.576C70.3347 26.9253 71.3214 26.6 72.6014 26.6H72.9214ZM74.3774 30.328V30.312C74.3987 30.0773 74.4094 29.9067 74.4094 29.8C74.4094 29.288 74.2707 28.8987 73.9934 28.632C73.7267 28.3653 73.3 28.232 72.7134 28.232H72.3934C71.1347 28.232 70.42 28.9307 70.2494 30.328H74.3774ZM81.9839 26.6C83.0825 26.6 83.9092 26.8613 84.4639 27.384C85.0292 27.896 85.3119 28.6587 85.3119 29.672C85.3119 29.9067 85.2959 30.1627 85.2639 30.44L85.0879 31.88H79.1199V31.896C79.0985 32.1307 79.0879 32.2907 79.0879 32.376C79.0879 32.92 79.2425 33.3253 79.5519 33.592C79.8719 33.848 80.4052 33.976 81.1519 33.976H81.9359C82.4905 33.976 83.3332 33.928 84.4639 33.832L84.2879 35.496C83.3492 35.592 82.5065 35.64 81.7599 35.64H80.9759C79.6852 35.64 78.7359 35.3787 78.1279 34.856C77.5305 34.3333 77.2319 33.5653 77.2319 32.552C77.2319 32.3067 77.2479 32.056 77.2799 31.8L77.4399 30.456C77.5892 29.176 78.0105 28.216 78.7039 27.576C79.3972 26.9253 80.3839 26.6 81.6639 26.6H81.9839ZM83.4399 30.328V30.312C83.4612 30.0773 83.4719 29.9067 83.4719 29.8C83.4719 29.288 83.3332 28.8987 83.0559 28.632C82.7892 28.3653 82.3625 28.232 81.7759 28.232H81.4559C80.1972 28.232 79.4825 28.9307 79.3119 30.328H83.4399ZM96.29 23.56C97.698 23.5707 98.7327 23.88 99.394 24.488C100.055 25.0853 100.386 26.0293 100.386 27.32C100.386 27.6507 100.359 28.056 100.306 28.536L100.066 30.6C99.8313 32.3387 99.298 33.6027 98.466 34.392C97.634 35.1707 96.4127 35.5653 94.802 35.576H89.858L91.33 23.56H96.29ZM95.042 33.816C96.0127 33.816 96.738 33.5707 97.218 33.08C97.698 32.5893 98.0073 31.7947 98.146 30.696L98.434 28.44C98.4767 28.0133 98.498 27.7147 98.498 27.544C98.498 26.7653 98.3113 26.2 97.938 25.848C97.5753 25.496 96.9727 25.32 96.13 25.32H93.01L91.954 33.816H95.042ZM106.25 26.6C107.348 26.6 108.175 26.8613 108.73 27.384C109.295 27.896 109.578 28.6587 109.578 29.672C109.578 29.9067 109.562 30.1627 109.53 30.44L109.354 31.88H103.386V31.896C103.364 32.1307 103.354 32.2907 103.354 32.376C103.354 32.92 103.508 33.3253 103.818 33.592C104.138 33.848 104.671 33.976 105.418 33.976H106.202C106.756 33.976 107.599 33.928 108.73 33.832L108.554 35.496C107.615 35.592 106.772 35.64 106.026 35.64H105.242C103.951 35.64 103.002 35.3787 102.394 34.856C101.796 34.3333 101.498 33.5653 101.498 32.552C101.498 32.3067 101.514 32.056 101.546 31.8L101.706 30.456C101.855 29.176 102.276 28.216 102.97 27.576C103.663 26.9253 104.65 26.6 105.93 26.6H106.25ZM107.706 30.328V30.312C107.727 30.0773 107.738 29.9067 107.738 29.8C107.738 29.288 107.599 28.8987 107.322 28.632C107.055 28.3653 106.628 28.232 106.042 28.232H105.722C104.463 28.232 103.748 28.9307 103.578 30.328H107.706ZM112.608 35.64C111.627 35.6187 110.779 35.576 110.064 35.512L110.304 33.784C111.349 33.88 112.187 33.9387 112.816 33.96H113.36C114.043 33.96 114.517 33.8747 114.784 33.704C115.061 33.5333 115.232 33.288 115.296 32.968C115.307 32.9147 115.312 32.84 115.312 32.744C115.312 32.4773 115.269 32.3013 115.184 32.216C115.109 32.0987 114.987 32.0187 114.816 31.976C114.645 31.9333 114.32 31.8853 113.84 31.832L113.472 31.784C112.917 31.7413 112.389 31.6453 111.888 31.496C111.493 31.3467 111.2 31.1333 111.008 30.856C110.816 30.568 110.72 30.1893 110.72 29.72C110.72 29.624 110.731 29.4587 110.752 29.224C110.827 28.5733 111.013 28.0667 111.312 27.704C111.611 27.3307 112.027 27.064 112.56 26.904C113.093 26.744 113.781 26.664 114.624 26.664H115.28L117.536 26.68L117.328 28.376H114.416C113.947 28.376 113.589 28.4027 113.344 28.456C113.099 28.4987 112.917 28.5787 112.8 28.696C112.693 28.8027 112.624 28.9627 112.592 29.176C112.581 29.2293 112.576 29.2987 112.576 29.384C112.576 29.5547 112.624 29.6987 112.72 29.816C112.827 29.944 112.981 30.0347 113.184 30.088C113.397 30.1307 113.787 30.184 114.352 30.248C115.024 30.312 115.573 30.4133 116 30.552C116.373 30.68 116.656 30.8987 116.848 31.208C117.051 31.5173 117.152 31.9173 117.152 32.408C117.152 32.6427 117.141 32.824 117.12 32.952C116.992 33.944 116.619 34.6373 116 35.032C115.381 35.4373 114.432 35.64 113.152 35.64H112.608ZM119.554 25.464L119.794 23.544H121.89L121.65 25.464H119.554ZM120.289 35.576H118.45L119.554 26.664H121.394L120.289 35.576ZM122.705 30.52C122.982 27.9493 124.401 26.664 126.961 26.664H130.785L129.617 36.2C129.5 37.064 129.142 37.7467 128.545 38.248C127.958 38.7493 127.068 39 125.873 39C124.817 39 123.82 38.9573 122.881 38.872L123.073 37.208C124.097 37.304 125.068 37.352 125.985 37.352C126.572 37.352 127.004 37.256 127.281 37.064C127.558 36.872 127.724 36.568 127.777 36.152L127.841 35.576H125.841C123.633 35.576 122.529 34.5467 122.529 32.488C122.529 32.2533 122.545 32.0027 122.577 31.736L122.705 30.52ZM128.049 33.896L128.737 28.344H126.753C125.441 28.344 124.71 29.0533 124.561 30.472L124.417 31.784C124.396 31.9973 124.385 32.1413 124.385 32.216C124.385 33.336 124.94 33.896 126.049 33.896H128.049ZM134.402 28.376L133.538 35.576H131.698L132.786 26.664H136.802C139.01 26.664 140.114 27.6773 140.114 29.704C140.114 29.9493 140.098 30.216 140.066 30.504L139.442 35.576H137.602L138.226 30.456C138.248 30.2427 138.258 30.0933 138.258 30.008C138.258 28.92 137.704 28.376 136.594 28.376H134.402Z" fill="#D87A0C"/>
<path d="M53.56 49.42H59.464L59.308 50.74H54.82L54.484 53.416H58.552L58.396 54.736H54.328L53.872 58.432H52.456L53.56 49.42ZM63.8153 53.056C63.3193 53.04 62.9993 53.032 62.8553 53.032C62.3433 53.032 61.9593 53.156 61.7033 53.404C61.4473 53.644 61.2873 54.044 61.2233 54.604L60.7433 58.432H59.3633L59.8313 54.64C59.9513 53.624 60.2553 52.888 60.7433 52.432C61.2393 51.976 61.9953 51.748 63.0113 51.748C63.4113 51.748 63.7513 51.76 64.0313 51.784L63.8153 53.056ZM67.691 51.7C68.515 51.7 69.135 51.896 69.551 52.288C69.975 52.672 70.187 53.244 70.187 54.004C70.187 54.18 70.175 54.372 70.151 54.58L70.019 55.66H65.543V55.672C65.527 55.848 65.519 55.968 65.519 56.032C65.519 56.44 65.635 56.744 65.867 56.944C66.107 57.136 66.507 57.232 67.067 57.232H67.655C68.071 57.232 68.703 57.196 69.551 57.124L69.419 58.372C68.715 58.444 68.083 58.48 67.523 58.48H66.935C65.967 58.48 65.255 58.284 64.799 57.892C64.351 57.5 64.127 56.924 64.127 56.164C64.127 55.98 64.139 55.792 64.163 55.6L64.283 54.592C64.395 53.632 64.711 52.912 65.231 52.432C65.751 51.944 66.491 51.7 67.451 51.7H67.691ZM68.783 54.496V54.484C68.799 54.308 68.807 54.18 68.807 54.1C68.807 53.716 68.703 53.424 68.495 53.224C68.295 53.024 67.975 52.924 67.535 52.924H67.295C66.351 52.924 65.815 53.448 65.687 54.496H68.783ZM74.4879 51.7C75.3119 51.7 75.9319 51.896 76.3479 52.288C76.7719 52.672 76.9839 53.244 76.9839 54.004C76.9839 54.18 76.9719 54.372 76.9479 54.58L76.8159 55.66H72.3399V55.672C72.3239 55.848 72.3159 55.968 72.3159 56.032C72.3159 56.44 72.4319 56.744 72.6639 56.944C72.9039 57.136 73.3039 57.232 73.8639 57.232H74.4519C74.8679 57.232 75.4999 57.196 76.3479 57.124L76.2159 58.372C75.5119 58.444 74.8799 58.48 74.3199 58.48H73.7319C72.7639 58.48 72.0519 58.284 71.5959 57.892C71.1479 57.5 70.9239 56.924 70.9239 56.164C70.9239 55.98 70.9359 55.792 70.9599 55.6L71.0799 54.592C71.1919 53.632 71.5079 52.912 72.0279 52.432C72.5479 51.944 73.2879 51.7 74.2479 51.7H74.4879ZM75.5799 54.496V54.484C75.5959 54.308 75.6039 54.18 75.6039 54.1C75.6039 53.716 75.4999 53.424 75.2919 53.224C75.0919 53.024 74.7719 52.924 74.3319 52.924H74.0919C73.1479 52.924 72.6119 53.448 72.4839 54.496H75.5799ZM79.9735 60.952L81.1015 51.748H84.1135C84.9455 51.748 85.5695 51.94 85.9855 52.324C86.4015 52.708 86.6095 53.276 86.6095 54.028C86.6095 54.22 86.5975 54.42 86.5735 54.628L86.4655 55.54C86.2335 57.468 85.1695 58.432 83.2735 58.432H81.6655L81.3535 60.952H79.9735ZM83.4295 57.148C84.3895 57.148 84.9335 56.624 85.0615 55.576L85.1815 54.592C85.1975 54.432 85.2055 54.32 85.2055 54.256C85.2055 53.44 84.7895 53.032 83.9575 53.032H82.3255L81.8215 57.148H83.4295ZM89.3059 58.432C88.7059 58.432 88.2259 58.264 87.8659 57.928C87.5059 57.584 87.3259 57.14 87.3259 56.596C87.3259 56.476 87.3299 56.384 87.3379 56.32C87.4099 55.824 87.5379 55.432 87.7219 55.144C87.9059 54.848 88.1699 54.636 88.5139 54.508C88.8659 54.372 89.3259 54.304 89.8939 54.304H91.9099L91.9219 54.208C91.9299 54.168 91.9339 54.112 91.9339 54.04C91.9339 53.728 91.8299 53.476 91.6219 53.284C91.4139 53.092 91.0899 52.996 90.6499 52.996H90.3379C89.6259 52.996 88.9859 53.016 88.4179 53.056L88.5979 51.832L88.9459 51.808C89.0739 51.8 89.2979 51.788 89.6179 51.772C89.9459 51.756 90.2299 51.748 90.4699 51.748H90.7939C91.6179 51.748 92.2419 51.944 92.6659 52.336C93.0899 52.728 93.3019 53.252 93.3019 53.908C93.3019 53.98 93.2939 54.104 93.2779 54.28L92.7859 58.432H89.3059ZM88.7059 56.464C88.7059 56.696 88.7699 56.876 88.8979 57.004C89.0339 57.124 89.2259 57.184 89.4739 57.184H91.5619L91.7659 55.504L89.7739 55.492C89.4699 55.484 89.2259 55.544 89.0419 55.672C88.8659 55.792 88.7579 56.008 88.7179 56.32L88.7059 56.464ZM97.5177 53.032C97.0217 53.032 96.6417 53.164 96.3777 53.428C96.1217 53.692 95.9617 54.084 95.8977 54.604L95.7777 55.636C95.7617 55.796 95.7537 55.912 95.7537 55.984C95.7537 56.792 96.1657 57.196 96.9897 57.196H97.4577C97.8177 57.196 98.4217 57.16 99.2697 57.088L99.1377 58.372C98.4337 58.444 97.8297 58.48 97.3257 58.48H96.8337C95.1777 58.48 94.3497 57.728 94.3497 56.224C94.3497 56.024 94.3617 55.816 94.3857 55.6L94.5057 54.64C94.6257 53.68 94.9457 52.96 95.4657 52.48C95.9857 51.992 96.7217 51.748 97.6737 51.748H98.1177L99.7977 51.772L99.6417 53.044L97.5177 53.032ZM101.693 58.42H100.313L101.489 48.964H102.869L102.233 54.1L104.909 51.748H106.853L103.313 54.748L106.253 58.42H104.465L102.089 55.252L101.693 58.42ZM108.63 58.432C108.03 58.432 107.55 58.264 107.19 57.928C106.83 57.584 106.65 57.14 106.65 56.596C106.65 56.476 106.654 56.384 106.662 56.32C106.734 55.824 106.862 55.432 107.046 55.144C107.23 54.848 107.494 54.636 107.838 54.508C108.19 54.372 108.65 54.304 109.218 54.304H111.234L111.246 54.208C111.254 54.168 111.258 54.112 111.258 54.04C111.258 53.728 111.154 53.476 110.946 53.284C110.738 53.092 110.414 52.996 109.974 52.996H109.662C108.95 52.996 108.31 53.016 107.742 53.056L107.922 51.832L108.27 51.808C108.398 51.8 108.622 51.788 108.942 51.772C109.27 51.756 109.554 51.748 109.794 51.748H110.118C110.942 51.748 111.566 51.944 111.99 52.336C112.414 52.728 112.626 53.252 112.626 53.908C112.626 53.98 112.618 54.104 112.602 54.28L112.11 58.432H108.63ZM108.03 56.464C108.03 56.696 108.094 56.876 108.222 57.004C108.358 57.124 108.55 57.184 108.798 57.184H110.886L111.09 55.504L109.098 55.492C108.794 55.484 108.55 55.544 108.366 55.672C108.19 55.792 108.082 56.008 108.042 56.32L108.03 56.464ZM113.818 54.64C114.026 52.712 115.09 51.748 117.01 51.748H119.878L119.002 58.9C118.914 59.548 118.646 60.06 118.198 60.436C117.758 60.812 117.09 61 116.194 61C115.402 61 114.654 60.968 113.95 60.904L114.094 59.656C114.862 59.728 115.59 59.764 116.278 59.764C116.718 59.764 117.042 59.692 117.25 59.548C117.458 59.404 117.582 59.176 117.622 58.864L117.67 58.432H116.17C114.514 58.432 113.686 57.66 113.686 56.116C113.686 55.94 113.698 55.752 113.722 55.552L113.818 54.64ZM117.826 57.172L118.342 53.008H116.854C115.87 53.008 115.322 53.54 115.21 54.604L115.102 55.588C115.086 55.748 115.078 55.856 115.078 55.912C115.078 56.752 115.494 57.172 116.326 57.172H117.826ZM121.427 50.848L121.607 49.408H123.179L122.999 50.848H121.427ZM121.979 58.432H120.599L121.427 51.748H122.807L121.979 58.432ZM125.603 53.032L124.955 58.432H123.575L124.391 51.748H127.403C129.059 51.748 129.887 52.508 129.887 54.028C129.887 54.212 129.875 54.412 129.851 54.628L129.383 58.432H128.003L128.471 54.592C128.487 54.432 128.495 54.32 128.495 54.256C128.495 53.44 128.079 53.032 127.247 53.032H125.603ZM131.091 54.64C131.299 52.712 132.363 51.748 134.283 51.748H137.151L136.275 58.9C136.187 59.548 135.919 60.06 135.471 60.436C135.031 60.812 134.363 61 133.467 61C132.675 61 131.927 60.968 131.223 60.904L131.367 59.656C132.135 59.728 132.863 59.764 133.551 59.764C133.991 59.764 134.315 59.692 134.523 59.548C134.731 59.404 134.855 59.176 134.895 58.864L134.943 58.432H133.443C131.787 58.432 130.959 57.66 130.959 56.116C130.959 55.94 130.971 55.752 130.995 55.552L131.091 54.64ZM135.099 57.172L135.615 53.008H134.127C133.143 53.008 132.595 53.54 132.483 54.604L132.375 55.588C132.359 55.748 132.351 55.856 132.351 55.912C132.351 56.752 132.767 57.172 133.599 57.172H135.099ZM140.689 54.64C140.921 52.712 141.953 51.748 143.785 51.748H145.357L145.669 49.18H147.049L145.921 58.432H143.029C141.373 58.432 140.545 57.672 140.545 56.152C140.545 55.968 140.557 55.768 140.581 55.552L140.689 54.64ZM144.697 57.148L145.201 53.008H143.629C142.725 53.008 142.209 53.54 142.081 54.604L141.961 55.588C141.945 55.748 141.937 55.864 141.937 55.936C141.937 56.744 142.353 57.148 143.185 57.148H144.697ZM151.117 51.7C151.941 51.7 152.561 51.896 152.977 52.288C153.401 52.672 153.613 53.244 153.613 54.004C153.613 54.18 153.601 54.372 153.577 54.58L153.445 55.66H148.969V55.672C148.953 55.848 148.945 55.968 148.945 56.032C148.945 56.44 149.061 56.744 149.293 56.944C149.533 57.136 149.933 57.232 150.493 57.232H151.081C151.497 57.232 152.129 57.196 152.977 57.124L152.845 58.372C152.141 58.444 151.509 58.48 150.949 58.48H150.361C149.393 58.48 148.681 58.284 148.225 57.892C147.777 57.5 147.553 56.924 147.553 56.164C147.553 55.98 147.565 55.792 147.589 55.6L147.709 54.592C147.821 53.632 148.137 52.912 148.657 52.432C149.177 51.944 149.917 51.7 150.877 51.7H151.117ZM152.209 54.496V54.484C152.225 54.308 152.233 54.18 152.233 54.1C152.233 53.716 152.129 53.424 151.921 53.224C151.721 53.024 151.401 52.924 150.961 52.924H150.721C149.777 52.924 149.241 53.448 149.113 54.496H152.209ZM155.886 58.48C155.15 58.464 154.514 58.432 153.978 58.384L154.158 57.088C154.942 57.16 155.57 57.204 156.042 57.22H156.45C156.962 57.22 157.318 57.156 157.518 57.028C157.726 56.9 157.854 56.716 157.902 56.476C157.91 56.436 157.914 56.38 157.914 56.308C157.914 56.108 157.882 55.976 157.818 55.912C157.762 55.824 157.67 55.764 157.542 55.732C157.414 55.7 157.17 55.664 156.81 55.624L156.534 55.588C156.118 55.556 155.722 55.484 155.346 55.372C155.05 55.26 154.83 55.1 154.686 54.892C154.542 54.676 154.47 54.392 154.47 54.04C154.47 53.968 154.478 53.844 154.494 53.668C154.55 53.18 154.69 52.8 154.914 52.528C155.138 52.248 155.45 52.048 155.85 51.928C156.25 51.808 156.766 51.748 157.398 51.748H157.89L159.582 51.76L159.426 53.032H157.242C156.89 53.032 156.622 53.052 156.438 53.092C156.254 53.124 156.118 53.184 156.03 53.272C155.95 53.352 155.898 53.472 155.874 53.632C155.866 53.672 155.862 53.724 155.862 53.788C155.862 53.916 155.898 54.024 155.97 54.112C156.05 54.208 156.166 54.276 156.318 54.316C156.478 54.348 156.77 54.388 157.194 54.436C157.698 54.484 158.11 54.56 158.43 54.664C158.71 54.76 158.922 54.924 159.066 55.156C159.218 55.388 159.294 55.688 159.294 56.056C159.294 56.232 159.286 56.368 159.27 56.464C159.174 57.208 158.894 57.728 158.43 58.024C157.966 58.328 157.254 58.48 156.294 58.48H155.886ZM161.095 50.848L161.275 49.408H162.847L162.667 50.848H161.095ZM161.647 58.432H160.267L161.095 51.748H162.475L161.647 58.432ZM163.459 54.64C163.667 52.712 164.731 51.748 166.651 51.748H169.519L168.643 58.9C168.555 59.548 168.287 60.06 167.839 60.436C167.399 60.812 166.731 61 165.835 61C165.043 61 164.295 60.968 163.591 60.904L163.735 59.656C164.503 59.728 165.231 59.764 165.919 59.764C166.359 59.764 166.683 59.692 166.891 59.548C167.099 59.404 167.223 59.176 167.263 58.864L167.311 58.432H165.811C164.155 58.432 163.327 57.66 163.327 56.116C163.327 55.94 163.339 55.752 163.363 55.552L163.459 54.64ZM167.467 57.172L167.983 53.008H166.495C165.511 53.008 164.963 53.54 164.851 54.604L164.743 55.588C164.727 55.748 164.719 55.856 164.719 55.912C164.719 56.752 165.135 57.172 165.967 57.172H167.467ZM172.231 53.032L171.583 58.432H170.203L171.019 51.748H174.031C175.687 51.748 176.515 52.508 176.515 54.028C176.515 54.212 176.503 54.412 176.479 54.628L176.011 58.432H174.631L175.099 54.592C175.115 54.432 175.123 54.32 175.123 54.256C175.123 53.44 174.707 53.032 173.875 53.032H172.231ZM176.952 59.908C177.312 58.788 177.592 57.788 177.792 56.908H179.136C178.848 57.892 178.492 58.892 178.068 59.908H176.952ZM185.905 51.748H187.969L187.813 53.032H185.749L185.089 58.432H183.709L184.369 53.032H182.977L183.133 51.748H184.525L184.585 51.256C184.761 49.84 185.577 49.132 187.033 49.132C187.393 49.132 187.813 49.152 188.293 49.192L188.101 50.464L187.705 50.44C187.321 50.424 187.089 50.416 187.009 50.416C186.657 50.416 186.401 50.504 186.241 50.68C186.081 50.848 185.981 51.112 185.941 51.472L185.905 51.748ZM192.487 53.056C191.991 53.04 191.671 53.032 191.527 53.032C191.015 53.032 190.631 53.156 190.375 53.404C190.119 53.644 189.959 54.044 189.895 54.604L189.415 58.432H188.035L188.503 54.64C188.623 53.624 188.927 52.888 189.415 52.432C189.911 51.976 190.667 51.748 191.683 51.748C192.083 51.748 192.423 51.76 192.703 51.784L192.487 53.056ZM196.363 51.7C197.187 51.7 197.807 51.896 198.223 52.288C198.647 52.672 198.859 53.244 198.859 54.004C198.859 54.18 198.847 54.372 198.823 54.58L198.691 55.66H194.215V55.672C194.199 55.848 194.191 55.968 194.191 56.032C194.191 56.44 194.307 56.744 194.539 56.944C194.779 57.136 195.179 57.232 195.739 57.232H196.327C196.743 57.232 197.375 57.196 198.223 57.124L198.091 58.372C197.387 58.444 196.755 58.48 196.195 58.48H195.607C194.639 58.48 193.927 58.284 193.471 57.892C193.023 57.5 192.799 56.924 192.799 56.164C192.799 55.98 192.811 55.792 192.835 55.6L192.955 54.592C193.067 53.632 193.383 52.912 193.903 52.432C194.423 51.944 195.163 51.7 196.123 51.7H196.363ZM197.455 54.496V54.484C197.471 54.308 197.479 54.18 197.479 54.1C197.479 53.716 197.375 53.424 197.167 53.224C196.967 53.024 196.647 52.924 196.207 52.924H195.967C195.023 52.924 194.487 53.448 194.359 54.496H197.455ZM203.16 51.7C203.984 51.7 204.604 51.896 205.02 52.288C205.444 52.672 205.656 53.244 205.656 54.004C205.656 54.18 205.644 54.372 205.62 54.58L205.488 55.66H201.012V55.672C200.996 55.848 200.988 55.968 200.988 56.032C200.988 56.44 201.104 56.744 201.336 56.944C201.576 57.136 201.976 57.232 202.536 57.232H203.124C203.54 57.232 204.172 57.196 205.02 57.124L204.888 58.372C204.184 58.444 203.552 58.48 202.992 58.48H202.404C201.436 58.48 200.724 58.284 200.268 57.892C199.82 57.5 199.596 56.924 199.596 56.164C199.596 55.98 199.608 55.792 199.632 55.6L199.752 54.592C199.864 53.632 200.18 52.912 200.7 52.432C201.22 51.944 201.96 51.7 202.92 51.7H203.16ZM204.252 54.496V54.484C204.268 54.308 204.276 54.18 204.276 54.1C204.276 53.716 204.172 53.424 203.964 53.224C203.764 53.024 203.444 52.924 203.004 52.924H202.764C201.82 52.924 201.284 53.448 201.156 54.496H204.252ZM52.348 72.432L53.476 63.18H54.856L53.728 72.432H52.348ZM55.5174 68.592C55.7494 66.664 56.8094 65.7 58.6974 65.7H59.2734C60.9294 65.7 61.7574 66.46 61.7574 67.98C61.7574 68.164 61.7454 68.364 61.7214 68.58L61.6014 69.588C61.3694 71.516 60.3094 72.48 58.4214 72.48H57.8454C56.1894 72.48 55.3614 71.72 55.3614 70.2C55.3614 70.016 55.3734 69.816 55.3974 69.6L55.5174 68.592ZM58.5774 71.196C59.5374 71.196 60.0814 70.672 60.2094 69.624L60.3414 68.544C60.3574 68.384 60.3654 68.272 60.3654 68.208C60.3654 67.392 59.9494 66.984 59.1174 66.984H58.5414C57.5814 66.984 57.0374 67.508 56.9094 68.556L56.7774 69.636C56.7614 69.796 56.7534 69.908 56.7534 69.972C56.7534 70.788 57.1694 71.196 58.0014 71.196H58.5774ZM62.7945 68.64C63.0025 66.712 64.0665 65.748 65.9865 65.748H68.8545L67.9785 72.9C67.8905 73.548 67.6225 74.06 67.1745 74.436C66.7345 74.812 66.0665 75 65.1705 75C64.3785 75 63.6305 74.968 62.9265 74.904L63.0705 73.656C63.8385 73.728 64.5665 73.764 65.2545 73.764C65.6945 73.764 66.0185 73.692 66.2265 73.548C66.4345 73.404 66.5585 73.176 66.5985 72.864L66.6465 72.432H65.1465C63.4905 72.432 62.6625 71.66 62.6625 70.116C62.6625 69.94 62.6745 69.752 62.6985 69.552L62.7945 68.64ZM66.8025 71.172L67.3185 67.008H65.8305C64.8465 67.008 64.2985 67.54 64.1865 68.604L64.0785 69.588C64.0625 69.748 64.0545 69.856 64.0545 69.912C64.0545 70.752 64.4705 71.172 65.3025 71.172H66.8025ZM69.7674 68.592C69.9994 66.664 71.0594 65.7 72.9474 65.7H73.5234C75.1794 65.7 76.0074 66.46 76.0074 67.98C76.0074 68.164 75.9954 68.364 75.9714 68.58L75.8514 69.588C75.6194 71.516 74.5594 72.48 72.6714 72.48H72.0954C70.4394 72.48 69.6114 71.72 69.6114 70.2C69.6114 70.016 69.6234 69.816 69.6474 69.6L69.7674 68.592ZM72.8274 71.196C73.7874 71.196 74.3314 70.672 74.4594 69.624L74.5914 68.544C74.6074 68.384 74.6154 68.272 74.6154 68.208C74.6154 67.392 74.1994 66.984 73.3674 66.984H72.7914C71.8314 66.984 71.2874 67.508 71.1594 68.556L71.0274 69.636C71.0114 69.796 71.0034 69.908 71.0034 69.972C71.0034 70.788 71.4194 71.196 72.2514 71.196H72.8274ZM79.6812 68.64C79.9132 66.712 80.9452 65.748 82.7772 65.748H84.3492L84.6612 63.18H86.0412L84.9132 72.432H82.0212C80.3652 72.432 79.5372 71.672 79.5372 70.152C79.5372 69.968 79.5492 69.768 79.5732 69.552L79.6812 68.64ZM83.6892 71.148L84.1932 67.008H82.6212C81.7172 67.008 81.2012 67.54 81.0732 68.604L80.9532 69.588C80.9372 69.748 80.9292 69.864 80.9292 69.936C80.9292 70.744 81.3452 71.148 82.1772 71.148H83.6892ZM90.109 65.7C90.933 65.7 91.553 65.896 91.969 66.288C92.393 66.672 92.605 67.244 92.605 68.004C92.605 68.18 92.593 68.372 92.569 68.58L92.437 69.66H87.961V69.672C87.945 69.848 87.937 69.968 87.937 70.032C87.937 70.44 88.053 70.744 88.285 70.944C88.525 71.136 88.925 71.232 89.485 71.232H90.073C90.489 71.232 91.121 71.196 91.969 71.124L91.837 72.372C91.133 72.444 90.501 72.48 89.941 72.48H89.353C88.385 72.48 87.673 72.284 87.217 71.892C86.769 71.5 86.545 70.924 86.545 70.164C86.545 69.98 86.557 69.792 86.581 69.6L86.701 68.592C86.813 67.632 87.129 66.912 87.649 66.432C88.169 65.944 88.909 65.7 89.869 65.7H90.109ZM91.201 68.496V68.484C91.217 68.308 91.225 68.18 91.225 68.1C91.225 67.716 91.121 67.424 90.913 67.224C90.713 67.024 90.393 66.924 89.953 66.924H89.713C88.769 66.924 88.233 67.448 88.105 68.496H91.201ZM94.8779 72.48C94.1419 72.464 93.5059 72.432 92.9699 72.384L93.1499 71.088C93.9339 71.16 94.5619 71.204 95.0339 71.22H95.4419C95.9539 71.22 96.3099 71.156 96.5099 71.028C96.7179 70.9 96.8459 70.716 96.8939 70.476C96.9019 70.436 96.9059 70.38 96.9059 70.308C96.9059 70.108 96.8739 69.976 96.8099 69.912C96.7539 69.824 96.6619 69.764 96.5339 69.732C96.4059 69.7 96.1619 69.664 95.8019 69.624L95.5259 69.588C95.1099 69.556 94.7139 69.484 94.3379 69.372C94.0419 69.26 93.8219 69.1 93.6779 68.892C93.5339 68.676 93.4619 68.392 93.4619 68.04C93.4619 67.968 93.4699 67.844 93.4859 67.668C93.5419 67.18 93.6819 66.8 93.9059 66.528C94.1299 66.248 94.4419 66.048 94.8419 65.928C95.2419 65.808 95.7579 65.748 96.3899 65.748H96.8819L98.5739 65.76L98.4179 67.032H96.2339C95.8819 67.032 95.6139 67.052 95.4299 67.092C95.2459 67.124 95.1099 67.184 95.0219 67.272C94.9419 67.352 94.8899 67.472 94.8659 67.632C94.8579 67.672 94.8539 67.724 94.8539 67.788C94.8539 67.916 94.8899 68.024 94.9619 68.112C95.0419 68.208 95.1579 68.276 95.3099 68.316C95.4699 68.348 95.7619 68.388 96.1859 68.436C96.6899 68.484 97.1019 68.56 97.4219 68.664C97.7019 68.76 97.9139 68.924 98.0579 69.156C98.2099 69.388 98.2859 69.688 98.2859 70.056C98.2859 70.232 98.2779 70.368 98.2619 70.464C98.1659 71.208 97.8859 71.728 97.4219 72.024C96.9579 72.328 96.2459 72.48 95.2859 72.48H94.8779ZM100.087 64.848L100.267 63.408H101.839L101.659 64.848H100.087ZM100.639 72.432H99.259L100.087 65.748H101.467L100.639 72.432ZM102.451 68.64C102.659 66.712 103.723 65.748 105.643 65.748H108.511L107.635 72.9C107.547 73.548 107.279 74.06 106.831 74.436C106.391 74.812 105.723 75 104.827 75C104.035 75 103.287 74.968 102.583 74.904L102.727 73.656C103.495 73.728 104.223 73.764 104.911 73.764C105.351 73.764 105.675 73.692 105.883 73.548C106.091 73.404 106.215 73.176 106.255 72.864L106.303 72.432H104.803C103.147 72.432 102.319 71.66 102.319 70.116C102.319 69.94 102.331 69.752 102.355 69.552L102.451 68.64ZM106.459 71.172L106.975 67.008H105.487C104.503 67.008 103.955 67.54 103.843 68.604L103.735 69.588C103.719 69.748 103.711 69.856 103.711 69.912C103.711 70.752 104.127 71.172 104.959 71.172H106.459ZM111.224 67.032L110.576 72.432H109.196L110.012 65.748H113.024C114.68 65.748 115.508 66.508 115.508 68.028C115.508 68.212 115.496 68.412 115.472 68.628L115.004 72.432H113.624L114.092 68.592C114.108 68.432 114.116 68.32 114.116 68.256C114.116 67.44 113.7 67.032 112.868 67.032H111.224Z" fill="black"/>
</svg>
