<svg width="232" height="95" viewBox="0 0 232 95" fill="none" xmlns="http://www.w3.org/2000/svg">
<path d="M29.781 23.098L25.671 25.894C24.364 26.784 23.71 27.229 23.355 27.905C23 28.581 23 29.385 23 30.99V37.919C23 39.843 23 40.805 23.586 41.403C24.172 42.001 25.114 42 27 42H37C38.886 42 39.828 42 40.414 41.402C41 40.804 41 39.842 41 37.918V30.988C41 29.385 41 28.582 40.645 27.905C40.29 27.229 39.636 26.784 38.328 25.894L34.218 23.098C33.144 22.366 32.607 22 32 22C31.393 22 30.857 22.366 29.781 23.098Z" stroke="#D87A0C" stroke-width="1.5" stroke-linecap="round" stroke-linejoin="round"/>
<path d="M27 42V35C27 33.114 27 32.172 27.586 31.586C28.172 31 29.114 31 31 31H33C34.886 31 35.828 31 36.414 31.586C37 32.172 37 33.114 37 35V42M27 34H37M27 38H37M32.008 27H31.999" stroke="#D87A0C" stroke-width="1.5" stroke-linecap="round" stroke-linejoin="round"/>
<path d="M54.08 23.56H61.952L61.744 25.32H55.76L55.312 28.888H60.736L60.528 30.648H55.104L54.496 35.576H52.608L54.08 23.56ZM67.7538 28.408C67.0924 28.3867 66.6658 28.376 66.4738 28.376C65.7911 28.376 65.2791 28.5413 64.9378 28.872C64.5964 29.192 64.3831 29.7253 64.2978 30.472L63.6578 35.576H61.8178L62.4418 30.52C62.6018 29.1653 63.0071 28.184 63.6578 27.576C64.3191 26.968 65.3271 26.664 66.6818 26.664C67.2151 26.664 67.6684 26.68 68.0418 26.712L67.7538 28.408ZM72.9214 26.6C74.02 26.6 74.8467 26.8613 75.4014 27.384C75.9667 27.896 76.2494 28.6587 76.2494 29.672C76.2494 29.9067 76.2334 30.1627 76.2014 30.44L76.0254 31.88H70.0574V31.896C70.036 32.1307 70.0254 32.2907 70.0254 32.376C70.0254 32.92 70.18 33.3253 70.4894 33.592C70.8094 33.848 71.3427 33.976 72.0894 33.976H72.8734C73.428 33.976 74.2707 33.928 75.4014 33.832L75.2254 35.496C74.2867 35.592 73.444 35.64 72.6974 35.64H71.9134C70.6227 35.64 69.6734 35.3787 69.0654 34.856C68.468 34.3333 68.1694 33.5653 68.1694 32.552C68.1694 32.3067 68.1854 32.056 68.2174 31.8L68.3774 30.456C68.5267 29.176 68.948 28.216 69.6414 27.576C70.3347 26.9253 71.3214 26.6 72.6014 26.6H72.9214ZM74.3774 30.328V30.312C74.3987 30.0773 74.4094 29.9067 74.4094 29.8C74.4094 29.288 74.2707 28.8987 73.9934 28.632C73.7267 28.3653 73.3 28.232 72.7134 28.232H72.3934C71.1347 28.232 70.42 28.9307 70.2494 30.328H74.3774ZM81.9839 26.6C83.0825 26.6 83.9092 26.8613 84.4639 27.384C85.0292 27.896 85.3119 28.6587 85.3119 29.672C85.3119 29.9067 85.2959 30.1627 85.2639 30.44L85.0879 31.88H79.1199V31.896C79.0985 32.1307 79.0879 32.2907 79.0879 32.376C79.0879 32.92 79.2425 33.3253 79.5519 33.592C79.8719 33.848 80.4052 33.976 81.1519 33.976H81.9359C82.4905 33.976 83.3332 33.928 84.4639 33.832L84.2879 35.496C83.3492 35.592 82.5065 35.64 81.7599 35.64H80.9759C79.6852 35.64 78.7359 35.3787 78.1279 34.856C77.5305 34.3333 77.2319 33.5653 77.2319 32.552C77.2319 32.3067 77.2479 32.056 77.2799 31.8L77.4399 30.456C77.5892 29.176 78.0105 28.216 78.7039 27.576C79.3972 26.9253 80.3839 26.6 81.6639 26.6H81.9839ZM83.4399 30.328V30.312C83.4612 30.0773 83.4719 29.9067 83.4719 29.8C83.4719 29.288 83.3332 28.8987 83.0559 28.632C82.7892 28.3653 82.3625 28.232 81.7759 28.232H81.4559C80.1972 28.232 79.4825 28.9307 79.3119 30.328H83.4399ZM92.786 35.64C91.3887 35.64 90.2367 35.5707 89.33 35.432L89.554 33.64C90.8553 33.8 92.002 33.88 92.994 33.88H93.202C93.874 33.88 94.402 33.816 94.786 33.688C95.1807 33.56 95.4633 33.3733 95.634 33.128C95.8047 32.8827 95.9113 32.568 95.954 32.184C95.9753 31.992 95.986 31.8587 95.986 31.784C95.986 31.4107 95.9007 31.128 95.73 30.936C95.5593 30.744 95.3033 30.6107 94.962 30.536C94.6313 30.4507 94.13 30.3653 93.458 30.28C92.69 30.1947 92.082 30.0613 91.634 29.88C91.186 29.6987 90.85 29.4373 90.626 29.096C90.4127 28.744 90.306 28.2747 90.306 27.688C90.306 27.4533 90.322 27.192 90.354 26.904C90.4927 25.6987 90.898 24.84 91.57 24.328C92.242 23.816 93.2713 23.56 94.658 23.56H95.778C96.5887 23.56 97.4847 23.5707 98.466 23.592L98.258 25.352C97.6927 25.352 97.2607 25.3467 96.962 25.336L95.57 25.32H94.45C93.6713 25.32 93.1007 25.4587 92.738 25.736C92.386 26.0027 92.21 26.5147 92.21 27.272C92.21 27.6027 92.274 27.8533 92.402 28.024C92.53 28.184 92.706 28.296 92.93 28.36C93.154 28.424 93.5167 28.4933 94.018 28.568C94.114 28.5787 94.306 28.6053 94.594 28.648C95.3833 28.7653 96.0127 28.92 96.482 29.112C96.9513 29.304 97.3033 29.5813 97.538 29.944C97.7727 30.296 97.89 30.776 97.89 31.384C97.89 31.608 97.874 31.848 97.842 32.104C97.7353 32.9893 97.5007 33.688 97.138 34.2C96.786 34.712 96.274 35.08 95.602 35.304C94.93 35.528 94.0607 35.64 92.994 35.64H92.786ZM98.7858 28.376L98.9938 26.664H101.01L101.282 24.392H103.122L102.85 26.664H105.57L105.362 28.376H102.642L102.146 32.456C102.135 32.5307 102.13 32.632 102.13 32.76C102.13 33.4747 102.482 33.832 103.186 33.832C103.484 33.832 104.018 33.8213 104.786 33.8L104.578 35.544C104.151 35.5653 103.618 35.576 102.978 35.576C102.103 35.576 101.426 35.3787 100.946 34.984C100.466 34.5893 100.226 34.0027 100.226 33.224C100.226 33.1387 100.236 32.9787 100.258 32.744L100.786 28.376H98.7858ZM106.299 30.456C106.609 27.8853 108.022 26.6 110.539 26.6H111.307C113.515 26.6 114.619 27.6133 114.619 29.64C114.619 29.8853 114.603 30.152 114.571 30.44L114.411 31.784C114.102 34.3547 112.689 35.64 110.171 35.64H109.403C107.195 35.64 106.091 34.6267 106.091 32.6C106.091 32.3547 106.107 32.088 106.139 31.8L106.299 30.456ZM110.379 33.928C111.659 33.928 112.385 33.2293 112.555 31.832L112.731 30.392C112.753 30.1787 112.763 30.0293 112.763 29.944C112.763 28.856 112.209 28.312 111.099 28.312H110.331C109.051 28.312 108.326 29.0107 108.155 30.408L107.979 31.848C107.958 32.0613 107.947 32.2107 107.947 32.296C107.947 33.384 108.502 33.928 109.611 33.928H110.379ZM121.41 28.408C120.749 28.3867 120.322 28.376 120.13 28.376C119.447 28.376 118.935 28.5413 118.594 28.872C118.253 29.192 118.039 29.7253 117.954 30.472L117.314 35.576H115.474L116.098 30.52C116.258 29.1653 116.663 28.184 117.314 27.576C117.975 26.968 118.983 26.664 120.338 26.664C120.871 26.664 121.325 26.68 121.698 26.712L121.41 28.408ZM124.226 35.576C123.426 35.576 122.786 35.352 122.306 34.904C121.826 34.4453 121.586 33.8533 121.586 33.128C121.586 32.968 121.591 32.8453 121.602 32.76C121.698 32.0987 121.868 31.576 122.114 31.192C122.359 30.7973 122.711 30.5147 123.17 30.344C123.639 30.1627 124.252 30.072 125.01 30.072H127.698L127.714 29.944C127.724 29.8907 127.73 29.816 127.73 29.72C127.73 29.304 127.591 28.968 127.314 28.712C127.036 28.456 126.604 28.328 126.018 28.328H125.602C124.652 28.328 123.799 28.3547 123.042 28.408L123.282 26.776L123.746 26.744C123.916 26.7333 124.215 26.7173 124.642 26.696C125.079 26.6747 125.458 26.664 125.778 26.664H126.21C127.308 26.664 128.14 26.9253 128.706 27.448C129.271 27.9707 129.554 28.6693 129.554 29.544C129.554 29.64 129.543 29.8053 129.522 30.04L128.866 35.576H124.226ZM123.426 32.952C123.426 33.2613 123.511 33.5013 123.682 33.672C123.863 33.832 124.119 33.912 124.45 33.912H127.234L127.506 31.672L124.85 31.656C124.444 31.6453 124.119 31.7253 123.874 31.896C123.639 32.056 123.495 32.344 123.442 32.76L123.426 32.952ZM131.143 30.52C131.42 27.9493 132.839 26.664 135.399 26.664H139.223L138.055 36.2C137.937 37.064 137.58 37.7467 136.983 38.248C136.396 38.7493 135.505 39 134.311 39C133.255 39 132.257 38.9573 131.319 38.872L131.511 37.208C132.535 37.304 133.505 37.352 134.423 37.352C135.009 37.352 135.441 37.256 135.719 37.064C135.996 36.872 136.161 36.568 136.215 36.152L136.279 35.576H134.279C132.071 35.576 130.967 34.5467 130.967 32.488C130.967 32.2533 130.983 32.0027 131.015 31.736L131.143 30.52ZM136.487 33.896L137.175 28.344H135.191C133.879 28.344 133.148 29.0533 132.999 30.472L132.855 31.784C132.833 31.9973 132.823 32.1413 132.823 32.216C132.823 33.336 133.377 33.896 134.487 33.896H136.487ZM144.984 26.6C146.083 26.6 146.909 26.8613 147.464 27.384C148.029 27.896 148.312 28.6587 148.312 29.672C148.312 29.9067 148.296 30.1627 148.264 30.44L148.088 31.88H142.12V31.896C142.099 32.1307 142.088 32.2907 142.088 32.376C142.088 32.92 142.243 33.3253 142.552 33.592C142.872 33.848 143.405 33.976 144.152 33.976H144.936C145.491 33.976 146.333 33.928 147.464 33.832L147.288 35.496C146.349 35.592 145.507 35.64 144.76 35.64H143.976C142.685 35.64 141.736 35.3787 141.128 34.856C140.531 34.3333 140.232 33.5653 140.232 32.552C140.232 32.3067 140.248 32.056 140.28 31.8L140.44 30.456C140.589 29.176 141.011 28.216 141.704 27.576C142.397 26.9253 143.384 26.6 144.664 26.6H144.984ZM146.44 30.328V30.312C146.461 30.0773 146.472 29.9067 146.472 29.8C146.472 29.288 146.333 28.8987 146.056 28.632C145.789 28.3653 145.363 28.232 144.776 28.232H144.456C143.197 28.232 142.483 28.9307 142.312 30.328H146.44Z" fill="#D87A0C"/>
<path d="M53.56 49.42H59.464L59.308 50.74H54.82L54.484 53.416H58.552L58.396 54.736H54.328L53.872 58.432H52.456L53.56 49.42ZM63.8153 53.056C63.3193 53.04 62.9993 53.032 62.8553 53.032C62.3433 53.032 61.9593 53.156 61.7033 53.404C61.4473 53.644 61.2873 54.044 61.2233 54.604L60.7433 58.432H59.3633L59.8313 54.64C59.9513 53.624 60.2553 52.888 60.7433 52.432C61.2393 51.976 61.9953 51.748 63.0113 51.748C63.4113 51.748 63.7513 51.76 64.0313 51.784L63.8153 53.056ZM67.691 51.7C68.515 51.7 69.135 51.896 69.551 52.288C69.975 52.672 70.187 53.244 70.187 54.004C70.187 54.18 70.175 54.372 70.151 54.58L70.019 55.66H65.543V55.672C65.527 55.848 65.519 55.968 65.519 56.032C65.519 56.44 65.635 56.744 65.867 56.944C66.107 57.136 66.507 57.232 67.067 57.232H67.655C68.071 57.232 68.703 57.196 69.551 57.124L69.419 58.372C68.715 58.444 68.083 58.48 67.523 58.48H66.935C65.967 58.48 65.255 58.284 64.799 57.892C64.351 57.5 64.127 56.924 64.127 56.164C64.127 55.98 64.139 55.792 64.163 55.6L64.283 54.592C64.395 53.632 64.711 52.912 65.231 52.432C65.751 51.944 66.491 51.7 67.451 51.7H67.691ZM68.783 54.496V54.484C68.799 54.308 68.807 54.18 68.807 54.1C68.807 53.716 68.703 53.424 68.495 53.224C68.295 53.024 67.975 52.924 67.535 52.924H67.295C66.351 52.924 65.815 53.448 65.687 54.496H68.783ZM74.4879 51.7C75.3119 51.7 75.9319 51.896 76.3479 52.288C76.7719 52.672 76.9839 53.244 76.9839 54.004C76.9839 54.18 76.9719 54.372 76.9479 54.58L76.8159 55.66H72.3399V55.672C72.3239 55.848 72.3159 55.968 72.3159 56.032C72.3159 56.44 72.4319 56.744 72.6639 56.944C72.9039 57.136 73.3039 57.232 73.8639 57.232H74.4519C74.8679 57.232 75.4999 57.196 76.3479 57.124L76.2159 58.372C75.5119 58.444 74.8799 58.48 74.3199 58.48H73.7319C72.7639 58.48 72.0519 58.284 71.5959 57.892C71.1479 57.5 70.9239 56.924 70.9239 56.164C70.9239 55.98 70.9359 55.792 70.9599 55.6L71.0799 54.592C71.1919 53.632 71.5079 52.912 72.0279 52.432C72.5479 51.944 73.2879 51.7 74.2479 51.7H74.4879ZM75.5799 54.496V54.484C75.5959 54.308 75.6039 54.18 75.6039 54.1C75.6039 53.716 75.4999 53.424 75.2919 53.224C75.0919 53.024 74.7719 52.924 74.3319 52.924H74.0919C73.1479 52.924 72.6119 53.448 72.4839 54.496H75.5799ZM83.0935 49.42C84.1655 49.42 84.9255 49.616 85.3735 50.008C85.8295 50.392 86.0255 50.976 85.9615 51.76L85.9255 52.168C85.8455 52.928 85.4375 53.46 84.7015 53.764C85.4135 54.028 85.7695 54.584 85.7695 55.432C85.7695 55.504 85.7615 55.636 85.7455 55.828L85.7095 56.164C85.6055 56.948 85.2695 57.524 84.7015 57.892C84.1415 58.252 83.3255 58.432 82.2535 58.432C81.5975 58.432 80.8495 58.384 80.0095 58.288L80.1775 56.968C80.6735 57.024 81.0615 57.064 81.3415 57.088C81.6295 57.104 81.9855 57.112 82.4095 57.112C83.0495 57.112 83.5095 57.028 83.7895 56.86C84.0695 56.692 84.2375 56.42 84.2935 56.044L84.3295 55.708C84.3375 55.66 84.3415 55.592 84.3415 55.504C84.3415 55.144 84.2255 54.884 83.9935 54.724C83.7615 54.564 83.3895 54.48 82.8775 54.472H81.2455L81.4015 53.188H83.0095C83.4655 53.18 83.8175 53.1 84.0655 52.948C84.3135 52.788 84.4655 52.528 84.5215 52.168L84.5575 51.784L84.5695 51.64C84.5695 51.352 84.4495 51.132 84.2095 50.98C83.9775 50.82 83.5575 50.74 82.9495 50.74C82.2055 50.74 81.4855 50.768 80.7895 50.824L80.9575 49.48C81.6215 49.44 82.3335 49.42 83.0935 49.42ZM91.8763 50.692C90.9723 50.692 90.2563 50.876 89.7283 51.244C89.2083 51.612 88.9083 52.212 88.8283 53.044L88.7923 53.128C89.1203 52.944 89.6243 52.852 90.3043 52.852H91.0363C91.7563 52.86 92.3003 53.024 92.6683 53.344C93.0363 53.656 93.2203 54.152 93.2203 54.832C93.2203 54.984 93.2163 55.104 93.2083 55.192L93.1483 55.828C93.0523 56.796 92.7563 57.48 92.2603 57.88C91.7643 58.28 91.0563 58.48 90.1363 58.48H89.8243C88.8963 58.48 88.2203 58.292 87.7963 57.916C87.3803 57.54 87.1723 56.904 87.1723 56.008C87.1723 55.648 87.1923 55.32 87.2323 55.024L87.4483 53.284C87.6163 51.988 88.0723 51.012 88.8163 50.356C89.5603 49.7 90.6323 49.372 92.0323 49.372C92.3283 49.372 92.6843 49.388 93.1003 49.42L92.9443 50.752C92.5523 50.712 92.1963 50.692 91.8763 50.692ZM88.4803 55.66C88.4723 55.74 88.4683 55.848 88.4683 55.984C88.4683 56.296 88.5123 56.536 88.6003 56.704C88.6963 56.872 88.8523 56.992 89.0683 57.064C89.2843 57.128 89.5923 57.16 89.9923 57.16C90.4323 57.16 90.7763 57.12 91.0243 57.04C91.2803 56.952 91.4683 56.812 91.5883 56.62C91.7083 56.428 91.7883 56.164 91.8283 55.828L91.8763 55.324C91.9083 54.916 91.8323 54.612 91.6483 54.412C91.4723 54.212 91.1563 54.112 90.7003 54.112H89.8843C89.4363 54.12 89.1043 54.228 88.8883 54.436C88.6803 54.636 88.5563 54.936 88.5163 55.336L88.4803 55.66ZM94.5473 54.184V54.172L95.1353 49.42H99.9113L99.7553 50.74H96.3953L96.1313 52.9H96.9713C98.8353 52.9 99.7673 53.588 99.7673 54.964C99.7673 55.116 99.7633 55.228 99.7553 55.3L99.6713 56.164C99.5673 56.948 99.2313 57.524 98.6633 57.892C98.1033 58.252 97.2833 58.432 96.2033 58.432C95.5313 58.432 94.8193 58.384 94.0673 58.288L94.2353 56.968C94.6513 57.016 95.0073 57.052 95.3033 57.076C95.5993 57.1 95.9513 57.112 96.3593 57.112C96.9993 57.112 97.4593 57.028 97.7393 56.86C98.0273 56.692 98.1953 56.42 98.2433 56.044L98.3153 55.42C98.3473 54.988 98.2473 54.676 98.0153 54.484C97.7833 54.292 97.3713 54.192 96.7793 54.184H94.5473ZM103.447 54.64C103.679 52.712 104.711 51.748 106.543 51.748H108.115L108.427 49.18H109.807L108.679 58.432H105.787C104.131 58.432 103.303 57.672 103.303 56.152C103.303 55.968 103.315 55.768 103.339 55.552L103.447 54.64ZM107.455 57.148L107.959 53.008H106.387C105.483 53.008 104.967 53.54 104.839 54.604L104.719 55.588C104.703 55.748 104.695 55.864 104.695 55.936C104.695 56.744 105.111 57.148 105.943 57.148H107.455ZM112.111 58.432C111.511 58.432 111.031 58.264 110.671 57.928C110.311 57.584 110.131 57.14 110.131 56.596C110.131 56.476 110.135 56.384 110.143 56.32C110.215 55.824 110.343 55.432 110.527 55.144C110.711 54.848 110.975 54.636 111.319 54.508C111.671 54.372 112.131 54.304 112.699 54.304H114.715L114.727 54.208C114.735 54.168 114.739 54.112 114.739 54.04C114.739 53.728 114.635 53.476 114.427 53.284C114.219 53.092 113.895 52.996 113.455 52.996H113.143C112.431 52.996 111.791 53.016 111.223 53.056L111.403 51.832L111.751 51.808C111.879 51.8 112.103 51.788 112.423 51.772C112.751 51.756 113.035 51.748 113.275 51.748H113.599C114.423 51.748 115.047 51.944 115.471 52.336C115.895 52.728 116.107 53.252 116.107 53.908C116.107 53.98 116.099 54.104 116.083 54.28L115.591 58.432H112.111ZM111.511 56.464C111.511 56.696 111.575 56.876 111.703 57.004C111.839 57.124 112.031 57.184 112.279 57.184H114.367L114.571 55.504L112.579 55.492C112.275 55.484 112.031 55.544 111.847 55.672C111.671 55.792 111.563 56.008 111.523 56.32L111.511 56.464ZM124.222 51.748L119.314 60.952H117.85L119.338 58.156L117.238 51.748H118.738L120.19 56.5H120.226L122.758 51.748H124.222ZM125.909 58.48C125.173 58.464 124.537 58.432 124.001 58.384L124.181 57.088C124.965 57.16 125.593 57.204 126.065 57.22H126.473C126.985 57.22 127.341 57.156 127.541 57.028C127.749 56.9 127.877 56.716 127.925 56.476C127.933 56.436 127.937 56.38 127.937 56.308C127.937 56.108 127.905 55.976 127.841 55.912C127.785 55.824 127.693 55.764 127.565 55.732C127.437 55.7 127.193 55.664 126.833 55.624L126.557 55.588C126.141 55.556 125.745 55.484 125.369 55.372C125.073 55.26 124.853 55.1 124.709 54.892C124.565 54.676 124.493 54.392 124.493 54.04C124.493 53.968 124.501 53.844 124.517 53.668C124.573 53.18 124.713 52.8 124.937 52.528C125.161 52.248 125.473 52.048 125.873 51.928C126.273 51.808 126.789 51.748 127.421 51.748H127.913L129.605 51.76L129.449 53.032H127.265C126.913 53.032 126.645 53.052 126.461 53.092C126.277 53.124 126.141 53.184 126.053 53.272C125.973 53.352 125.921 53.472 125.897 53.632C125.889 53.672 125.885 53.724 125.885 53.788C125.885 53.916 125.921 54.024 125.993 54.112C126.073 54.208 126.189 54.276 126.341 54.316C126.501 54.348 126.793 54.388 127.217 54.436C127.721 54.484 128.133 54.56 128.453 54.664C128.733 54.76 128.945 54.924 129.089 55.156C129.241 55.388 129.317 55.688 129.317 56.056C129.317 56.232 129.309 56.368 129.293 56.464C129.197 57.208 128.917 57.728 128.453 58.024C127.989 58.328 127.277 58.48 126.317 58.48H125.909ZM134.499 58.48C133.763 58.464 133.127 58.432 132.591 58.384L132.771 57.088C133.555 57.16 134.183 57.204 134.655 57.22H135.063C135.575 57.22 135.931 57.156 136.131 57.028C136.339 56.9 136.467 56.716 136.515 56.476C136.523 56.436 136.527 56.38 136.527 56.308C136.527 56.108 136.495 55.976 136.431 55.912C136.375 55.824 136.283 55.764 136.155 55.732C136.027 55.7 135.783 55.664 135.423 55.624L135.147 55.588C134.731 55.556 134.335 55.484 133.959 55.372C133.663 55.26 133.443 55.1 133.299 54.892C133.155 54.676 133.083 54.392 133.083 54.04C133.083 53.968 133.091 53.844 133.107 53.668C133.163 53.18 133.303 52.8 133.527 52.528C133.751 52.248 134.063 52.048 134.463 51.928C134.863 51.808 135.379 51.748 136.011 51.748H136.503L138.195 51.76L138.039 53.032H135.855C135.503 53.032 135.235 53.052 135.051 53.092C134.867 53.124 134.731 53.184 134.643 53.272C134.563 53.352 134.511 53.472 134.487 53.632C134.479 53.672 134.475 53.724 134.475 53.788C134.475 53.916 134.511 54.024 134.583 54.112C134.663 54.208 134.779 54.276 134.931 54.316C135.091 54.348 135.383 54.388 135.807 54.436C136.311 54.484 136.723 54.56 137.043 54.664C137.323 54.76 137.535 54.924 137.679 55.156C137.831 55.388 137.907 55.688 137.907 56.056C137.907 56.232 137.899 56.368 137.883 56.464C137.787 57.208 137.507 57.728 137.043 58.024C136.579 58.328 135.867 58.48 134.907 58.48H134.499ZM138.64 53.032L138.796 51.748H140.308L140.512 50.044H141.892L141.688 51.748H143.728L143.572 53.032H141.532L141.16 56.092C141.152 56.148 141.148 56.224 141.148 56.32C141.148 56.856 141.412 57.124 141.94 57.124C142.164 57.124 142.564 57.116 143.14 57.1L142.984 58.408C142.664 58.424 142.264 58.432 141.784 58.432C141.128 58.432 140.62 58.284 140.26 57.988C139.9 57.692 139.72 57.252 139.72 56.668C139.72 56.604 139.728 56.484 139.744 56.308L140.14 53.032H138.64ZM144.275 54.592C144.507 52.664 145.567 51.7 147.455 51.7H148.031C149.687 51.7 150.515 52.46 150.515 53.98C150.515 54.164 150.503 54.364 150.479 54.58L150.359 55.588C150.127 57.516 149.067 58.48 147.179 58.48H146.603C144.947 58.48 144.119 57.72 144.119 56.2C144.119 56.016 144.131 55.816 144.155 55.6L144.275 54.592ZM147.335 57.196C148.295 57.196 148.839 56.672 148.967 55.624L149.099 54.544C149.115 54.384 149.123 54.272 149.123 54.208C149.123 53.392 148.707 52.984 147.875 52.984H147.299C146.339 52.984 145.795 53.508 145.667 54.556L145.535 55.636C145.519 55.796 145.511 55.908 145.511 55.972C145.511 56.788 145.927 57.196 146.759 57.196H147.335ZM155.608 53.056C155.112 53.04 154.792 53.032 154.648 53.032C154.136 53.032 153.752 53.156 153.496 53.404C153.24 53.644 153.08 54.044 153.016 54.604L152.536 58.432H151.156L151.624 54.64C151.744 53.624 152.048 52.888 152.536 52.432C153.032 51.976 153.788 51.748 154.804 51.748C155.204 51.748 155.544 51.76 155.824 51.784L155.608 53.056ZM157.72 58.432C157.12 58.432 156.64 58.264 156.28 57.928C155.92 57.584 155.74 57.14 155.74 56.596C155.74 56.476 155.744 56.384 155.752 56.32C155.824 55.824 155.952 55.432 156.136 55.144C156.32 54.848 156.584 54.636 156.928 54.508C157.28 54.372 157.74 54.304 158.308 54.304H160.324L160.336 54.208C160.344 54.168 160.348 54.112 160.348 54.04C160.348 53.728 160.244 53.476 160.036 53.284C159.828 53.092 159.504 52.996 159.064 52.996H158.752C158.04 52.996 157.4 53.016 156.832 53.056L157.012 51.832L157.36 51.808C157.488 51.8 157.712 51.788 158.032 51.772C158.36 51.756 158.644 51.748 158.884 51.748H159.208C160.032 51.748 160.656 51.944 161.08 52.336C161.504 52.728 161.716 53.252 161.716 53.908C161.716 53.98 161.708 54.104 161.692 54.28L161.2 58.432H157.72ZM157.12 56.464C157.12 56.696 157.184 56.876 157.312 57.004C157.448 57.124 157.64 57.184 157.888 57.184H159.976L160.18 55.504L158.188 55.492C157.884 55.484 157.64 55.544 157.456 55.672C157.28 55.792 157.172 56.008 157.132 56.32L157.12 56.464ZM162.908 54.64C163.116 52.712 164.18 51.748 166.1 51.748H168.968L168.092 58.9C168.004 59.548 167.736 60.06 167.288 60.436C166.848 60.812 166.18 61 165.284 61C164.492 61 163.744 60.968 163.04 60.904L163.184 59.656C163.952 59.728 164.68 59.764 165.368 59.764C165.808 59.764 166.132 59.692 166.34 59.548C166.548 59.404 166.672 59.176 166.712 58.864L166.76 58.432H165.26C163.604 58.432 162.776 57.66 162.776 56.116C162.776 55.94 162.788 55.752 162.812 55.552L162.908 54.64ZM166.916 57.172L167.432 53.008H165.944C164.96 53.008 164.412 53.54 164.3 54.604L164.192 55.588C164.176 55.748 164.168 55.856 164.168 55.912C164.168 56.752 164.584 57.172 165.416 57.172H166.916ZM173.289 51.7C174.113 51.7 174.733 51.896 175.149 52.288C175.573 52.672 175.785 53.244 175.785 54.004C175.785 54.18 175.773 54.372 175.749 54.58L175.617 55.66H171.141V55.672C171.125 55.848 171.117 55.968 171.117 56.032C171.117 56.44 171.233 56.744 171.465 56.944C171.705 57.136 172.105 57.232 172.665 57.232H173.253C173.669 57.232 174.301 57.196 175.149 57.124L175.017 58.372C174.313 58.444 173.681 58.48 173.121 58.48H172.533C171.565 58.48 170.853 58.284 170.397 57.892C169.949 57.5 169.725 56.924 169.725 56.164C169.725 55.98 169.737 55.792 169.761 55.6L169.881 54.592C169.993 53.632 170.309 52.912 170.829 52.432C171.349 51.944 172.089 51.7 173.049 51.7H173.289ZM174.381 54.496V54.484C174.397 54.308 174.405 54.18 174.405 54.1C174.405 53.716 174.301 53.424 174.093 53.224C173.893 53.024 173.573 52.924 173.133 52.924H172.893C171.949 52.924 171.413 53.448 171.285 54.496H174.381Z" fill="black"/>
</svg>
