<svg version="1.1" viewBox="0 0 130.24 135.64" xmlns="http://www.w3.org/2000/svg">
 <g fill="#f5f5ff" stroke="#4876ff">
  <path class="cls-1" d="m129.42 88.14 0.12 11.73-6.17 3.61-0.26-0.45v-11.22zm0.12-0.07-0.12 0.07v-0.07l-6.31 3.67v-0.4l-68.61-39.51-0.08-0.14 5.92-3.48z"/>
  <path class="cls-1" d="m123.11 103.03 0.26 0.45-53.77 31.46-0.03-12 0.03 0.02 53.51-31.15zm0-11.69v0.4l-53.54 31.16-21.58-12.42-47.18-27.24 53.61-31.55 0.08 0.14z"/>
  <path class="cls-1" d="m69.57 122.94 0.03 12-68.9-40.01v-11.66l47.29 27.21z"/>
 </g>
 <g fill="none" stroke="#4876ff" stroke-linecap="round" stroke-linejoin="round" stroke-width="1.4px">
  <path class="cls-2" d="m47.99 110.48-47.18-27.24 53.61-31.55 5.92-3.48 69.2 39.86-0.12 0.07-6.31 3.67-53.51 31.15-0.03-0.02z"/>
  <path class="cls-2" d="m69.57 122.9-21.58-12.42-47.29-27.21v11.66l68.9 40.01"/>
  <path class="cls-2" d="m69.6 134.94 59.94-35.07-0.12-11.73v-0.07l-6.31 3.67-53.54 31.16v0.04z"/>
  <path class="cls-2" d="m54.5 51.83 68.61 39.51v11.69"/>
 </g>
 <g fill="#4876ff">
  <ellipse class="cls-3" cx="117.23" cy="84.42" rx="1.01" ry=".59"/>
  <ellipse class="cls-3" cx="120.3" cy="86.2" rx="1.01" ry=".59"/>
  <ellipse class="cls-3" cx="123.38" cy="87.98" rx="1.01" ry=".59"/>
 </g>
 <g fill="#f5f5ff" stroke="#4876ff">
  <path class="cls-1" d="m93.56 3.21c1.1 1.91 1.1 4 0 4.61l-3.4 1.88c0.81-0.81 0.71-2.66-0.28-4.39-0.88-1.53-2.2-2.5-3.25-2.5a2.43 2.43 0 0 0-1 0.28l3.93-2.2a1.42 1.42 0 0 1 0.73-0.19c1.06 0 2.38 1 3.27 2.5z"/>
  <path class="cls-1" d="m89.88 5.31c1 1.73 1.09 3.58 0.28 4.39l-15.76 8.69v0.07l-3.7 2c0.71 2.57 0.48 4.86-0.62 6.15a3.28 3.28 0 0 1-2.28 1.39c-1.66 0.3-3.74-0.64-5.59-2.51l3.59-2.09v-4.62l-4-2.31-3.59 2.13c-0.71-2.57-0.49-4.86 0.62-6.15a3.18 3.18 0 0 1 0.89-0.83l0.5-0.26a3.39 3.39 0 0 1 0.91-0.24c1.66-0.3 3.73 0.64 5.59 2.51l3.7-2.06 15.24-8.48a2.43 2.43 0 0 1 1-0.28c1 0 2.37 1 3.25 2.5z"/>
  <path class="cls-1" d="m74.4 18.39 15.76-8.69a1.58 1.58 0 0 1-0.29 0.22l-15.45 8.54zm11.25-15.33-15.23 8.51-3.7 2.06c-1.86-1.87-3.93-2.81-5.59-2.51a3.39 3.39 0 0 0-0.91 0.24l3.1-1.64 1.49-0.72c1.66-0.29 3.74 0.64 5.59 2.52zm-11.23 15.4c0.7 2.54 0.46 4.81-0.64 6.09l-0.15 0.16-4.36 2.78a3.26 3.26 0 0 0 0.85-0.81c1.1-1.29 1.33-3.58 0.62-6.15zm-14.2-7.1-0.5 0.26a2 2 0 0 1 0.5-0.26z"/>
 </g>
 <path class="cls-2" d="m59.72 11.62a3.18 3.18 0 0 0-0.89 0.83c-1.11 1.29-1.33 3.58-0.62 6.15l3.59-2.13 4 2.31v4.62l-3.59 2.07c1.85 1.87 3.93 2.81 5.59 2.51a3.28 3.28 0 0 0 2.3-1.33c1.1-1.29 1.33-3.58 0.62-6.15l3.7-2 15.45-8.58a1.58 1.58 0 0 0 0.29-0.22c0.81-0.81 0.71-2.66-0.28-4.39-0.88-1.53-2.2-2.5-3.25-2.5a2.43 2.43 0 0 0-1 0.28l-15.21 8.48-3.7 2.06c-1.86-1.87-3.93-2.81-5.59-2.51a3.39 3.39 0 0 0-0.91 0.24 2 2 0 0 0-0.5 0.26z" fill="none" stroke="#4876ff" stroke-linecap="round" stroke-linejoin="round" stroke-width="1.4px"/>
 <path class="cls-2" d="m90.16 9.7 3.4-1.88c1.1-0.64 1.1-2.7 0-4.61-0.89-1.54-2.21-2.51-3.27-2.51a1.42 1.42 0 0 0-0.73 0.19l-3.91 2.17-15.25 8.47c-1.85-1.88-3.93-2.81-5.59-2.53l-1.49 0.71-3.1 1.64-0.5 0.26m9.55 15.88 4.36-2.78 0.15-0.16c1.1-1.28 1.34-3.55 0.64-6.09" fill="none" stroke="#4876ff" stroke-linecap="round" stroke-linejoin="round" stroke-width="1.4px"/>
 <g fill="#f5f5ff" stroke="#4876ff">
  <path class="cls-1" d="m91.64 82.47v7.53l-4.29 2.14v-7.53l4.29-2.15z"/>
  <path class="cls-1" d="m91.64 75.61v6.85l-4.29 2.15v-6.86l4.29-2.15z"/>
  <path class="cls-1" d="m91.64 57.09v18.51l-4.29 2.15v-18.51z"/>
  <path class="cls-1" d="m91.64 57.09-4.29 2.15-34.66-20.02 4.29-2.14zm-4.29 27.52v7.53l-34.66-20.01v-7.54l1.19 0.69 33.47 19.32z"/>
  <path class="cls-1" d="m66.92 65.39 0.11-0.06 10.76-3.39 9.56 15.8v6.86l-33.47-19.32 11.36-3.04z"/>
  <path class="cls-1" d="m87.35 59.24v18.5l-9.56-15.8-10.79 3.39-0.11 0.06-1.68-3.15-11.36 3-1.19-0.69v-25.33zm-24.5-5.92a6.61 6.61 0 0 0-3-5.16c-1.65-0.95-3-0.19-3 1.71a6.59 6.59 0 0 0 3 5.15c1.66 0.98 3 0.19 3-1.7z"/>
  <path class="cls-1" d="m59.86 48.16a6.61 6.61 0 0 1 3 5.16c0 1.89-1.34 2.65-3 1.7a6.59 6.59 0 0 1-3-5.15c0.01-1.87 1.35-2.66 3-1.71z"/>
 </g>
 <g fill="none" stroke="#4876ff" stroke-linecap="round" stroke-linejoin="round" stroke-width="1.51px">
  <path class="cls-4" d="m87.35 92.14-34.66-20.01v-32.91l34.66 20.02z"/>
  <path class="cls-4" d="m91.64 90v-32.91l-34.66-20.01m-4.29 27.51 1.19 0.69 33.47 19.32m-24.5-31.28c0 1.89-1.34 2.65-3 1.7a6.59 6.59 0 0 1-3-5.15c0-1.9 1.34-2.66 3-1.71a6.61 6.61 0 0 1 3 5.16z"/>
  <path class="cls-4" d="m53.88 65.28 11.36-3.04 1.68 3.15 3.1 5.78m-2.99-5.84 10.76-3.39 9.56 15.8m-34.66-38.52 4.29-2.14m30.37 22.16 4.29-2.15m-4.29 35.05 4.29-2.14m-4.29-5.39 4.29-2.15m-4.29-4.71 4.29-2.15"/>
 </g>
 <g stroke="#4876ff" stroke-linecap="round" stroke-linejoin="round" stroke-width="1.4px">
  <path class="cls-5" d="m74.65 98.68-32.12-18.55v-30.49l32.12 18.55z" fill="#f5f5ff"/>
  <path class="cls-2" d="m47.5 53.03v29.34m5.47-26.07v29.34m5.46-26.41v29.34m5.47-26.42v29.34m5.46-25.48v29.34m-26.65-39.63 31.45 17.88m-31.68-11.8 31.44 17.88m-30.97-11.57 30.97 17.65m-30.97-11.57 30.97 17.65" fill="none"/>
  <path class="cls-5" d="m61.56 105.34-32.12-18.54 0.06-7.35 11.28-0.94 3.57 3.74 8.35-4.89 8.86 14.64z" fill="#f5f5ff"/>
 </g>
 <g fill="#4876ff">
  <ellipse class="cls-3" transform="rotate(-30)" cx="-14.017" cy="83.512" rx="1.82" ry="3.15"/>
  <ellipse class="cls-3" transform="rotate(-30)" cx="-3.412" cy="89.227" rx="1.82" ry="3.15"/>
  <ellipse class="cls-3" transform="rotate(-30)" cx="6.7039" cy="93.453" rx="1.82" ry="3.15"/>
 </g>
</svg>
