<svg width="232" height="95" viewBox="0 0 232 95" fill="none" xmlns="http://www.w3.org/2000/svg">
<path d="M35.5 34H34.71L34.43 33.73C35.0549 33.0039 35.5117 32.1487 35.7675 31.2256C36.0234 30.3024 36.072 29.3341 35.91 28.39C35.44 25.61 33.12 23.39 30.32 23.05C29.3356 22.9254 28.3358 23.0277 27.397 23.3491C26.4583 23.6704 25.6054 24.2022 24.9038 24.9038C24.2022 25.6054 23.6704 26.4582 23.3491 27.397C23.0278 28.3358 22.9255 29.3356 23.05 30.32C23.39 33.12 25.61 35.44 28.39 35.91C29.3342 36.072 30.3025 36.0234 31.2256 35.7675C32.1488 35.5117 33.004 35.0549 33.73 34.43L34 34.71V35.5L38.25 39.75C38.66 40.16 39.33 40.16 39.74 39.75C40.15 39.34 40.15 38.67 39.74 38.26L35.5 34ZM29.5 34C27.01 34 25 31.99 25 29.5C25 27.01 27.01 25 29.5 25C31.99 25 34 27.01 34 29.5C34 31.99 31.99 34 29.5 34Z" fill="#D87A0C"/>
<path d="M55.536 35.64C54.1387 35.64 52.9867 35.5707 52.08 35.432L52.304 33.64C53.6053 33.8 54.752 33.88 55.744 33.88H55.952C56.624 33.88 57.152 33.816 57.536 33.688C57.9307 33.56 58.2133 33.3733 58.384 33.128C58.5547 32.8827 58.6613 32.568 58.704 32.184C58.7253 31.992 58.736 31.8587 58.736 31.784C58.736 31.4107 58.6507 31.128 58.48 30.936C58.3093 30.744 58.0533 30.6107 57.712 30.536C57.3813 30.4507 56.88 30.3653 56.208 30.28C55.44 30.1947 54.832 30.0613 54.384 29.88C53.936 29.6987 53.6 29.4373 53.376 29.096C53.1627 28.744 53.056 28.2747 53.056 27.688C53.056 27.4533 53.072 27.192 53.104 26.904C53.2427 25.6987 53.648 24.84 54.32 24.328C54.992 23.816 56.0213 23.56 57.408 23.56H58.528C59.3387 23.56 60.2347 23.5707 61.216 23.592L61.008 25.352C60.4427 25.352 60.0107 25.3467 59.712 25.336L58.32 25.32H57.2C56.4213 25.32 55.8507 25.4587 55.488 25.736C55.136 26.0027 54.96 26.5147 54.96 27.272C54.96 27.6027 55.024 27.8533 55.152 28.024C55.28 28.184 55.456 28.296 55.68 28.36C55.904 28.424 56.2667 28.4933 56.768 28.568C56.864 28.5787 57.056 28.6053 57.344 28.648C58.1333 28.7653 58.7627 28.92 59.232 29.112C59.7013 29.304 60.0533 29.5813 60.288 29.944C60.5227 30.296 60.64 30.776 60.64 31.384C60.64 31.608 60.624 31.848 60.592 32.104C60.4853 32.9893 60.2507 33.688 59.888 34.2C59.536 34.712 59.024 35.08 58.352 35.304C57.68 35.528 56.8107 35.64 55.744 35.64H55.536ZM66.6558 26.6C67.7544 26.6 68.5811 26.8613 69.1358 27.384C69.7011 27.896 69.9838 28.6587 69.9838 29.672C69.9838 29.9067 69.9678 30.1627 69.9358 30.44L69.7598 31.88H63.7918V31.896C63.7704 32.1307 63.7598 32.2907 63.7598 32.376C63.7598 32.92 63.9144 33.3253 64.2238 33.592C64.5438 33.848 65.0771 33.976 65.8238 33.976H66.6078C67.1624 33.976 68.0051 33.928 69.1358 33.832L68.9598 35.496C68.0211 35.592 67.1784 35.64 66.4318 35.64H65.6478C64.3571 35.64 63.4078 35.3787 62.7998 34.856C62.2024 34.3333 61.9038 33.5653 61.9038 32.552C61.9038 32.3067 61.9198 32.056 61.9518 31.8L62.1118 30.456C62.2611 29.176 62.6824 28.216 63.3758 27.576C64.0691 26.9253 65.0558 26.6 66.3358 26.6H66.6558ZM68.1118 30.328V30.312C68.1331 30.0773 68.1438 29.9067 68.1438 29.8C68.1438 29.288 68.0051 28.8987 67.7278 28.632C67.4611 28.3653 67.0344 28.232 66.4478 28.232H66.1278C64.8691 28.232 64.1544 28.9307 63.9838 30.328H68.1118ZM73.3663 35.576C72.5663 35.576 71.9263 35.352 71.4463 34.904C70.9663 34.4453 70.7263 33.8533 70.7263 33.128C70.7263 32.968 70.7316 32.8453 70.7423 32.76C70.8383 32.0987 71.0089 31.576 71.2543 31.192C71.4996 30.7973 71.8516 30.5147 72.3103 30.344C72.7796 30.1627 73.3929 30.072 74.1503 30.072H76.8383L76.8543 29.944C76.8649 29.8907 76.8703 29.816 76.8703 29.72C76.8703 29.304 76.7316 28.968 76.4543 28.712C76.1769 28.456 75.7449 28.328 75.1583 28.328H74.7423C73.7929 28.328 72.9396 28.3547 72.1823 28.408L72.4223 26.776L72.8863 26.744C73.0569 26.7333 73.3556 26.7173 73.7823 26.696C74.2196 26.6747 74.5983 26.664 74.9183 26.664H75.3503C76.4489 26.664 77.2809 26.9253 77.8463 27.448C78.4116 27.9707 78.6943 28.6693 78.6943 29.544C78.6943 29.64 78.6836 29.8053 78.6623 30.04L78.0063 35.576H73.3663ZM72.5663 32.952C72.5663 33.2613 72.6516 33.5013 72.8223 33.672C73.0036 33.832 73.2596 33.912 73.5903 33.912H76.3743L76.6463 31.672L73.9903 31.656C73.5849 31.6453 73.2596 31.7253 73.0143 31.896C72.7796 32.056 72.6356 32.344 72.5823 32.76L72.5663 32.952ZM85.6913 28.408C85.0299 28.3867 84.6033 28.376 84.4113 28.376C83.7286 28.376 83.2166 28.5413 82.8753 28.872C82.5339 29.192 82.3206 29.7253 82.2353 30.472L81.5953 35.576H79.7553L80.3793 30.52C80.5393 29.1653 80.9446 28.184 81.5953 27.576C82.2566 26.968 83.2646 26.664 84.6193 26.664C85.1526 26.664 85.6059 26.68 85.9793 26.712L85.6913 28.408ZM90.4871 28.376C89.8258 28.376 89.3191 28.552 88.9671 28.904C88.6258 29.256 88.4125 29.7787 88.3271 30.472L88.1671 31.848C88.1458 32.0613 88.1351 32.216 88.1351 32.312C88.1351 33.3893 88.6845 33.928 89.7831 33.928H90.4071C90.8871 33.928 91.6925 33.88 92.8231 33.784L92.6471 35.496C91.7085 35.592 90.9031 35.64 90.2311 35.64H89.5751C87.3671 35.64 86.2631 34.6373 86.2631 32.632C86.2631 32.3653 86.2791 32.088 86.3111 31.8L86.4711 30.52C86.6311 29.24 87.0578 28.28 87.7511 27.64C88.4445 26.9893 89.4258 26.664 90.6951 26.664H91.2871L93.5271 26.696L93.3191 28.392L90.4871 28.376ZM95.718 23.24H97.558L97.142 26.664H99.318C101.526 26.664 102.63 27.6773 102.63 29.704C102.63 29.9493 102.614 30.216 102.582 30.504L101.958 35.576H100.118L100.742 30.456C100.763 30.2427 100.774 30.0933 100.774 30.008C100.774 28.92 100.219 28.376 99.11 28.376H96.934L96.054 35.576H94.214L95.718 23.24ZM105.1 25.464L105.34 23.544H107.436L107.196 25.464H105.1ZM105.836 35.576H103.996L105.1 26.664H106.94L105.836 35.576ZM110.668 28.376L109.804 35.576H107.964L109.052 26.664H113.068C115.276 26.664 116.38 27.6773 116.38 29.704C116.38 29.9493 116.364 30.216 116.332 30.504L115.708 35.576H113.868L114.492 30.456C114.513 30.2427 114.524 30.0933 114.524 30.008C114.524 28.92 113.969 28.376 112.86 28.376H110.668ZM117.986 30.52C118.264 27.9493 119.682 26.664 122.242 26.664H126.066L124.898 36.2C124.781 37.064 124.424 37.7467 123.826 38.248C123.24 38.7493 122.349 39 121.154 39C120.098 39 119.101 38.9573 118.162 38.872L118.354 37.208C119.378 37.304 120.349 37.352 121.266 37.352C121.853 37.352 122.285 37.256 122.562 37.064C122.84 36.872 123.005 36.568 123.058 36.152L123.122 35.576H121.122C118.914 35.576 117.81 34.5467 117.81 32.488C117.81 32.2533 117.826 32.0027 117.858 31.736L117.986 30.52ZM123.33 33.896L124.018 28.344H122.034C120.722 28.344 119.992 29.0533 119.842 30.472L119.698 31.784C119.677 31.9973 119.666 32.1413 119.666 32.216C119.666 33.336 120.221 33.896 121.33 33.896H123.33ZM133.567 35.64C132.17 35.64 131.018 35.5707 130.111 35.432L130.335 33.64C131.637 33.8 132.783 33.88 133.775 33.88H133.983C134.655 33.88 135.183 33.816 135.567 33.688C135.962 33.56 136.245 33.3733 136.415 33.128C136.586 32.8827 136.693 32.568 136.735 32.184C136.757 31.992 136.767 31.8587 136.767 31.784C136.767 31.4107 136.682 31.128 136.511 30.936C136.341 30.744 136.085 30.6107 135.743 30.536C135.413 30.4507 134.911 30.3653 134.239 30.28C133.471 30.1947 132.863 30.0613 132.415 29.88C131.967 29.6987 131.631 29.4373 131.407 29.096C131.194 28.744 131.087 28.2747 131.087 27.688C131.087 27.4533 131.103 27.192 131.135 26.904C131.274 25.6987 131.679 24.84 132.351 24.328C133.023 23.816 134.053 23.56 135.439 23.56H136.559C137.37 23.56 138.266 23.5707 139.247 23.592L139.039 25.352C138.474 25.352 138.042 25.3467 137.743 25.336L136.351 25.32H135.231C134.453 25.32 133.882 25.4587 133.519 25.736C133.167 26.0027 132.991 26.5147 132.991 27.272C132.991 27.6027 133.055 27.8533 133.183 28.024C133.311 28.184 133.487 28.296 133.711 28.36C133.935 28.424 134.298 28.4933 134.799 28.568C134.895 28.5787 135.087 28.6053 135.375 28.648C136.165 28.7653 136.794 28.92 137.263 29.112C137.733 29.304 138.085 29.5813 138.319 29.944C138.554 30.296 138.671 30.776 138.671 31.384C138.671 31.608 138.655 31.848 138.623 32.104C138.517 32.9893 138.282 33.688 137.919 34.2C137.567 34.712 137.055 35.08 136.383 35.304C135.711 35.528 134.842 35.64 133.775 35.64H133.567ZM144.687 26.6C145.786 26.6 146.612 26.8613 147.167 27.384C147.732 27.896 148.015 28.6587 148.015 29.672C148.015 29.9067 147.999 30.1627 147.967 30.44L147.791 31.88H141.823V31.896C141.802 32.1307 141.791 32.2907 141.791 32.376C141.791 32.92 141.946 33.3253 142.255 33.592C142.575 33.848 143.108 33.976 143.855 33.976H144.639C145.194 33.976 146.036 33.928 147.167 33.832L146.991 35.496C146.052 35.592 145.21 35.64 144.463 35.64H143.679C142.388 35.64 141.439 35.3787 140.831 34.856C140.234 34.3333 139.935 33.5653 139.935 32.552C139.935 32.3067 139.951 32.056 139.983 31.8L140.143 30.456C140.292 29.176 140.714 28.216 141.407 27.576C142.1 26.9253 143.087 26.6 144.367 26.6H144.687ZM146.143 30.328V30.312C146.164 30.0773 146.175 29.9067 146.175 29.8C146.175 29.288 146.036 28.8987 145.759 28.632C145.492 28.3653 145.066 28.232 144.479 28.232H144.159C142.9 28.232 142.186 28.9307 142.015 30.328H146.143ZM154.598 28.408C153.936 28.3867 153.51 28.376 153.318 28.376C152.635 28.376 152.123 28.5413 151.782 28.872C151.44 29.192 151.227 29.7253 151.142 30.472L150.502 35.576H148.662L149.286 30.52C149.446 29.1653 149.851 28.184 150.502 27.576C151.163 26.968 152.171 26.664 153.526 26.664C154.059 26.664 154.512 26.68 154.886 26.712L154.598 28.408ZM155.281 26.664H157.169L158.001 33.912H159.505L162.113 26.664H164.033L161.025 34.904C160.865 35.352 160.556 35.576 160.097 35.576H157.153C156.919 35.576 156.727 35.5067 156.577 35.368C156.428 35.24 156.337 35.048 156.305 34.792L155.281 26.664ZM165.304 25.464L165.544 23.544H167.64L167.4 25.464H165.304ZM166.039 35.576H164.2L165.304 26.664H167.144L166.039 35.576ZM172.487 28.376C171.826 28.376 171.319 28.552 170.967 28.904C170.626 29.256 170.412 29.7787 170.327 30.472L170.167 31.848C170.146 32.0613 170.135 32.216 170.135 32.312C170.135 33.3893 170.684 33.928 171.783 33.928H172.407C172.887 33.928 173.692 33.88 174.823 33.784L174.647 35.496C173.708 35.592 172.903 35.64 172.231 35.64H171.575C169.367 35.64 168.263 34.6373 168.263 32.632C168.263 32.3653 168.279 32.088 168.311 31.8L168.471 30.52C168.631 29.24 169.058 28.28 169.751 27.64C170.444 26.9893 171.426 26.664 172.695 26.664H173.287L175.527 26.696L175.319 28.392L172.487 28.376ZM181.062 26.6C182.161 26.6 182.987 26.8613 183.542 27.384C184.107 27.896 184.39 28.6587 184.39 29.672C184.39 29.9067 184.374 30.1627 184.342 30.44L184.166 31.88H178.198V31.896C178.177 32.1307 178.166 32.2907 178.166 32.376C178.166 32.92 178.321 33.3253 178.63 33.592C178.95 33.848 179.483 33.976 180.23 33.976H181.014C181.569 33.976 182.411 33.928 183.542 33.832L183.366 35.496C182.427 35.592 181.585 35.64 180.838 35.64H180.054C178.763 35.64 177.814 35.3787 177.206 34.856C176.609 34.3333 176.31 33.5653 176.31 32.552C176.31 32.3067 176.326 32.056 176.358 31.8L176.518 30.456C176.667 29.176 177.089 28.216 177.782 27.576C178.475 26.9253 179.462 26.6 180.742 26.6H181.062ZM182.518 30.328V30.312C182.539 30.0773 182.55 29.9067 182.55 29.8C182.55 29.288 182.411 28.8987 182.134 28.632C181.867 28.3653 181.441 28.232 180.854 28.232H180.534C179.275 28.232 178.561 28.9307 178.39 30.328H182.518Z" fill="#D87A0C"/>
<path d="M57.736 49.372C58.792 49.38 59.568 49.612 60.064 50.068C60.56 50.516 60.808 51.224 60.808 52.192C60.808 52.44 60.788 52.744 60.748 53.104L60.568 54.748C60.392 56.052 59.992 57 59.368 57.592C58.744 58.176 57.824 58.472 56.608 58.48H55.72C54.664 58.472 53.888 58.244 53.392 57.796C52.896 57.348 52.648 56.644 52.648 55.684C52.648 55.436 52.668 55.124 52.708 54.748L52.888 53.104C53.056 51.8 53.452 50.856 54.076 50.272C54.708 49.68 55.632 49.38 56.848 49.372H57.736ZM54.112 54.82C54.08 55.14 54.064 55.364 54.064 55.492C54.064 56.076 54.2 56.5 54.472 56.764C54.752 57.02 55.208 57.152 55.84 57.16H56.8C57.528 57.152 58.068 56.968 58.42 56.608C58.78 56.24 59.016 55.644 59.128 54.82L59.344 53.032C59.376 52.712 59.392 52.488 59.392 52.36C59.392 51.776 59.252 51.356 58.972 51.1C58.7 50.836 58.248 50.7 57.616 50.692H56.656C55.928 50.7 55.384 50.888 55.024 51.256C54.672 51.616 54.44 52.208 54.328 53.032L54.112 54.82ZM63.5987 53.032L62.9507 58.432H61.5707L62.3867 51.748H65.3987C67.0547 51.748 67.8827 52.508 67.8827 54.028C67.8827 54.212 67.8707 54.412 67.8467 54.628L67.3787 58.432H65.9987L66.4667 54.592C66.4827 54.432 66.4907 54.32 66.4907 54.256C66.4907 53.44 66.0747 53.032 65.2427 53.032H63.5987ZM72.5074 51.7C73.3314 51.7 73.9514 51.896 74.3674 52.288C74.7914 52.672 75.0034 53.244 75.0034 54.004C75.0034 54.18 74.9914 54.372 74.9674 54.58L74.8354 55.66H70.3594V55.672C70.3434 55.848 70.3354 55.968 70.3354 56.032C70.3354 56.44 70.4514 56.744 70.6834 56.944C70.9234 57.136 71.3234 57.232 71.8834 57.232H72.4714C72.8874 57.232 73.5194 57.196 74.3674 57.124L74.2354 58.372C73.5314 58.444 72.8994 58.48 72.3394 58.48H71.7514C70.7834 58.48 70.0714 58.284 69.6154 57.892C69.1674 57.5 68.9434 56.924 68.9434 56.164C68.9434 55.98 68.9554 55.792 68.9794 55.6L69.0994 54.592C69.2114 53.632 69.5274 52.912 70.0474 52.432C70.5674 51.944 71.3074 51.7 72.2674 51.7H72.5074ZM73.5994 54.496V54.484C73.6154 54.308 73.6234 54.18 73.6234 54.1C73.6234 53.716 73.5194 53.424 73.3114 53.224C73.1114 53.024 72.7914 52.924 72.3514 52.924H72.1114C71.1674 52.924 70.6314 53.448 70.5034 54.496H73.5994ZM79.913 58.48C79.177 58.464 78.541 58.432 78.005 58.384L78.185 57.088C78.969 57.16 79.597 57.204 80.069 57.22H80.477C80.989 57.22 81.345 57.156 81.545 57.028C81.753 56.9 81.881 56.716 81.929 56.476C81.937 56.436 81.941 56.38 81.941 56.308C81.941 56.108 81.909 55.976 81.845 55.912C81.789 55.824 81.697 55.764 81.569 55.732C81.441 55.7 81.197 55.664 80.837 55.624L80.561 55.588C80.145 55.556 79.749 55.484 79.373 55.372C79.077 55.26 78.857 55.1 78.713 54.892C78.569 54.676 78.497 54.392 78.497 54.04C78.497 53.968 78.505 53.844 78.521 53.668C78.577 53.18 78.717 52.8 78.941 52.528C79.165 52.248 79.477 52.048 79.877 51.928C80.277 51.808 80.793 51.748 81.425 51.748H81.917L83.609 51.76L83.453 53.032H81.269C80.917 53.032 80.649 53.052 80.465 53.092C80.281 53.124 80.145 53.184 80.057 53.272C79.977 53.352 79.925 53.472 79.901 53.632C79.893 53.672 79.889 53.724 79.889 53.788C79.889 53.916 79.925 54.024 79.997 54.112C80.077 54.208 80.193 54.276 80.345 54.316C80.505 54.348 80.797 54.388 81.221 54.436C81.725 54.484 82.137 54.56 82.457 54.664C82.737 54.76 82.949 54.924 83.093 55.156C83.245 55.388 83.321 55.688 83.321 56.056C83.321 56.232 83.313 56.368 83.297 56.464C83.201 57.208 82.921 57.728 82.457 58.024C81.993 58.328 81.281 58.48 80.321 58.48H79.913ZM84.0542 53.032L84.2102 51.748H85.7222L85.9262 50.044H87.3062L87.1022 51.748H89.1422L88.9862 53.032H86.9462L86.5742 56.092C86.5662 56.148 86.5622 56.224 86.5622 56.32C86.5622 56.856 86.8262 57.124 87.3542 57.124C87.5782 57.124 87.9782 57.116 88.5542 57.1L88.3982 58.408C88.0782 58.424 87.6782 58.432 87.1982 58.432C86.5422 58.432 86.0342 58.284 85.6742 57.988C85.3142 57.692 85.1342 57.252 85.1342 56.668C85.1342 56.604 85.1422 56.484 85.1582 56.308L85.5542 53.032H84.0542ZM89.6893 54.592C89.9213 52.664 90.9813 51.7 92.8693 51.7H93.4453C95.1013 51.7 95.9293 52.46 95.9293 53.98C95.9293 54.164 95.9173 54.364 95.8933 54.58L95.7733 55.588C95.5413 57.516 94.4813 58.48 92.5933 58.48H92.0173C90.3613 58.48 89.5333 57.72 89.5333 56.2C89.5333 56.016 89.5453 55.816 89.5693 55.6L89.6893 54.592ZM92.7493 57.196C93.7093 57.196 94.2533 56.672 94.3813 55.624L94.5133 54.544C94.5293 54.384 94.5373 54.272 94.5373 54.208C94.5373 53.392 94.1213 52.984 93.2893 52.984H92.7133C91.7533 52.984 91.2093 53.508 91.0813 54.556L90.9493 55.636C90.9333 55.796 90.9253 55.908 90.9253 55.972C90.9253 56.788 91.3413 57.196 92.1733 57.196H92.7493ZM96.4383 60.952L97.5663 51.748H100.578C101.41 51.748 102.034 51.94 102.45 52.324C102.866 52.708 103.074 53.276 103.074 54.028C103.074 54.22 103.062 54.42 103.038 54.628L102.93 55.54C102.698 57.468 101.634 58.432 99.7383 58.432H98.1303L97.8183 60.952H96.4383ZM99.8943 57.148C100.854 57.148 101.398 56.624 101.526 55.576L101.646 54.592C101.662 54.432 101.67 54.32 101.67 54.256C101.67 53.44 101.254 53.032 100.422 53.032H98.7903L98.2863 57.148H99.8943ZM109.464 51.748H111.528L111.372 53.032H109.308L108.648 58.432H107.268L107.928 53.032H106.536L106.692 51.748H108.084L108.144 51.256C108.32 49.84 109.136 49.132 110.592 49.132C110.952 49.132 111.372 49.152 111.852 49.192L111.66 50.464L111.264 50.44C110.88 50.424 110.648 50.416 110.568 50.416C110.216 50.416 109.96 50.504 109.8 50.68C109.64 50.848 109.54 51.112 109.5 51.472L109.464 51.748ZM111.814 54.592C112.046 52.664 113.106 51.7 114.994 51.7H115.57C117.226 51.7 118.054 52.46 118.054 53.98C118.054 54.164 118.042 54.364 118.018 54.58L117.898 55.588C117.666 57.516 116.606 58.48 114.718 58.48H114.142C112.486 58.48 111.658 57.72 111.658 56.2C111.658 56.016 111.67 55.816 111.694 55.6L111.814 54.592ZM114.874 57.196C115.834 57.196 116.378 56.672 116.506 55.624L116.638 54.544C116.654 54.384 116.662 54.272 116.662 54.208C116.662 53.392 116.246 52.984 115.414 52.984H114.838C113.878 52.984 113.334 53.508 113.206 54.556L113.074 55.636C113.058 55.796 113.05 55.908 113.05 55.972C113.05 56.788 113.466 57.196 114.298 57.196H114.874ZM123.147 53.056C122.651 53.04 122.331 53.032 122.187 53.032C121.675 53.032 121.291 53.156 121.035 53.404C120.779 53.644 120.619 54.044 120.555 54.604L120.075 58.432H118.695L119.163 54.64C119.283 53.624 119.587 52.888 120.075 52.432C120.571 51.976 121.327 51.748 122.343 51.748C122.743 51.748 123.083 51.76 123.363 51.784L123.147 53.056ZM128.013 58.432C127.413 58.432 126.933 58.264 126.573 57.928C126.213 57.584 126.033 57.14 126.033 56.596C126.033 56.476 126.037 56.384 126.045 56.32C126.117 55.824 126.245 55.432 126.429 55.144C126.613 54.848 126.877 54.636 127.221 54.508C127.573 54.372 128.033 54.304 128.601 54.304H130.617L130.629 54.208C130.637 54.168 130.641 54.112 130.641 54.04C130.641 53.728 130.537 53.476 130.329 53.284C130.121 53.092 129.797 52.996 129.357 52.996H129.045C128.333 52.996 127.693 53.016 127.125 53.056L127.305 51.832L127.653 51.808C127.781 51.8 128.005 51.788 128.325 51.772C128.653 51.756 128.937 51.748 129.177 51.748H129.501C130.325 51.748 130.949 51.944 131.373 52.336C131.797 52.728 132.009 53.252 132.009 53.908C132.009 53.98 132.001 54.104 131.985 54.28L131.493 58.432H128.013ZM127.413 56.464C127.413 56.696 127.477 56.876 127.605 57.004C127.741 57.124 127.933 57.184 128.181 57.184H130.269L130.473 55.504L128.481 55.492C128.177 55.484 127.933 55.544 127.749 55.672C127.573 55.792 127.465 56.008 127.425 56.32L127.413 56.464ZM132.985 58.432L134.113 49.18H135.493L134.365 58.432H132.985ZM135.926 58.432L137.054 49.18H138.434L137.306 58.432H135.926ZM148.644 51.748L143.736 60.952H142.272L143.76 58.156L141.66 51.748H143.16L144.612 56.5H144.648L147.18 51.748H148.644ZM148.951 54.592C149.183 52.664 150.243 51.7 152.131 51.7H152.707C154.363 51.7 155.191 52.46 155.191 53.98C155.191 54.164 155.179 54.364 155.155 54.58L155.035 55.588C154.803 57.516 153.743 58.48 151.855 58.48H151.279C149.623 58.48 148.795 57.72 148.795 56.2C148.795 56.016 148.807 55.816 148.831 55.6L148.951 54.592ZM152.011 57.196C152.971 57.196 153.515 56.672 153.643 55.624L153.775 54.544C153.791 54.384 153.799 54.272 153.799 54.208C153.799 53.392 153.383 52.984 152.551 52.984H151.975C151.015 52.984 150.471 53.508 150.343 54.556L150.211 55.636C150.195 55.796 150.187 55.908 150.187 55.972C150.187 56.788 150.603 57.196 151.435 57.196H152.011ZM160.536 57.112L161.184 51.748H162.564L161.748 58.432H158.736C157.08 58.432 156.252 57.672 156.252 56.152C156.252 55.968 156.264 55.768 156.288 55.552L156.756 51.748H158.136L157.668 55.588C157.652 55.692 157.644 55.836 157.644 56.02C157.644 56.436 157.74 56.724 157.932 56.884C158.132 57.044 158.452 57.124 158.892 57.124L160.536 57.112ZM167.585 53.056C167.089 53.04 166.769 53.032 166.625 53.032C166.113 53.032 165.729 53.156 165.473 53.404C165.217 53.644 165.057 54.044 164.993 54.604L164.513 58.432H163.133L163.601 54.64C163.721 53.624 164.025 52.888 164.513 52.432C165.009 51.976 165.765 51.748 166.781 51.748C167.181 51.748 167.521 51.76 167.801 51.784L167.585 53.056ZM172.606 53.032L171.958 58.432H170.578L171.394 51.748H174.406C176.062 51.748 176.89 52.508 176.89 54.028C176.89 54.212 176.878 54.412 176.854 54.628L176.386 58.432H175.006L175.474 54.592C175.49 54.432 175.498 54.32 175.498 54.256C175.498 53.44 175.082 53.032 174.25 53.032H172.606ZM181.515 51.7C182.339 51.7 182.959 51.896 183.375 52.288C183.799 52.672 184.011 53.244 184.011 54.004C184.011 54.18 183.999 54.372 183.975 54.58L183.843 55.66H179.367V55.672C179.351 55.848 179.343 55.968 179.343 56.032C179.343 56.44 179.459 56.744 179.691 56.944C179.931 57.136 180.331 57.232 180.891 57.232H181.479C181.895 57.232 182.527 57.196 183.375 57.124L183.243 58.372C182.539 58.444 181.907 58.48 181.347 58.48H180.759C179.791 58.48 179.079 58.284 178.623 57.892C178.175 57.5 177.951 56.924 177.951 56.164C177.951 55.98 177.963 55.792 177.987 55.6L178.107 54.592C178.219 53.632 178.535 52.912 179.055 52.432C179.575 51.944 180.315 51.7 181.275 51.7H181.515ZM182.607 54.496V54.484C182.623 54.308 182.631 54.18 182.631 54.1C182.631 53.716 182.527 53.424 182.319 53.224C182.119 53.024 181.799 52.924 181.359 52.924H181.119C180.175 52.924 179.639 53.448 179.511 54.496H182.607ZM188.312 51.7C189.136 51.7 189.756 51.896 190.172 52.288C190.596 52.672 190.808 53.244 190.808 54.004C190.808 54.18 190.796 54.372 190.772 54.58L190.64 55.66H186.164V55.672C186.148 55.848 186.14 55.968 186.14 56.032C186.14 56.44 186.256 56.744 186.488 56.944C186.728 57.136 187.128 57.232 187.688 57.232H188.276C188.692 57.232 189.324 57.196 190.172 57.124L190.04 58.372C189.336 58.444 188.704 58.48 188.144 58.48H187.556C186.588 58.48 185.876 58.284 185.42 57.892C184.972 57.5 184.748 56.924 184.748 56.164C184.748 55.98 184.76 55.792 184.784 55.6L184.904 54.592C185.016 53.632 185.332 52.912 185.852 52.432C186.372 51.944 187.112 51.7 188.072 51.7H188.312ZM189.404 54.496V54.484C189.42 54.308 189.428 54.18 189.428 54.1C189.428 53.716 189.324 53.424 189.116 53.224C188.916 53.024 188.596 52.924 188.156 52.924H187.916C186.972 52.924 186.436 53.448 186.308 54.496H189.404ZM191.689 54.64C191.921 52.712 192.953 51.748 194.785 51.748H196.357L196.669 49.18H198.049L196.921 58.432H194.029C192.373 58.432 191.545 57.672 191.545 56.152C191.545 55.968 191.557 55.768 191.581 55.552L191.689 54.64ZM195.697 57.148L196.201 53.008H194.629C193.725 53.008 193.209 53.54 193.081 54.604L192.961 55.588C192.945 55.748 192.937 55.864 192.937 55.936C192.937 56.744 193.353 57.148 194.185 57.148H195.697ZM200.089 58.48C199.353 58.464 198.717 58.432 198.181 58.384L198.361 57.088C199.145 57.16 199.773 57.204 200.245 57.22H200.653C201.165 57.22 201.521 57.156 201.721 57.028C201.929 56.9 202.057 56.716 202.105 56.476C202.113 56.436 202.117 56.38 202.117 56.308C202.117 56.108 202.085 55.976 202.021 55.912C201.965 55.824 201.873 55.764 201.745 55.732C201.617 55.7 201.373 55.664 201.013 55.624L200.737 55.588C200.321 55.556 199.925 55.484 199.549 55.372C199.253 55.26 199.033 55.1 198.889 54.892C198.745 54.676 198.673 54.392 198.673 54.04C198.673 53.968 198.681 53.844 198.697 53.668C198.753 53.18 198.893 52.8 199.117 52.528C199.341 52.248 199.653 52.048 200.053 51.928C200.453 51.808 200.969 51.748 201.601 51.748H202.093L203.785 51.76L203.629 53.032H201.445C201.093 53.032 200.825 53.052 200.641 53.092C200.457 53.124 200.321 53.184 200.233 53.272C200.153 53.352 200.101 53.472 200.077 53.632C200.069 53.672 200.065 53.724 200.065 53.788C200.065 53.916 200.101 54.024 200.173 54.112C200.253 54.208 200.369 54.276 200.521 54.316C200.681 54.348 200.973 54.388 201.397 54.436C201.901 54.484 202.313 54.56 202.633 54.664C202.913 54.76 203.125 54.924 203.269 55.156C203.421 55.388 203.497 55.688 203.497 56.056C203.497 56.232 203.489 56.368 203.473 56.464C203.377 57.208 203.097 57.728 202.633 58.024C202.169 58.328 201.457 58.48 200.497 58.48H200.089Z" fill="black"/>
</svg>
