<svg width="23" height="20" viewBox="0 0 23 20" fill="none" xmlns="http://www.w3.org/2000/svg">
    <path
        d="M13.2017 0.288983C13.0122 0.107602 12.7589 0.00799203 12.4965 0.011632C12.2342 0.015272 11.9838 0.121871 11.7993 0.308441C11.6149 0.495012 11.5111 0.746608 11.5104 1.00898C11.5098 1.27135 11.6122 1.52347 11.7957 1.71098L19.1717 8.99998H1.49674C1.23152 8.99998 0.977167 9.10534 0.789631 9.29288C0.602095 9.48041 0.496737 9.73477 0.496737 9.99998C0.496737 10.2652 0.602095 10.5196 0.789631 10.7071C0.977167 10.8946 1.23152 11 1.49674 11H19.1697L11.7957 18.286C11.607 18.4724 11.5001 18.7262 11.4985 18.9915C11.4969 19.2567 11.6008 19.5118 11.7872 19.7005C11.9737 19.8892 12.2275 19.9961 12.4927 19.9977C12.758 19.9993 13.013 19.8954 13.2017 19.709L22.1287 10.888C22.2464 10.7717 22.3397 10.6333 22.4035 10.4807C22.4672 10.3281 22.5 10.1644 22.5 9.99898C22.5 9.83361 22.4672 9.66988 22.4035 9.51728C22.3397 9.36468 22.2464 9.22624 22.1287 9.10998L13.2017 0.288983Z"
        fill="white" />
</svg>