<svg version="1.1" viewBox="0 0 126.74 144.83" xmlns="http://www.w3.org/2000/svg">
 <g fill="#f5f5ff">
  <g stroke="#4876ff">
   <path class="cls-1" d="m83.18 125.55 42.81-24.72v11.47l-43.14 24.91v-11.47z"/>
   <path class="cls-1" d="m125.99 100.83-42.81 24.72-69.88-39.99 42.88-24.77zm-43.14 24.91-11.48 6.63-29.16-16.72-0.36-0.21-11.75-6.73-28.54-16.37 11.74-6.78 69.88 39.99z"/>
   <path class="cls-1" d="m82.85 125.74v11.47l-11.48 6.63v-11.47z"/>
  </g>
  <path class="cls-1" d="m71.37 132.37v11.47l-20.69-11.87 0.06-1.99-8.53-4.9v-9.43zm-20.69-0.4-0.27 9.32-5.08 2.78 0.16-11.14 3.47-1.95zm-1.72-0.99-3.47 1.95-44.73-26.05 3.16-1.73z"/>
  <g stroke="#4876ff">
   <path class="cls-1" d="m45.49 132.93-0.16 11.14-44.57-25.56v-11.63zm-3.28-17.28v9.43l-5.74-3.29v-0.05c0-2 4-5.27 5.35-6.3z"/>
   <path class="cls-1" d="m30.1 108.71 11.75 6.73c-1.32 1-5.35 4.33-5.35 6.3v0.05l-16.85-9.67 0.13-0.22c2.93-0.19 10.31-3.12 10.31-3.12z"/>
   <path class="cls-1" d="m1.56 92.34 28.54 16.37v0.07s-7.38 2.93-10.31 3.12l-0.13 0.22-13.88-8-1.82 1-2.37-1.36z"/>
  </g>
 </g>
 <g fill="none" stroke="#4876ff" stroke-linejoin="round">
  <g stroke-width="1.51px">
   <path class="cls-2" d="m48.96 130.98 1.72 0.99 20.69 11.87m-69.81-51.5-0.01 11.45 2.37 1.36m67.45 27.22v11.47l11.48-6.63 43.14-24.91v-11.47"/>
   <path class="cls-2" d="m1.56 92.34 11.74-6.78 42.88-24.77 69.81 40.04-42.81 24.72-0.33 0.19-11.48 6.63-29.16-16.72-0.36-0.21-11.75-6.73zm-0.8 14.54v11.63l44.57 25.56m0.16-11.14-44.73-26.05 3.16-1.73 1.82-1 13.88 7.97 16.85 9.67 5.74 3.29 8.53 4.9"/>
   <path class="cls-2" d="m50.68 131.97-0.27 9.32-5.08 2.78 0.16-11.14 3.47-1.95 1.78-1zm-8.47-6.71v-9.64"/>
  </g>
  <path d="m42.27 115.12-0.42 0.32c-1.32 1-5.35 4.33-5.35 6.3" stroke-width="1.5"/>
  <path class="cls-2" d="m30.06 108.78s-7.38 2.93-10.31 3.12m-6.53-26.39 0.08 0.05 69.88 39.99 0.05 0.03m-0.38 0v11.73" stroke-width="1.51px"/>
 </g>
 <path class="cls-1" d="m72.56 23.18-1.82 1.4-1.13 0.88c1.27-1.24 1.21-4.28-0.18-7l-2.06-4.09c-1.45-2.88-3.58-6.8-5.67-8.07l-4.29-2.46c-2.11-1.22-4-1.21-5.45-0.22l-0.05-0.08c2.64-2.13 5.84-3.73 8.66-2.1l4.26 2.46c2.09 1.27 4.23 5.19 5.67 8.1l2.06 4.09c1.44 2.77 2.37 5.69 0 7.09z" fill="#f5f5ff" stroke="#4876ff"/>
 <path class="cls-1" d="m69.4 18.46c1.39 2.68 1.45 5.72 0.18 7l-0.18 0.16-1.7 1.35h-0.29v24a1.85 1.85 0 0 1-0.36 1.2 1.42 1.42 0 0 1-1.89 0.1 5 5 0 0 1-2.24-3.89v-14.1c-0.08 1.3-1.05 1.8-2.24 1.12a5 5 0 0 1-2.24-3.89v-1.2c-0.08 1.3-1 1.8-2.24 1.11a5.06 5.06 0 0 1-2.2-3.61v-1.15a1.09 1.09 0 0 1 0 0.18c-0.08 1.3-1.05 1.8-2.23 1.12a5 5 0 0 1-2.25-3.89v-14.07c0-3.07 1-5.27 2.48-6.34s3.34-1 5.45 0.22l4.22 2.42c2.09 1.27 4.22 5.19 5.67 8.07z" fill="#f5f5ff" stroke="#4876ff"/>
 <g fill="none" stroke="#4876ff" stroke-linecap="round" stroke-linejoin="round">
  <g stroke-width="1.51px">
   <path class="cls-4" d="m54 23v4.51a2.44 2.44 0 0 0 0 0.27 5.06 5.06 0 0 0 2.23 3.61c1.19 0.69 2.16 0.19 2.24-1.11a1.09 1.09 0 0 0 0-0.18v-1.22"/>
   <path class="cls-4" d="m58.44 25.34v6.17a5 5 0 0 0 2.24 3.89c1.19 0.68 2.16 0.18 2.24-1.12a1.09 1.09 0 0 0 0-0.18v-2"/>
   <path class="cls-4" d="m62.92 27.42v20.93a5 5 0 0 0 2.24 3.89 1.42 1.42 0 0 0 1.89-0.1 1.85 1.85 0 0 0 0.36-1.2v-29.25"/>
   <path class="cls-4" d="m67.11 52.2c1.51-0.32 3.28-1.31 3.74-2.45l0.1-24.9"/>
  </g>
  <path class="cls-5" d="m67.7 26.93 1.7-1.35 0.18-0.16c1.27-1.24 1.21-4.28-0.18-7l-2.06-4.09c-1.45-2.88-3.58-6.8-5.67-8.07l-4.26-2.42c-2.11-1.22-4-1.21-5.45-0.22s-2.48 3.27-2.48 6.38v14.07a5 5 0 0 0 2.25 3.93c1.18 0.68 2.15 0.18 2.23-1.12a1.09 1.09 0 0 0 0-0.18v1.78" stroke-width="1.54px"/>
  <path class="cls-5" d="m69.61 25.46 1.13-0.88 1.82-1.4c2.37-1.4 1.46-4.32 0-7.12l-2.06-4.06c-1.44-2.88-3.58-6.8-5.67-8.07l-4.26-2.49c-2.82-1.63-6 0-8.66 2.1" stroke-width="1.54px"/>
 </g>
 <g fill="#f5f5ff" stroke="#4876ff">
  <path class="cls-1" d="m79.42 97.65v7.53l-4.29 2.15v-7.53z"/>
  <path class="cls-1" d="m79.42 90.8v6.85l-4.29 2.15v-6.86l4.29-2.15z"/>
  <path class="cls-1" d="m79.42 72.28v18.51l-4.29 2.15v-18.52z"/>
  <path class="cls-1" d="m79.42 72.28-4.29 2.14-34.66-20.01 4.29-2.14zm-4.29 27.52v7.53l-34.66-20.01v-7.54l1.19 0.69 33.47 19.32z"/>
  <path class="cls-1" d="m54.71 80.57 0.1-0.05 10.76-3.39 9.56 15.8v6.86l-33.47-19.32 11.36-3.05z"/>
  <path class="cls-1" d="m75.13 74.42v18.51l-9.56-15.8-10.76 3.39h-0.1l-1.71-3.1-11.36 3-1.19-0.69v-25.32zm-24.5-5.92a6.59 6.59 0 0 0-3-5.15c-1.65-1-3-0.19-3 1.7a6.61 6.61 0 0 0 3 5.16c1.66 0.95 3 0.19 3-1.71z"/>
  <path class="cls-1" d="m47.64 63.35a6.59 6.59 0 0 1 3 5.15c0 1.9-1.34 2.66-3 1.71a6.61 6.61 0 0 1-3-5.16c0.01-1.89 1.36-2.65 3-1.7z"/>
 </g>
 <g fill="none" stroke="#4876ff" stroke-linecap="round" stroke-linejoin="round" stroke-width="1.51px">
  <path class="cls-4" d="m75.13 107.33-34.66-20.01v-32.91l34.66 20.01z"/>
  <path class="cls-4" d="m79.42 105.18v-32.9l-34.66-20.01m-4.29 27.51 1.19 0.69 33.47 19.32m-24.5-31.29c0 1.9-1.34 2.66-3 1.71a6.61 6.61 0 0 1-3-5.16c0-1.89 1.34-2.65 3-1.7a6.59 6.59 0 0 1 3 5.15z"/>
  <path class="cls-4" d="m41.66 80.47 11.36-3.05 1.69 3.15 3.09 5.78m-2.99-5.83 10.76-3.39 9.56 15.8m-34.66-38.52 4.29-2.14m30.37 22.15 4.29-2.14m-4.29 35.05 4.29-2.15m-4.29-5.38 4.29-2.15m-4.29-4.71 4.29-2.15"/>
 </g>
</svg>
