<svg id="result-svg" version="1.1" xmlns="http://www.w3.org/2000/svg" xmlns:xlink="http://www.w3.org/1999/xlink"
    width="860" height="479" viewBox="0 0 860 479">
    <g id="right-image">
        <path stroke="none" fill="white" fill-rule="evenodd"
            d="M87.24574259813808,429.0C74.0122217686438,429.0 73.24480354233742,428.8894838723714 71.17431402670948,426.68554877863244C69.1617232140558,424.54324402999 69.0,423.35857912038045 69.0,410.7581289276653C69.0,397.66238358460583 69.08924229676099,397.0749622972028 71.34879715947727,395.29759618315325L73.69759431895453,393.4500320682407L71.3026766154822,391.64354226108117C68.96092285336329,389.877154089992 68.91109308590683,389.5242177535855 69.05795605482814,375.7445426997083C69.1935654535706,363.02075356043406 69.39998481360446,361.49669712673443 71.18327426293081,360.0526769358253C73.14639988601347,358.4630342459674 73.14576780079719,358.44189317090206 71.07919766410761,356.5716729009657C69.165140359772,354.83947484737223 69.0,353.5950716220966 69.0,340.90402943226286C69.0,332.6445441627766 69.40741766211859,326.8662360259436 70.01631189606246,326.48991869381246C70.57528343889682,326.14445528159683 70.76683504289551,325.4317481687945 70.44198212717069,324.90612510980725C70.11712921144586,324.3805020508199 70.3910388582178,324.0740962860731 71.05067023110834,324.2252234103697C71.71030160399887,324.37635053466636 72.45625000000018,323.9375 72.70833333333346,323.25C72.96041666666672,322.5625 72.42760901919794,322.0 71.52431633895839,322.0C70.62102365871883,322.0 70.16008130618755,321.55 70.5,321.0C70.83991869381244,320.45 70.64147634128116,320.0 70.05901699437494,320.0C69.36524909242245,320.0 69.0,315.2799300698202 69.0,306.31445122136756C69.0,293.50672466214667 69.1443201164691,292.4734636743609 71.25,290.2055588548923L73.5,287.7822152670494L71.25,286.269135573309C69.09860120596758,284.8223632051364 69.0,284.1517779813413 69.0,270.9669215817778L69.0,257.1777872839871L72.07672528194308,254.58889364199354C74.56111055270387,252.49842125907313 76.200167342763,251.99999999999997 80.5902941263806,252.0C83.58055808575253,252.00000000000003 86.97982576790828,251.43750000000003 88.14422230894894,250.75C89.83789000500809,249.75 90.35184290278725,249.75 90.71398679784478,250.75C90.96965903324711,251.45599625975117 92.84694318977319,252.0 95.02756963200744,252.0C97.65936640359988,252.0 99.77515228930496,252.762689762094 101.67373579868581,254.39578254432482L104.45899900002345,256.79156508864963L107.3062247819548,254.39578254432485C108.87219896201702,253.0781021449462 111.21736653954302,252.00000000000003 112.51770828756813,252.0C113.81805003559322,252.0 115.16008130618756,251.55 115.5,251.0C115.83991869381244,250.45 119.39733923485716,250.0 123.40537898009939,250.0C128.16754296268698,250.0 131.8361537610415,250.57041790200222 133.99251409391343,251.64615210818891C135.8073986612689,252.55153576769283 138.08903576769245,254.08903576769237 139.06281877485463,255.06281877485458C140.0366017820168,256.03660178201676 140.75833333333176,256.98333333333176 140.66666666666566,257.16666666666566C140.57499999999953,257.34999999999957 141.4,256.5592626230157 142.5,255.40947249559042C143.6,254.25968236816513 145.72166751754418,252.57218236816513 147.21481670565373,251.65947249559042C149.22113929341296,250.43307767315747 152.31111922340742,250.00000000000003 159.05504081226064,250.0C167.40071567834224,250.0 168.51269979876582,250.234977396261 172.06887269491654,252.75C174.20750615985304,254.2625 176.00243162766938,256.175 176.05759595673067,257.0C176.14675042794084,258.3333333333333 176.218060203056,258.3333333333333 176.6993839327672,257.0C176.99720299052603,256.175 178.19917667473655,254.72250613051497 179.37043656434616,253.77223584558882C180.54169645395578,252.82196556066268 182.71094235253128,252.03446556066268 184.19098300562507,252.02223584558882C185.67102365871887,252.01000613051497 187.16008130618758,251.54999999999998 187.50000000000003,251.0C187.83991869381248,250.45 191.73207718925445,249.99999999999997 196.1492411009822,249.99999999999994C203.301242924823,249.99999999999994 204.60612810417592,250.30105244570194 208.06887269491682,252.74999999999997C210.233419853624,254.28082687202885 212.00176320479375,256.38667136579716 212.0575959567306,257.5C212.1297421058276,258.9386246575836 212.31180516192387,259.07896849318774 212.70622813680674,258.0C213.00781150678728,257.175 214.17572650301707,255.48749999999998 215.30159479509516,254.25C217.21907745745662,252.14239575235524 218.15179245286714,251.99999999999997 230.03945533490776,252.0C241.3642275971338,252.0 243.01390178961108,252.22309487416476 245.36514130819828,254.0725801490326C247.982629243351,256.1314964588937 247.99999999999997,256.23551228540816 247.99999999999997,269.85007390562726C247.99999999999997,280.7929602343649 247.6776269274997,284.0152395461814 246.40041583155488,285.83871381749543C244.93430360696144,287.9318822286479 244.93430360696144,288.26992495964856 246.4004158315549,289.88996073248484C247.70749105765978,291.3342626000756 248.00000000000003,294.2385481862475 248.0,305.772036702935C247.99999999999997,319.186763025582 247.89076425940317,319.9631037536859 245.79687062676945,321.4297239431777L243.59374125353892,322.9728558236534L245.79687062676945,325.0253830592468C247.86171176426797,326.9490752052394 247.99999999999997,327.9423953564069 248.0,340.8503937007873C248.00000000000003,353.10544986908104 247.7859464796282,354.85263659055386 246.05720598381734,356.70822169508824C244.13348062890708,358.77309847817776 244.13348062890708,358.8108231847196 246.0572059838173,360.5517707038331C247.79694971391189,362.12621714083116 248.0,363.7115943343625 247.99999999999994,375.7207290162015C247.99999999999991,383.096643656789 247.5341673086803,390.00189925383853 246.96481624151193,391.0657414540894C246.39546517434357,392.12958365434025 245.1579651743436,393.03552631578947 244.21481624151198,393.07894736842104C242.8247025175649,393.1429459576896 242.78402680389704,393.26833983346575 244.0,393.74117646470154C244.825,394.06198141502426 246.04818848265836,395.0389550992348 246.7181966281297,395.9122290962805C247.53396794078722,396.9754876248444 247.94689934506513,401.98466165838965 247.9681966281297,411.07568597329055C247.99845949831962,423.99378862052566 247.88789188736877,424.7566920499177 245.6855487786324,426.82568597329055C243.55103881062252,428.8309539697587 242.3468516134311,429.0 230.19697971907087,429.0C219.176369267141,429.0 216.69406328954838,428.7184738698361 215.01143094043846,427.27775913982623C213.90514392319727,426.33052666673063 212.9897534578747,424.8680266667306 212.9772299063883,424.02775913982623C212.9647063549019,423.1874916129218 212.23349994830022,423.9625 211.3523267806068,425.75L209.75019374843697,429.0L194.5440765723285,429.0L179.33795939622001,429.0L177.98112367041864,426.46472925554644L176.6242879446173,423.92945851109283L174.4457947753661,426.46472925554644C172.30535201701622,428.95571797289324 172.0208404040257,429.0 158.15670378291156,429.0C144.27398307761044,429.0 144.02010218094296,428.96031321728617 142.4359010061856,426.54251662068117L140.8256960526629,424.08503324136234L138.54817732224166,426.54251662068117C136.34605189611003,428.91864927838844 135.8237987649522,429.0 122.77169293227382,429.0C109.63859015739735,429.0 109.20367409301541,428.93094682028817 106.72492441906257,426.4521971463353C105.17419670799177,424.9014694352645 103.9236939096875,424.3144488532993 103.52954378832402,424.9521971463353C103.17337601093337,425.52848871585087 103.16566651586167,426.0 103.5124115770536,426.0C103.85915663824552,426.0 103.46785714285711,426.675 102.64285714285714,427.5C101.45343857640329,428.6894185664539 98.26539997122175,429.0 87.24574259813808,429.0zM295.43212353302425,429.0C287.3111222565276,429.0 280.96380400246517,428.7028626642015 281.3269718573299,428.3396948093367C281.6901397121947,427.976526954472 281.09013971219474,427.05101016857986 279.9936385239966,426.2829908406877C278.17072444556794,425.0061721191133 278.0,423.7387166389137 278.0,411.48225117877047C278.0,398.9807089938049 278.1474022813755,397.94058418009166 280.18856144663215,396.03895514741953C281.39227024227984,394.9175298163388 282.8547702422798,393.9924189594118 283.43856144663215,393.98315324313734C284.0223526509845,393.9738875268629 283.0375,393.0296969063362 281.25,391.8849518641892L278.0,389.8035972421037L278.0,376.8360571669625C278.0,369.7039101256349 278.4658326913196,362.9981007461615 279.03518375848796,361.93425854591067C279.6045348256564,360.8704163456598 280.7295348256564,360.0 281.53518375848796,360.0C282.3408326913196,360.0 283.0,359.56037384093435 283.0,359.0230529798541C283.0,358.4857321187739 281.875,357.30897764870616 280.5,356.40804304637027C278.0328284186265,354.7914901390544 278.0,354.5883936223709 278.0,340.9415261395998L278.0,327.1130721461673L280.9919849597219,325.3456631474601L283.9839699194437,323.57825414875276L280.9919849597219,320.845497934295L278.0,318.11274171983723L278.0,305.34393541086365C278.0,292.65032198197883 278.01619418567725,292.56129942634135 280.75,290.2266561056588C282.61294952604743,288.63571550374456 283.0910351710997,287.7077477251032 282.2321428571425,287.3498058404279C281.53482142857087,287.0591983424781 280.29732142857085,286.1544642857139 279.4821428571425,285.3392857142853C278.3207628414804,284.17790569862285 278.0,280.97019243219785 278.0,270.5174650705647L278.0,257.1777872839871L281.0767252819431,254.58889364199354C284.0373384058159,252.09770193964033 284.63829008405753,252.0 297.00066686050866,252.0C309.800173248791,251.99999999999997 309.8562927251948,252.0102125040091 312.11239264026756,254.75L314.37690212340397,257.5L317.1115279847791,254.75C319.813813715246,252.03252194797614 319.9992088078402,252.00000000000003 332.78821823127663,252.0C344.458245477351,251.99999999999997 345.9950481269621,252.20826458096195 348.42408154685495,254.1189425475169L351.11788047731096,256.2378850950338L353.3733914600231,254.1189425475169C354.61392250051466,252.95352414638262 356.3498993931197,252.00000000000003 357.2311178880342,252.0C358.11233638294874,252.0 359.0615743864845,251.4375 359.34053567366925,250.75C359.72260916210183,249.80838001412934 360.10295089760217,249.86799376545306 360.88222822050193,250.99164078649855C361.7061059353387,252.17959751612244 362.1695048314997,252.23049516849684 363.1583592135013,251.24164078649855C363.90745589228374,250.4925441077186 367.1391214886753,250.0 371.30497542497017,250.0C377.34942003537793,250.0 378.77374835081076,250.380502345113 382.73391190087654,253.05318449693848L387.2578729518168,256.10636899387697L389.44338769727597,254.0531844969385C391.19385163841514,252.4087090094754 392.94798664867926,252.00000000000003 398.25543422699263,252.0C401.9000267083343,252.0 405.1600813061876,251.55 405.5,251.0C405.8399186938125,250.45 407.90730882373697,250.0 410.09420028872114,250.0C412.28109175370537,249.99999999999997 415.29203410623666,250.77270978072937 416.7851832943462,251.71713284606528C418.27833248245577,252.66155591140122 420.5125,254.4847407732247 421.75,255.7686547612286C423.83490655262483,257.9317583463566 424.0,259.00573483754073 424.0,270.4054991883282C424.0,282.27544594049255 423.90838570131933,282.8068080105444 421.3940846390981,285.51978375404985L418.78816927819616,288.3316129617699L421.1440846390981,290.10668469964287C423.34204567129893,291.7627452585044 423.52266468699577,292.66218640468907 423.8380476159309,303.5220005694198C424.0239738046929,309.92413484196703 423.9236164677549,316.16820022332087 423.61503131162425,317.39770141687285C423.3064461554936,318.62720261042483 421.8929548832993,320.25451317015165 420.473939595637,321.01394710515467L417.8939117998873,322.3947360778875L420.94695589994365,325.24805386375954L424.0,328.1013716496316L424.0,340.5597874604831L424.0,353.0182032713346L420.91522770869415,356.2461217803062C417.86458049199587,359.4383316697935 417.7097924359079,359.4781703136382 406.9229973052157,359.8473782191075C400.92389534352077,360.05271408051385 394.9995428746084,359.9601169815869 393.75776959652154,359.64160688815883C392.5159963184347,359.32309679473076 390.2625,357.9052246155595 388.75,356.49077982333387C387.1361946994655,354.9815973420068 386.0,354.45805996198595 386.0,355.22363098367225C386.0,355.941143914084 384.11049674319986,357.34679324656236 381.8011038737775,358.3472961669574C378.3996059405558,359.82093396196683 375.565784577447,360.1031162213206 366.8789211444863,359.83319619292877C357.0852079346515,359.52888389792594 355.92760454006014,359.28555324490384 353.5251471840422,357.026204996042C351.97747115543393,355.57072062863693 350.60761160044035,354.95720260139325 350.1973299133334,355.53577783545455C349.81379846100003,356.07663014930836 347.92313480496387,357.34508889662703 345.99585512214196,358.35457505171837C343.0630674138035,359.8907343407816 340.67074144353546,360.13375118898017 331.32367239285077,359.8450022123059C321.2536199989477,359.53391888682387 319.9115220244619,359.2704145015563 317.6726710279455,357.1647964513778C315.2475594976899,354.88400214226687 315.1264528461223,354.87103895328426 312.47486482732415,356.60842615130207C309.85147760719417,358.3273354763499 309.8230168439622,358.44122941598215 311.63001107008745,359.9893517449146C312.65850498153935,360.87050253470096 314.0625,362.57726318973783 314.75,363.782153200552C315.5417290838135,365.1697116941636 316.0,370.0106209389823 316.0,376.9864311555616C316.0,383.66214371852055 315.6061352734296,388.0 315.0,388.0C314.45,388.0 314.0,388.6711867523792 314.0,389.49152611639823C314.0,390.3118654804173 313.17512083917745,391.49819779483505 312.1669351981721,392.1278201484377C310.4431476970158,393.20434326029897 310.50276222922577,393.4453619608352 313.1669351981721,396.17077228781216C315.95552065232914,399.02345478365737 316.0,399.2551558094348 316.0,410.9287230009181C316.0,422.6361631147463 315.9627369751359,422.8283796889491 313.09879019969094,425.89424474514544L310.1975803993818,429.0L295.43212353302425,429.0zM470.1136363636364,428.9395579558786C457.42516359357006,428.88322346812566 456.3470931623315,428.7279266022472 454.25,426.6543890677213C452.13623779966383,424.56436973038956 452.0010463390371,423.614364906564 452.01728054063767,410.9648311118426L452.0345610812753,397.5L454.9517911253146,395.4641275804596L457.86902116935397,393.42825516091926L454.93738575502323,391.4641275804596L452.00575034069254,389.5L452.0028751703463,376.2020340834646C452.0000356977065,363.06917382228994 452.03276653686606,362.8758835784767 454.63908761632456,360.6340205674435L457.27817523264906,358.3639729679578L454.63908761632456,356.28806634641006C452.01941961689755,354.2274351977402 452.0,354.11265369330863 452.0,340.6894863884929L452.0,327.1668130521235L454.743136094265,325.1685775432526L457.48627218853005,323.17034203438163L454.743136094265,321.0125908681581L452.0,318.8548397019345L452.0,305.0963995490772C452.0,291.4199017615291 452.01498868058405,291.3299376978102 454.516657458058,289.99108519898965L457.03331491611596,288.64421100175934L454.516657458058,286.01738663976516C452.07965817858553,283.47370750020497 452.0,282.95965569268117 452.0,269.77684061919774L452.0,256.1631189606246L455.36803398874986,254.0815594803123C458.29943074026,252.26985665336795 460.3216824989494,251.99999999999997 470.9668241884408,252.0C482.9908526649882,252.00000000000003 483.2430354706422,252.04648128535783 485.8868658828583,254.75C487.3659728987703,256.2625 488.4742907487811,257.34027343987077 488.3497944384378,257.1450520886018C488.22529812809455,256.9498307373328 489.2863742977448,255.71233073733276 490.70774148210506,254.3950520886018C493.15713358363473,252.12503210135444 493.9670945062015,252.00000000000003 506.2229458037574,252.0L519.1538461538456,252.0L522.0769230769229,254.92307692307668C523.6846153846153,256.53076923076884 525.0,257.30279261764906 525.0,256.6386844494772C525.0,255.9745762813053 526.306931425486,254.65919166592082 527.9042920566355,253.71560752640053C529.501652687785,252.77202338688025 531.7250950403163,252.00000000000003 532.8452750622606,252.0C533.9654550842049,251.99999999999997 535.1600813061875,251.54999999999998 535.5,251.0C535.8399186938125,250.45 539.482308823737,250.0 543.5942002887211,250.0C548.9844988334371,250.0 551.8278067526135,250.48463674069055 553.7851832943462,251.73703479491928C555.2783324824558,252.69240393212488 557.0946428571428,254.04240393212487 557.8214285714287,254.73703479491928C558.5482142857144,255.43166565771372 559.5285714285715,256.00000000000006 560.0,256.0C560.4714285714285,256.0 561.642803351456,255.2125 562.6030550667276,254.25C563.8864857107145,252.9635643965104 566.7530165707686,252.3265870171309 573.4244836381563,251.84534937906056C578.4160176371703,251.48529153754387 583.4,251.06136380023025 584.5,250.90328774058582C585.6,250.7452116809414 587.8330402669764,251.26480446036416 589.4623117043919,252.05793836152526C591.0915831418075,252.85107226268636 593.4540831418075,254.45160181684068 594.7123117043919,255.61467070409037C596.8665372218929,257.6059724039806 597.0,258.4758622784902 597.0,270.52547139780734L597.0,283.32160138743393L593.8198916028078,286.16080069371696C590.6720639318887,288.97117978251254 590.5077672462274,289.0 577.6343428241754,289.0C565.657655991625,289.0 564.4458252198283,288.8280078793356 562.3144512213676,286.82568597329055L560.0,284.65137194658104L557.6855487786324,286.82568597329055C555.5553037664432,288.8269472518038 554.3407493453429,289.0 542.4253304837657,289.0C529.8947428255418,289.0 529.3903198941879,288.91724874110827 526.6968489271565,286.4197214909091L523.9141344440462,283.83944298181825L521.8844870729899,286.4197214909091C519.8831998720837,288.9639458860709 519.6707122153371,288.9994974917723 506.6774198509669,288.9640370809499C494.36195631351654,288.93042655451364 493.31238691323034,288.77462866271986 490.6318077550666,286.5822293258833C487.97650567547294,284.4105036744798 487.6403415361366,284.3575046216825 486.10278981790475,285.8681922449334C484.55630150099,287.38766032666535 484.5988601385735,287.7333489245973 486.7209820628382,290.88954684032205C488.7344444485785,293.8841371664485 489.0,295.50717126190114 489.0,304.81854887534473C489.0,310.6152492324301 488.45960019983056,316.8524531542852 487.79911155517897,318.6790020350227C487.1386229105274,320.5055509157602 486.0136229105274,322.0 485.29911155517897,322.0C484.58460019983056,322.0 484.0,322.2018151381768 484.0,322.44847808483735C484.0,322.6951410314979 485.0213362457484,323.9326410314979 486.2696361016631,325.19847808483735C487.5179359575777,326.4643151381768 488.420327854635,327.31489189705695 488.2749514284569,327.0886486601265C488.1295750022789,326.8624054231961 489.5593645344345,325.6249054231961 491.4522614999138,324.3386486601265C494.5837442594911,322.21075107700466 495.96691356188813,321.99999999999994 506.80092344628497,322.0C518.0539187864849,322.0 518.8532966950296,322.13469855738134 521.353977273165,324.45225110053775L524.0,326.90450220107545L526.646022726835,324.4522511005377C529.1666498547588,322.1162127189285 529.8953955813696,321.99999999999994 542.0235780113928,322.0C552.0787029571237,322.0 555.0148887873876,322.31301360405246 555.9908621149181,323.4889895220548C556.6705254651093,324.30793375918495 557.6951544107927,324.68840493545054 558.2678153275477,324.3344810248673C558.8747353925962,323.959383796213 559.0095873357857,324.1754703704622 558.5911264405414,324.85255432193014C558.189291378961,325.5027371094386 558.5615239312496,326.278246542896 559.4366179433539,326.61405162330243C560.7526500941201,327.1190605435928 560.9912461066137,329.3725015090745 560.9446707699478,340.8569888041847L560.8893415398957,354.5L557.7330359922003,357.0C554.7360673778414,359.37379474917043 553.926748507902,359.5 541.7012373027665,359.5C528.8952220363801,359.5 528.8129828124825,359.4851606338402 526.4608379970496,356.75C525.1601396068612,355.2375 523.8493471706299,354.0 523.5479659165354,354.0C523.2465846624409,354.0 523.0,354.5989591358505 523.0,355.33102030189C523.0,356.0630814679295 521.8049648615621,357.30058146792953 520.3443663590268,358.08102030189C518.4601267034814,359.0878225114798 514.0775976711601,359.5 505.2568860952018,359.5C493.1029461803955,359.5 492.77497631834296,359.44177481356803 490.5855201154807,356.89536122607535L488.34600075861135,354.2907224521507L486.42114803293515,356.4517209682412C484.5167879412588,358.58971276227254 484.5202692899644,358.64829447493514 486.7481476536295,361.95424296195756C488.73390817035005,364.9009127994623 489.0,366.5545569363984 489.0,375.9485186776761C489.0,382.3872949231758 488.5055296628504,387.6520887760936 487.75,389.2576938125958C487.0625,390.71872640585065 485.6,392.3529843232594 484.5,392.88937807350413C482.74334870565764,393.7459751422719 482.71553866848905,393.87287439200065 484.2714387911498,393.93231971879277C485.24573012628224,393.96954387345676 486.57220440194595,395.16174582107965 487.2191594037359,396.5816573801769C488.3597469276376,399.0849743108283 488.4189718380644,399.0997054567016 489.1708769139037,397.0671124891616C489.5973665427061,395.91420124000587 491.1958922670424,394.4845336223083 492.72315630131766,393.8900733387226C494.25042033559293,393.29561305513687 499.69825847915337,392.56693283296835 504.8294632870075,392.2707839561259C511.1874563890492,391.9038306602334 515.4276292653714,392.1510410995978 518.1422460907386,393.0469454434208C520.5235941903028,393.8328611891046 522.6874692457104,395.39482263085904 523.5227451730759,396.9307797170328C524.5726856271764,398.8614752245911 524.9298752358468,399.06142193073197 524.9599623693448,397.73530156600975C524.9819830662052,396.76471742731513 526.4625,395.0788995545121 528.25,393.9890396264473C530.9278776937768,392.3563058694091 533.2961026325617,392.0068180815648 541.7029469788741,392.0037380604375C547.6469152265814,392.0015603648566 553.0734575402688,392.51669181900655 554.7029469788741,393.23780360656974C556.2413261404934,393.91859559018303 558.0625,395.15609559018304 558.75,395.98780360656974C559.8655918612025,397.3373987978101 560.1344081387975,397.3373987978101 561.25,395.98780360656974C561.9375,395.15609559018304 563.7586738595066,393.91859559018303 565.2970530211257,393.23780360656974C566.9123200078275,392.52298580132566 572.3203187953803,392.0 578.09671294801,392.0C584.8082447984721,392.0 588.9877904234088,392.4676197010785 590.7996599268843,393.42124259480175C592.2848469670979,394.20292602194274 594.2875,395.78306994514 595.25,396.93267353524027C596.7116691564197,398.67848144148314 597.0,401.0804845391939 597.0,411.51143094043846C597.0,419.17047698014613 596.6132845166792,424.0 596.0,424.0C595.45,424.0 595.0,424.48214285714295 595.0,425.0714285714288C595.0,425.6607142857147 594.3571428571428,426.7857142857147 593.5714285714283,427.5714285714288C592.471791212291,428.67106593056576 588.9752601628472,429.0 578.3858797927959,429.0C565.6375725026699,429.0 564.4592054524176,428.84057795518373 562.3144512213676,426.82568597329055L560.0,424.65137194658104L557.6855487786324,426.82568597329055C555.5397677713129,428.8415425614043 554.3640649901753,429.0 541.5528441803275,429.0C528.7812608129898,429.0 527.5972958001462,428.8416975312268 525.9220069662572,426.91007327654415L524.1094231291243,424.82014655308825L521.8661501179299,426.91007327654415C519.8099541212412,428.825711248694 518.4434714047962,429.0 505.4804182514778,429.0C491.450909108699,429.0 491.32736450235063,428.98020325971913 490.01137035642535,426.52124570532095L488.6847813166308,424.0424914106419L486.20602702195174,426.52124570532095C483.8034929825007,428.92377974477205 483.3086613140947,428.99814144224 470.1136363636364,428.9395579558786zM641.2220629261719,429.0C628.0132941757445,429.0 627.2444582579714,428.88911633400613 625.1743140267095,426.68554877863244C623.1617232140558,424.54324402999 623.0,423.3585791203805 623.0,410.7581289276653C623.0,397.6623835846058 623.089242296761,397.0749622972028 625.3487971594773,395.29759618315325L627.6975943189545,393.4500320682407L625.3487971594773,391.67833105257364C623.0879217818913,389.97294956119896 623.0,389.40303634683676 623.0,376.4533150184533C623.0,364.1404740300174 623.1771646318532,362.8228353681468 625.0898780153834,360.9101219846166L627.1797560307668,358.82024396923316L625.0898780153834,356.595670763249C623.1808112678875,354.56356233220475 623.0,353.1904267819166 623.0,340.72450392605197C623.0,327.9462643849103 623.1401885667516,326.94730477758156 625.2031293732309,325.0253830592465L627.4062587464617,322.97285582365384L625.2031293732309,321.42972394317786C623.1119109132283,319.9649775175344 623.0,319.1803024071491 623.0,305.98225117877C623.0,292.9663493751498 623.1398414736149,291.947628144027 625.1885614466327,290.0389551474191L627.3771228932653,288.0L625.1885614466327,285.9610448525809C623.1487574824458,284.06067838176347 623.0010408160072,283.02412918603943 623.015312774517,270.7110448525809C623.0237348005014,263.44497018366144 623.3612348005014,257.02391597580373 623.765312774517,256.44203550178605C624.1693907485327,255.8601550277684 625.6126278095325,254.62265502776842 626.9725062434054,253.69203550178608C628.9584666032515,252.3329629239263 631.8172226951954,252.00000000000003 641.5,252.00000000000003C651.1827773048049,252.00000000000003 654.0415333967486,252.33296292392626 656.0274937565946,253.69203550178608C657.3873721904675,254.62265502776842 658.8306092514673,255.8601550277684 659.234687225483,256.44203550178605C659.6387651994986,257.02391597580373 659.9762651994986,263.45212615906564 659.984687225483,270.7269470201458C659.9997521412231,283.73979731299534 659.9595339863821,283.9804083907549 657.5,285.59195695362973C656.125,286.4928915559657 655.0,287.64276628872483 655.0,288.147234137539C655.0,288.65170198635315 656.0125,289.45010567814126 657.25,289.9214645637348C658.8612577966562,290.53518632489505 660.0257118059637,290.31312427529195 661.3518450123167,289.1392403596797C662.7961634741961,287.86073967566136 665.8553909931431,287.42579215829966 675.2533079143583,287.1627914883582C685.3698727122963,286.8796794602706 687.9115530889264,287.1203161065291 691.0967823984959,288.6627914883582C693.1834035254229,289.6732561697612 695.1341006120226,291.4 695.4316648131619,292.5C695.729229014301,293.6 695.9788352408966,299.75535714285706 695.9863453167075,306.1785714285712C695.9972150716685,315.47525059749114 695.6795007357044,318.17764212143805 694.4285714285717,319.4285714285712C693.0000000000005,320.8571428571429 693.4048133617162,321.0 698.8815184074458,321.0C702.1949249601122,321.0 706.052067817255,321.52223175913866 707.4529469788741,322.16051502030814C708.8538261404933,322.79879828147756 710.0,323.6987982814776 710.0,324.16051502030814C710.0,324.62223175913863 710.7015576474687,325.0 711.5590169943749,325.0C712.4164763412812,325.0 712.8399186938125,325.45 712.5,326.0C712.1600813061875,326.55 712.3585236587188,327.0 712.9409830056251,327.0C713.6295387684728,327.0 713.9946433444073,331.2852476497662 713.984687225483,339.25C713.9762651994986,345.9875 713.6387651994986,351.9655133919956 713.234687225483,352.5344742044348C712.8306092514673,353.1034350168739 711.2018135886896,354.5659350168739 709.6151413081989,355.7844742044348L706.7302826163979,358.0L717.254357345889,358.0C726.0676735894297,358.0 728.1561562694051,358.30586249639543 730.1020783864751,359.88157463221665C731.9447843992589,361.3737074373393 732.8991085593917,361.547461142726 734.7128623487849,360.7210596119086C735.9707880569532,360.1479103030199 737.0,359.38235267306686 737.0,359.0198204342351C737.0,358.65728819540334 735.875,357.38249599650095 734.5,356.1869488811187C732.0680572702049,354.07240188811403 732.0000782704981,353.65234328436134 732.0028751703462,340.7566134265755L732.0057503406925,327.5L734.9960634805977,325.5L737.986376620503,323.5L734.9931883102515,320.6993141751842L732.0,317.89862835036837L732.0,305.59533690201897C732.0,293.8199034044013 732.1085141734706,293.17495672277903 734.5292439010045,290.56294612028637L737.058487802009,287.8338467869032L734.5292439010045,285.84434324441867C732.0552386157397,283.8982904034075 732.0,283.5708252177418 732.0,270.85049677404396L732.0,257.8461538461538L734.9230769230769,254.9230769230769C736.8624090478428,252.98374479831102 738.8618128550083,252.0 740.864059928702,252.0C742.5239082741035,252.0 744.1600813061875,251.55 744.5,251.0C744.8399186938125,250.45 748.6914763412811,250.0 753.0590169943749,250.0C757.6863389981249,250.0 761.0,250.41728599589342 761.0,251.0C761.0,251.55 761.6136363636367,252.0 762.3636363636372,252.0C763.1136363636375,252.0 764.9136363636376,253.18636363636395 766.3636363636372,254.63636363636434C768.9476462555491,257.2203735282777 769.0,257.5366652784516 769.0,270.5637834873314C769.0,283.49289797096844 768.9329965916256,283.9075445906428 766.5395319437232,285.79024415707136L764.0790638874463,287.7256486122086L766.5395319437232,290.0371383328138C768.9089848722914,292.2631237805302 769.0000000000001,292.8299263940228 769.0,305.359862805342C769.0,317.3424988526215 768.828110349709,318.5540657054575 766.8256859732905,320.68554877863244L764.651371946581,323.0L766.8256859732905,325.31445122136756C768.8293297953217,327.44723233491425 769.0,328.65564778038487 769.0,340.7094913698845C769.0,353.0948363898548 768.8763063895288,353.90913125868315 766.6727803655946,356.02995133313505L764.3455607311892,358.26982236923624L766.6727803655946,360.7809339114535C768.8642241834367,363.1455409230774 768.9993969200935,364.0565642761261 768.9896631120705,376.3960227268353C768.979829961491,388.86141681785915 768.8661828274371,389.5968871743068 766.6575793625268,391.48816280429L764.3358325009126,393.47632560858005L766.6679162504563,395.31074295332303C768.90872802874,397.0733657550094 769.0,397.6834227338697 769.0,410.89826612232355C769.0,423.98125635155174 768.887229119212,424.75731468827206 766.6855487786324,426.82568597329055C764.5411937923425,428.84020288420635 763.3617947002087,429.0 750.6377998791702,429.0C737.071359578738,429.0 736.8747077410995,428.9678512456524 734.4522511005378,426.353977273165C732.1144734606979,423.8314734545526 732.0,423.1097368795779 732.0,410.8929324205845C732.0,398.9976337790697 732.1570712355701,397.9315761789885 734.1885614466322,396.0389551474195C735.3922702422799,394.91752981633874 736.8547702422799,393.9970348574338 737.4385614466322,393.99341079429735C738.0223526509845,393.9897867311609 737.1601511886099,393.10365207346086 735.5225581969108,392.02422266607505L732.5451163938217,390.06162374355546L729.9678393357963,392.5308118717777C727.503925367136,394.89139126755225 726.8321526625608,395.0 714.6952811388855,395.0C707.7128765124985,395.0 701.9987061733442,394.6625 701.9971248296538,394.25C701.9955434859633,393.8375 700.6468373126191,392.6 699.0,391.5L696.0057503406925,389.5L696.0028751703462,376.61634919694245C696.0000150090938,363.7999542081505 696.0143556738736,363.72035184733363 698.75,361.3675706182869L701.5,359.0024428426889L692.7911007843127,359.00122142134444C686.5051619263571,359.00033981969756 683.1038536926786,358.51312094433325 680.5657044776542,357.25C678.63163107762,356.2875 677.0381357246793,354.9375 677.0246036933415,354.25C677.0110716620037,353.5625 676.55,353.0 676.0,353.0C675.3851010938774,353.0 675.0,348.04065735340527 675.0,340.12197206021574C675.0,328.2035918962687 675.1543776863465,327.1417071985788 677.0716769299179,325.87197206021574C678.9213887766225,324.64699680636215 678.4861886416818,324.5366364151995 673.0098034748593,324.84194034063785C667.8339870882288,325.1304878061741 666.3000503123945,324.8025677257502 663.1861170251818,322.74186418274974C660.7600059124952,321.1363398171005 658.8267784957989,320.53459123371 657.5423421928483,320.98514716073714C655.6075527696779,321.6638346442319 655.6074882833836,321.6809591724176 657.5356585161381,322.76001748621485C659.301818171175,323.74841012234543 659.5164437070999,325.2366289524105 659.8469241615556,338.78639123512244L660.2112347160505,353.72319413506574L657.5822402054151,356.16093544035795L654.9532456947798,358.59867674565015L657.4766228473899,360.79272494624934C659.9319364482712,362.92759265017077 660.0,363.33655236204487 660.0,375.95443142600476C660.0,388.00674981484127 659.8455173978683,389.06601214210593 657.8114385533679,390.96104485258047C656.6077297577202,392.0824701836612 655.1576019481878,393.0 654.5889323099625,393.0C654.0202626717371,393.0 654.6676153227216,393.76141597580374 656.0274937565946,394.69203550178605C657.3873721904675,395.62265502776836 658.8306092514673,396.86015502776837 659.234687225483,397.44203550178605C659.6387651994986,398.02391597580373 659.9762651994986,404.17178977292417 659.984687225483,411.10397727316484C659.999270159238,423.10722106289336 659.8831202791024,423.83406985227583 657.5477488994625,426.35397727316484C655.1229754092459,428.9703511678014 654.9400451875816,429.0 641.2220629261719,429.0zM213.72773595656963,396.55011175397135C214.46261216824362,395.1475502892871 215.83700275551845,393.96954387345676 216.78193726162482,393.93231971879277C218.11579777116114,393.8797744581569 217.99684316202274,393.6219760457018 216.25,392.7795053590478C215.0125,392.1826816158521 214.0,391.08813774239536 214.0,390.3471856402551C214.0,389.6062335381148 213.55,389.0 213.0,389.0C212.38477552411715,389.0 212.0,384.0134896634521 212.0,376.0404689903563C212.0,363.4353451987367 212.06970861025778,363.01630050890645 214.54901946216404,360.71735372605826L217.09803892432808,358.35376947140384L214.54901946216404,356.4395360439238C212.0343409530913,354.55109159189675 212.0,354.34086695462463 212.0,340.83523145725485C212.0,327.5940736950587 212.07831971832593,327.083553998652 214.38843956146528,325.2664134652049L216.77687912293055,323.3876666323439L214.38843956146528,321.0888734646891C212.11203016267777,318.8979055804075 212.0,318.18318912336053 212.0,305.85139616001567C212.0,293.6298834800162 212.13119044061764,292.7712290249928 214.36684220535375,290.36017900732924L216.73368441070753,287.8076459916614L214.61684220535375,285.6538229958307C213.4525789924092,284.4692203481238 212.31770504705548,283.9343848588335 212.09490010456778,284.4652996862967C211.87209516208006,284.99621451375987 210.74709516208006,286.2187433356423 209.59490010456778,287.18203040159096C207.82827582547384,288.6590080256023 205.3567158013223,288.93867480657525 193.822580149033,288.96673071529426C180.68445195333865,288.99868821401884 180.07313884091226,288.9084395542115 178.31856480351377,286.6778601216115L176.49196930896147,284.35572024322306L174.0170161292395,286.6778601216115C171.67947100250618,288.8710760582984 170.79068025015488,289.0 158.0083801665369,289.0C144.8174946739832,289.0 144.42814642891923,288.93801211093233 142.63685948081613,286.55270986540324L140.79902157807595,284.1054197308065L138.1597290839046,286.55270986540324C135.63695526358148,288.89195778731056 134.93823279408116,289.00000000000006 122.3327984438996,289.0C109.34864860445195,289.0 109.11385165333783,288.9601975080535 107.11611457625729,286.4204863639826L105.08706885444865,283.8409727279652L102.79353442722433,285.9905560374364C100.65075849018415,287.9988430443912 100.61400920479262,288.22419783819925 102.23445645345058,289.4189465533366C103.18840750284839,290.1222905168725 103.68649987161282,290.98016679505383 103.3413283840382,291.3253382826284C102.99615689646359,291.67050977020307 103.45315149241083,292.23666013613894 104.35687193058763,292.58345020693037C105.75823193345649,293.12120249632164 105.99999999999999,295.0300138608963 106.0,305.5563029793689L106.00000000000003,317.8986283503684L102.85658239086935,320.8364075237483C99.80247246312192,323.6907214122011 99.77447399930732,323.7936454868759 101.87110317093827,324.4590897356819C103.05796928499805,324.8357864068864 103.76898528361615,325.5647726686355 103.45113872342294,326.07905920623534C103.13329216322974,326.59334574383524 103.57675781219871,327.2840923315154 104.43661794335401,327.61405162330243C105.74260121849022,328.1152044282019 105.99999999999999,330.3367123280674 106.0,341.1069888041849C106.0,348.1981449618832 105.60175447006777,354.0 105.11500993348395,354.0C104.62826539690013,354.0 103.47270711348612,355.15580535294964 102.54710263700838,356.5684563398881C100.92202257519855,359.04864200396946 100.95243721376586,359.2251644864932 103.4320927035244,361.70481997625166C105.89895168057464,364.17167895330186 105.99999999999999,364.7367560098052 105.99999999999997,376.0649350649353C105.99999999999997,385.45179063361036 105.67946297461722,388.17767988252604 104.42857142857115,389.4285714285717C103.56428571428529,390.29285714285726 103.2267857142853,391.01594593707824 103.67857142857116,391.0354354157294C104.13035714285702,391.0549248943806 103.375,391.71397895730234 102.0,392.5C100.27026291922978,393.4888070864144 100.00324931750954,393.9400470032467 101.13336863603914,393.9645645842706C102.03172138586065,393.98405406292176 103.05209005387955,395.0125 103.40085456497003,396.25C104.03227019068129,398.49041383790615 104.04235326262409,398.49147761739124 105.76748592893091,396.4996832223368C106.7203686680189,395.399508994622 108.75867385950662,393.93700899462203 110.29705302112582,393.2496832223368C111.88718295493305,392.5392359463625 117.12033852570309,392.0 122.4249290664533,392.0C128.5423310922453,392.0 133.01815175901402,392.52746426028887 135.42138690697647,393.53160001966205C137.4374860559533,394.37398003047616 139.339594991272,395.72139542503555 139.64829565212915,396.5258564520162C139.95699631298632,397.3303174789969 140.61975677847238,397.7350032348958 141.12109668654264,397.4251581317917C141.6224365946129,397.1153130286875 141.80320179303231,396.4905908065762 141.5227971274747,396.0368865270999C141.24239246191706,395.58318224762365 142.8191585087265,394.4892764828768 145.0267216759401,393.60598482766244C147.71161013906536,392.53170545487643 152.13857689029638,392.0 158.3981124898554,392.0C164.34786084281401,392.0 169.03069723694415,392.53270609566175 171.2565906803021,393.46274375965197C173.18205190460804,394.26725282746054 175.05270644830594,395.69496751162154 175.41360077740856,396.6354430577876C176.00945227075874,398.18820715922345 176.20079492837823,398.158337569195 177.49505917800275,396.3105165105108C178.27896696922693,395.19133136334256 180.3163189169366,393.69740353931587 182.02250795069097,392.99067690156255C184.2389852409856,392.07258194723056 188.03330526467377,391.884047171064 195.31233491512216,392.3303228627917C200.91555071180497,392.6738547792211 206.45674460788584,393.2279716703004 207.6260991286352,393.56169373185696C208.79545364938457,393.8954157934136 210.34606306210972,395.2781076545787 211.07189782358,396.634342312224L212.39159738988963,399.1002235079427L213.72773595656963,396.55011175397135zM317.2228612517745,324.9436291400816C320.4090635115187,322.0334828181407 320.5800838011003,322.0 332.25804454611944,322.0C341.7329709356849,322.0 344.6075683974143,322.3417154653914 346.78518329434496,323.7269019555764C348.27833248245526,324.6766980311434 349.79002141161425,325.86393370886617 350.1444920258095,326.36520346162695C350.4989626400047,326.8664732143878 352.06936440731454,326.0893673343784 353.6342737309425,324.63830150605054C356.3841732149033,322.0884507816258 356.8822138250275,322.0007454712503 368.489781705133,322.02223584558885C378.86908884669464,322.0414522049632 380.8394840779044,322.31001998107223 383.0,324.0C384.375,325.0755405698523 385.95,325.9512229219956 386.5,325.9459607825408C387.05,325.94069864308597 388.3120123888367,325.3206717078922 389.30447197519266,324.56812314877686C391.0168574516238,323.26967912077384 390.9785831669463,323.0694922578555 388.55447197519266,320.6453810661018C386.08833637301916,318.1792454639282 386.0,317.6597270971378 386.0,305.6221798273979C386.0,293.88315929141396 386.14195300112283,292.98474900723795 388.42558910476725,290.27080169751696C390.80703186257665,287.44061778358383 390.8153201351678,287.3657590930693 388.8809822477941,286.1577450887272C387.2370414777373,285.1310870857483 386.4372228672628,285.2645442436277 384.051022643627,286.9636686731537C381.5242884045478,288.76286214820817 379.6662274865877,289.0 368.0956295006002,289.0C360.89303327527006,289.0 355.0,288.6582460549471 355.0,288.2405467887713C355.0,287.8228475225955 354.0799269143621,286.90649842551466 352.95539314302687,286.20421546192495C351.2171111150112,285.1186403682219 350.4823339380447,285.2324223279358 348.051022643627,286.9636686731537C345.5447388117356,288.7483001738599 343.66192849587225,289.0 332.8184907523746,289.0C320.520197025683,289.0 320.42632336450384,288.9822816229045 317.2228612517744,286.0563708599184C315.4502875632985,284.43737483287345 314.0,283.57774316753114 314.0,284.14607827026873C314.0,284.7144133730064 313.01080827900296,285.9804136817322 311.8017961755622,286.9594122896595L309.60359235112435,288.7394097586182L311.7706712164496,289.42721387159725C313.16066728976625,289.86838148739065 314.30549660689314,291.43909126481157 314.9632981064848,293.80750899228815C315.5273495200752,295.83837904652967 315.9913557516758,302.1085858946576 315.9944230655973,307.74130198812804C315.99993501672293,317.8632707877109 315.9643630310008,318.016660577812 312.941597170812,320.90537797966107C310.0279331748499,323.68983178044306 309.9806082012249,323.85906994104477 311.941597170812,324.4814636620901C313.0737187268654,324.84078508555336 314.0,325.7540840024002 314.0,326.5110168106387C314.0,327.35511596546127 315.2461627443002,326.74906439564944 317.2228612517745,324.9436291400816zM87.0,216.98473701616138C76.78010460720964,216.98644134513793 74.01700913894082,216.66826491686038 71.85214527256787,215.24042873271975L69.20429054513575,213.4940358768448L69.05812704445339,198.9395554772967L68.91196354377102,184.38507507774858L71.49125251633922,183.0046815111829L74.07054148890742,181.6242879446172L71.53527074445371,179.44579477536618C69.05472337230658,177.31432399732486 69.0,176.97636703498785 69.0,163.78863836516967C69.0,151.73675170474638 69.2045701847997,150.12484165140148 70.93256089824806,148.5610315482855C71.99546939228449,147.59911258151925 72.62232443040158,146.17936817856878 72.32557209406377,145.40604398617342C72.02881975772598,144.63271979377805 71.20359285158499,144.0 70.49173452486154,144.0C69.50042784038115,144.0 69.16409891079977,140.69018756933127 69.05499033662034,129.86100285856898C68.92070442546111,116.53293082635108 69.03974742379744,115.58659324892778 71.13058103428398,113.36100285856898L73.34862805341895,111.00000000000001L71.13058103428398,108.63899714143106C69.04152636991986,106.41530035244503 68.92075025687667,105.46252033898207 69.0538137871551,92.2557713874167C69.19120061301973,78.61992905969439 69.25998159601582,78.19882146852652 71.54995969900152,76.97326238051542L73.90482583884184,75.71297626905957L71.40658181450803,73.74785723311847C68.93835224772735,71.80634757292954 68.91014839560091,71.61285497464723 69.05904296882582,57.64256109189185C69.20944841997502,43.53050644401061 69.21500886243426,43.49891426220215 71.8548740737387,41.757781199005834C74.03574694379657,40.31937826675564 76.8339612140004,40.012021922462765 87.79796591653579,40.00658920570265C101.05494799760405,40.000020307686434 101.10339151690046,40.00847539753393 103.51636467380413,42.749999999999986C104.9609147302153,44.391240603035435 105.94953866902196,44.93967033516876 105.96839875726835,44.110242598615685C105.98577944077076,43.34587602785431 106.7875,42.12268754519595 107.75,41.392045970485995C109.00624660522732,40.438418959714745 113.43942851558023,40.05463358783995 123.4624354490553,40.031803371870325L137.4248708981106,40.00000000000003L139.7847694824346,42.750000000000014C141.0827137038128,44.2625 141.89098149678728,44.98672284707938 141.580920133489,44.359384104620844C141.27085877019073,43.73204536216231 142.12247597271426,42.494545362162306 143.4734028057635,41.609384104620844C145.42367469473976,40.33151688371632 148.70303100859158,40.0 159.3933881342252,40.000000000000014C170.299831821726,40.00000000000003 173.155620637657,40.29847778051419 174.42857142857142,41.571428571428584C175.29285714285714,42.43571428571429 176.0,43.54025974025989 176.0,44.025974025974364C176.0,44.511688311688836 177.10454545454533,43.804545454545966 178.45454545454515,42.454545454545766C180.82638601540393,40.08270489368633 181.37990113153262,39.99999999999994 194.8819653055129,39.99999999999994C208.78600907566923,39.99999999999994 208.8650492683853,40.01297936049046 210.92741985096774,42.63485869180214C212.7809313849716,44.99121676944079 213.0,46.63332050343034 213.0,58.17059210243829C212.99999999999997,70.22653133993603 212.8526375246299,71.21648895715576 210.75,73.28573341063613L208.5,75.5L210.82506724272832,77.77961269727382C213.07475604222563,79.98532058305128 213.13959583855134,80.5148267011681 212.82506724272832,94.11236351150998C212.54068218683696,106.4067504675702 212.26845513284212,108.33454361574992 210.64986220291996,109.5162159578147C209.63228641452596,110.259108838953 209.1008806497791,111.35421132577484 209.4689605034825,111.94977703964099C209.83704035718588,112.54534275350716 210.50594181488918,112.80534475081858 210.9554081872676,112.52755925588859C211.404874559646,112.2497737609586 212.04263571691135,113.0299334077305 212.37265520341276,114.26124735982613C212.7026746899142,115.49256131192176 212.97883524089693,122.17681358868936 212.98634531670768,129.1151413081986C212.99853345521336,140.37538705992426 212.77740006506832,142.01327257633807 210.92741985096723,144.3651413081986C208.86787236979742,146.98343164764358 208.7683582887186,147.0 195.10173387767674,147.0C181.78364686198887,146.99999999999997 181.27551427700158,146.9221739513937 179.03713833281367,144.53953194372303L176.72564861220837,142.07906388744613L174.7902441570714,144.53953194372306C172.9046115164007,146.9367253912886 172.50716067891344,147.0 159.33514914354942,147.0C147.65005616336504,147.00000000000003 145.49333583936004,146.746618211222 143.4416410805306,145.13275487871908C142.13604145298203,144.10577006201459 141.3878151425173,142.86827006201457 141.77891594616455,142.38275487871908C142.17001674981177,141.8972396954236 141.11763295773346,142.7375 139.44028529710158,144.25C136.42807540987232,146.96617361228385 136.22299618125317,147.0 122.7678612879183,147.0C109.48641330618915,147.0 109.09667779868882,146.9383644898158 107.2097558429286,144.5395319437231L105.27435138779157,142.07906388744618L103.12681960624951,144.36500671523436L100.97928782470744,146.65094954302253L103.98964391235373,149.3331890130087L107.0,152.01542848299488L107.0,163.45957651731283L107.0,174.90372455163077L103.56642901776395,178.23836619758214L100.1328580355279,181.57300784353347L103.00682824268296,183.5045892286659C104.58751185661825,184.56695899048873 106.12647419114288,186.35053222569368 106.42674454162659,187.46808530689916C106.72701489211029,188.58563838810463 106.97883524089673,194.08415968295458 106.98634531670757,199.68702151767687L107.0,209.87404303535374L103.25,213.42834773954092L99.5,216.98265244372809L87.0,216.98473701616138zM260.26745424977946,217.0C247.41783391275212,217.0 246.81561143145424,216.90652052236334 244.45454545454544,214.54545454545456C242.08882819612433,212.17973728703342 242.0,211.5981240981241 242.0,198.47402597402595C242.0,188.0060606060605 242.33035856211822,184.5267842950246 243.42857142857144,183.42857142857142C244.21428571428575,182.64285714285714 245.33928571428575,182.0 245.92857142857144,182.0C246.51785714285714,182.0 247.0,181.55 247.0,181.0C247.0,180.45 246.51785714285714,180.0 245.9285714285714,180.0C245.33928571428567,180.0 244.21428571428567,179.35714285714283 243.4285714285714,178.57142857142856C242.33158170149161,177.47443884434873 242.0,174.00967735320418 242.0,163.64400872046144C242.0,150.50204397933538 242.06490977984143,150.09410225780127 244.45516207435858,148.21392952891387L246.91032414871717,146.28269875976187L244.45516207435858,144.14796280645663C242.07561573391817,142.0789738877429 242.0,141.5986789182161 242.0,128.55329840812243C242.0,115.69995432076534 242.10306351244708,115.01562901005124 244.28694902083427,113.36832108578102L246.57389804166854,111.64327220846855L244.28694902083427,109.17561337739896C242.14090801113542,106.85999680651057 242.0,105.88236233998555 242.0,93.30852272770996C242.0,80.69251589252865 242.13335226126824,79.77573864782231 244.2808112716561,77.62827963743479L246.5616225433122,75.34746836577904L244.2808112716561,73.62704920134276C242.10668123767647,71.98709984520022 242.0,71.28368090362045 242.0,58.58817371025529C242.0,46.628446042106475 242.21144147463232,45.00091310720373 244.07258014903232,42.63485869180205C246.1337937724313,40.014450195749774 246.2212923186092,40.0 260.02712560357827,40.0C273.5673265261535,40.0 273.97175823917667,40.06266733008472 276.45454545454595,42.54545454545509C278.9225051850429,45.01341427595306 279.0,45.48937126298716 279.0,58.17910534851279C279.0,70.93403654863516 278.9357217032044,71.3225342990365 276.4756220471306,73.43643487875066L273.9512440942612,75.60556815138591L276.4756220471306,77.97709810240244C278.9229652643823,80.27625767695518 279.0,80.74415059530494 279.0,93.30964332261954C279.0,105.97003434762348 278.93993131873003,106.32632836678394 276.41021853636107,108.67078704875038L273.8204370727221,111.07091550568067L276.41021853636107,113.10803790187306C278.96045650137796,115.11405537751607 279.0,115.3446160475725 279.0,128.2079094449429C279.0,141.05278436685205 278.95581914556885,141.31160402581185 276.3511165966837,143.72556087784403L273.7022331933674,146.18046316386767L276.3511165966837,148.4565807788763C278.9649112466573,150.70254752749642 279.0,150.9057134409031 279.0,163.79376904790956C279.0,176.65525653575952 278.9604261551059,176.88596849286472 276.41021853636107,178.89196209812695L273.8204370727221,180.92908449431968L276.41021853636107,183.32921295124964C278.9373227108774,185.6712540570504 279.0,186.03986486011246 279.0,198.5599518429753C279.0,211.1216444052416 278.9436810233036,211.44934662267855 276.31290879523397,214.1952811388855C273.631409191258,216.99416362638837 273.5980200096206,217.0 260.26745424977946,217.0zM321.8122929607672,217.0L308.84615384615387,217.0L305.9230769230769,214.0769230769231L303.0,211.15384615384616L303.0,198.41612238320613L303.0,185.67839861256607L306.18010839719216,182.83919930628304C309.3097437362933,180.04506232292096 309.5563102399892,180.0 321.7152916915371,180.0C331.24482578773365,180.0 334.6169456119371,180.35813233087595 336.4603603085281,181.56598403023122C337.77485685443907,182.42727524685836 339.33402437198384,184.51942571621032 339.92517701418313,186.2152072954578C340.5163296563824,187.91098887470525 340.96714859835987,192.2687960611012 340.92699688524414,195.89922326522657C340.8868451721284,199.52965046935196 340.5081400051831,204.9356248249713 340.085429847588,207.91249961104734C339.5456145046821,211.71407062740442 338.6414762352328,213.8718966136948 337.0476490000341,215.16249961104734C335.10608520236326,216.73468259392416 332.90624613333097,217.0 321.8122929607672,217.0zM460.26484556832827,217.0C448.69408231818556,217.0 448.0161108613951,216.88443625933675 445.0767252819435,214.4111063580068L442.0,211.82221271601364L442.0,198.81231615831592L442.0,185.80241960061818L445.10575525485456,182.9012098003091C448.17307882623766,180.03590056768167 448.3588618896982,180.0 460.1193240992927,180.0C467.8067683436811,180.0 472.80606902682155,180.44302521548616 474.2249001150239,181.25C475.433669449405,181.9375 477.1150634694078,183.1415830126672 477.9613312705857,183.9257400281494C479.12891036996075,185.00762609380254 479.581528897243,188.10218202717 479.838047615931,196.75686237881195C480.023973804693,203.02982265619417 479.92293175557495,209.13823964352696 479.61350972900186,210.33112235066255C479.30408770242883,211.52400505779815 477.5491204041331,213.5125 475.71358239945573,214.75C472.7088171545993,216.77578044204722 471.16930206873076,217.0 460.26484556832827,217.0zM523.101218246781,217.0C510.81153229562625,217.0 509.96032685885035,216.8699427675776 507.3057637013263,214.5865836679609L504.5,212.1731673359218L504.5,198.5059723117161C504.5,186.6715829767664 504.73343120451,184.66808822337603 506.24069177953527,183.5659523821213C507.88119417279813,182.36638774463395 507.8668048668552,182.18943518539425 505.99069177953527,180.491576176254C504.19250369039275,178.86423832124197 504.0032172032599,177.42371220701048 504.03326928470574,165.59501243788793C504.06201038550694,154.28232339757315 504.32201465773596,152.19375915726994 505.94356187435534,150.25C506.97592469207444,149.0125 508.4909535139568,148.0 509.3102925896495,148.0C510.25533529567554,148.0 509.5568968363611,146.75689683636122 507.3999999999999,144.59999999999994L504.0,141.19999999999987L504.0,128.52307692307664C504.0,116.00995860981024 504.03553410376657,115.81153018034482 506.75,113.16661304222279L509.5,110.48707223829217L507.25,108.27926952978201C505.1479913878323,106.21668272655732 505.0,105.22645757297269 505.0,93.22429485726755C504.99999999999994,81.6775552446697 505.20638964312144,80.15558961603968 507.03895514742,78.18856144663161C508.16038047850094,76.98485265098421 509.622880478501,75.98975345787473 510.28895514742,75.9772299063883C510.955029816339,75.96470635490188 510.09270173980497,75.26023494875237 508.3726705329,74.41173789272271C505.70441731954634,73.0954797997396 505.16916258794754,72.19316251687371 504.7263963445202,68.26495202795236C504.4409767478163,65.73271685835833 504.4522945370048,59.2175250624408 504.7515469871612,53.78674803702452C505.24754520761593,44.78546587915114 505.5154924144292,43.73967390578026 507.78267986734147,41.95630399540653C509.97479877582373,40.23198301068736 511.8853530227621,39.99999999999995 523.8943119030287,39.999999999999986C536.5313947980464,40.00000000000003 537.6113799851604,40.14807371046668 538.7947544879022,42.04295748447582L540.070602553348,44.08591496895161L542.9396717760737,42.04295748447581C545.4866889023158,40.229321319852225 547.3174487288511,40.0 559.2493829372877,40.00000000000003C571.4545269077367,40.00000000000006 572.8576932900207,40.18527151229972 574.514043351368,42.01551772859192L576.3380618269599,44.031035457183776L578.4834821348475,42.01551772859189C580.4265484106822,40.19010174256071 581.9432903385978,40.00313792774264 594.5644512213676,40.03326928470587C606.6995958154226,40.062240341881996 608.790688905019,40.30904072461578 610.75,41.94356187435517C612.8934663905194,43.731711371407556 613.0,44.506705731146134 613.0,58.31151671896281L613.0,72.80244825862701L609.4428398182381,74.90122412931349C606.3952621498271,76.69933895903023 604.2664215343642,76.99999999999997 594.5823866585602,76.99999999999999C584.3668088808321,77.0 582.9458381867431,76.77384671317736 579.8159771558278,74.64986564641782L576.3528606310113,72.29973129283565L573.6206666141788,74.64986564641784C571.0864717237935,76.82968832148246 570.0329996015299,77.00000000000003 559.0837831389954,77.00000000000003C548.3406492240798,77.00000000000003 546.9675502208108,76.788580897483 543.8146741136634,74.64898137812004C540.4201818320465,72.34541669387367 540.3041147636102,72.33532448592773 538.0643433110309,74.14898137812001C536.8070921314226,75.167041620154 536.2600738127585,75.99999999999999 536.8487470473331,76.0C537.4374202819076,76.00000000000001 539.0855641819558,77.23750000000003 540.51128904744,78.75000000000001C543.0614768700634,81.45540212568136 543.0986223421226,81.70794221335635 542.8017580377966,94.32216014701393C542.564105044636,104.42039898755233 542.1813421519568,107.3353773456379 541.0,108.04367230802933C540.175,108.53831591573014 538.8428934930547,109.37837153389167 538.0397633178994,109.9104625706105C536.785932730828,110.7411523362087 536.8401629840447,111.16590074223623 538.4234196484715,112.9153796640589L540.2673126611443,114.95285850892759L543.2103816125154,112.4764292544638C545.9927663053033,110.13520688956415 546.8243675729575,110.0 558.4418665901419,110.0C569.5940138430043,109.99999999999999 570.9970358610904,110.20486226807165 573.6151413081985,112.215525795565C575.2018135886893,113.43406498312575 576.7798823736427,114.82989535279735 577.1219608303172,115.31737106150187C577.4640392869917,115.8048467702064 578.3640392869917,115.36343179821463 579.1219608303172,114.33644890152019C579.8798823736428,113.30946600482574 581.7586738595066,111.91363563515415 583.2970530211257,111.23460363558331C584.9222243042714,110.51726207664157 590.3900510657306,110.00000000000001 596.3476884790102,110.00000000000003C602.4592270845876,110.00000000000004 607.6803462668286,110.50495081313393 609.2725096854488,111.25000000000003C610.7416910087727,111.93750000000001 612.6730071047352,113.85 613.564323232032,115.5C614.863641086069,117.9052907756342 615.1170121483248,120.8468749944946 614.8424490044677,130.3387687545823C614.5084767582545,141.88448838519616 614.4305479639157,142.23722354736697 611.6942362986737,144.5887687545823C609.0397742500521,146.8699736288153 608.1863026559765,147.0 595.8673132217506,147.0C582.9809653005565,147.0 582.8175484430061,146.97139459685226 580.0832171577224,144.23706331156853L577.3202804692909,141.47412662313707L574.5972877510146,144.23706331156853C571.8943686192679,146.97963195115477 571.7761405878157,147.0 558.5595922318113,147.0C547.9442517113804,147.0 544.9925062103679,146.69589682313733 544.0,145.5C543.3153108130136,144.675 542.0227106910646,144.01000613051497 541.1275552845578,144.02223584558882C540.2323998780511,144.03446556066268 538.4126276197926,144.8803775385689 537.0836169328724,145.90204024093597C534.7880849146368,147.66670584385562 534.7647604501379,147.79056252613225 536.6172507607824,148.37852011055725C537.6897600530532,148.71892133648186 539.3396324332606,150.30494078406213 540.2836338279101,151.90300777184672C541.6243371179887,154.17263754192186 542.0,157.20759679838062 542.0,165.76943336483532C542.0,175.33106533647603 541.7363924768739,177.06540527684416 539.9350152660172,179.35548530267727C538.7992736623268,180.7993467801312 538.1508313097955,182.4350331914418 538.4940322603923,182.99034399447856C538.8372332109889,183.54565479751534 539.6539763412811,183.98999386948503 540.3090169943749,183.9777641544112C540.9640576474687,183.96553443933735 542.625,183.0755405698523 544.0,182.0C546.1756499900004,180.29818194178608 548.1352400618346,180.041586812482 559.1039772731649,180.0222358455888C570.822619735864,180.00156190127237 571.8792971379839,180.15879495466606 574.147255594483,182.2606679146067L576.5865566426363,184.5213358292134L579.9411615411099,182.2606679146067C582.9696007783282,180.219803007377 584.4825556021681,180.0 595.5018604929564,180.0C607.0723034657339,180.0 607.8457502406964,180.12770473954504 610.3539772731647,182.4522511005374C612.9653467553278,184.87238665780197 613.0,185.08255646615535 613.0,198.50021701707288C613.0,212.07846764283244 612.9964675249661,212.09904096710045 610.25,214.51636467380393C607.6561683636974,216.79934477410904 606.7836050996681,216.93859210157993 594.8848586918014,216.96839875726846C584.1039030703475,216.9954053192362 581.9229694898976,216.73092060365894 579.8848586918014,215.1493288097828C578.5731864113106,214.1314596551633 576.8330357142858,213.5287810837347 576.0178571428571,213.81004309549706C575.2026785714286,214.0913051072594 573.9330357142858,214.92410714285714 573.1964285714286,215.66071428571428C572.2161008279163,216.64104202922653 568.4069478086625,217.0 558.9843351298978,217.0C546.9664455186148,217.0 545.9326462534395,216.8461329131884 543.4180499843419,214.68316826243893L540.7245725660312,212.36633652487785L538.4077408284702,214.68316826243893C536.2231108677267,216.86779822318232 535.3496985048897,217.0 523.101218246781,217.0zM655.8463516411334,217.0L642.8461538461538,217.0L639.9230769230769,214.0769230769231C637.0031583755564,211.1570045294025 637.0,211.14029891835528 637.0,198.61587822434262C637.0,187.00559056427838 637.1619309671162,185.9270486503391 639.1885614466321,184.03895514741953C640.3922702422798,182.9175298163388 641.7422702422798,182.0 642.1885614466321,182.0C642.6348526509845,182.0 643.0,181.55 643.0,181.0C643.0,180.45 642.4902829307628,180.0 641.8672954016951,180.0C641.2443078726274,180.0 639.8943078726273,179.03114564066578 638.8672954016951,177.84699031259066C637.2620221125994,175.99609465932397 637.0,173.96710831955937 637.0,163.38745930294704C637.0,151.25812509751026 637.0394468922839,151.04436075763496 639.7397817051329,148.54046899035637L642.4795634102659,146.0L639.7397817051329,143.45953100964365C637.0368202627669,140.9532036940057 637.0,140.75214037508977 637.0,128.49848615706324C637.0,117.00896197491664 637.1640555022925,115.92506934473627 639.1885614466321,114.03895514741959C640.3922702422798,112.91752981633881 641.8547702422798,111.99791764169062 642.4385614466321,111.99537253709025C643.0223526509844,111.99282743248989 642.0375,110.62001881132275 640.25,108.94468671227438L637.0,105.89862835036826L637.0,93.28851348146718L637.0,80.6783986125661L640.180108397192,77.83919930628306C641.9291680156477,76.27763968782739 642.9140206666325,75.00000000000001 642.3686698438248,75.0C641.823319021017,74.99999999999999 640.3922702422806,74.08247018366139 639.1885614466327,72.9610448525809C637.1714851278916,71.08185240442647 637.0,69.97972868939115 637.0,58.89530339849159C637.0,51.670053854656004 637.4644493678248,45.99648050280263 638.1633428156447,44.68425854591068C638.8031813642492,43.4829163456598 640.0406813642493,41.951811517341675 640.9133428156447,41.28180337187038C641.9718790040846,40.46908514374562 646.9219912792187,40.0530209482764 655.7851832943461,40.031803371870396C666.3697607596815,40.00646497451731 669.5714133725604,40.32829846180108 671.5351832943461,41.61500993348476C673.970114050719,43.21043784091062 674.0,43.40845177165432 674.0,57.94603023537475C674.0,72.54350486208976 673.9802461008754,72.67261256975831 671.547587080579,73.97453216736022L669.0951741611581,75.28702373094043L671.547587080579,77.21609201450295C673.9438324392983,79.10097888837842 674.0,79.46838931708874 674.0,93.25812892766515C674.0,106.20597366478876 673.8271257445293,107.55511376964355 671.9060004175715,109.60005797032406L669.8120008351431,111.82901838338327L671.9060004175715,112.94969295017964C673.8798801329368,114.00608131505207 674.0,114.88208685989203 674.0,128.22073253712043C674.0,141.2065332390958 673.8276654211757,142.55453931017828 671.9060004175715,144.60005797032403L669.8120008351431,146.82901838338324L671.9060004175715,147.9496929501796C673.8786487598055,149.00542230415152 674.0,149.8837944775238 674.0,163.10661232991652C674.0,173.00582453456184 673.6315759072825,177.5093195499099 672.75,178.38620147855784C672.0625,179.07004086319327 670.6,180.1492140973951 669.5,180.78436422122857C667.7370841856666,181.80228803739388 667.7090571416753,181.94278733746552 669.2635688444382,181.96959131409926C670.2335317088792,181.98631609134466 671.9347623585809,182.5625 673.0440813993307,183.25C674.3563763348757,184.0632942237946 675.3123885683335,184.15063537903566 675.7805125548925,183.5C676.1762306497017,182.95 677.5063940200027,181.9375 678.7364311555618,181.25C679.9664682911208,180.5625 683.4736080859464,180.0 686.5300751440632,180.0C691.0279203242444,180.0 692.586361466378,180.46276705961324 694.7053192077227,182.42757557836353L697.3233504384426,184.8551511567271L700.506066096867,182.42757557836353C703.4583542163481,180.17575565213966 704.5395674634829,180.0 715.4400203782459,180.0C725.7304773872868,180.0 727.5535560681705,180.25797826650793 730.1057530267346,182.0753027970752L733.020247052269,184.1506055941504L736.3781575148844,182.0753027970752C739.2930268590022,180.27381446964532 741.3037689540992,180.00416945302192 751.6180339887499,180.0316012427314C762.740899022131,180.0611835826788 763.675688744368,180.21783623332297 766.25,182.48363532619624C768.9964675249661,184.90095903290012 769.0,184.92153235716833 769.0,198.49978298292712C769.0,212.01685410816415 768.9842367536498,212.11010668259672 766.274891350096,214.62104325930142C763.6043274877384,217.09603831664032 763.2861139421198,217.14011777688745 750.3766447037926,216.82329435983914C739.2232971060099,216.54956957439515 736.8887217941163,216.2146747947568 735.1504693701418,214.6390998268464C733.1447983846274,212.82113314084853 733.0355183300866,212.82690097941602 730.413857324644,214.8890998268464C727.9980252708266,216.78939359733204 726.4421808939105,217.0 714.8196867627444,217.0C702.4454738810875,217.0 701.8071144859472,216.89802357685625 699.4545454545455,214.54545454545453C698.1045454545455,213.19545454545454 697.0,212.42343115857457 697.0,212.82984701905465C697.0,213.23626287953473 695.6930685745135,214.34080833408018 694.0957079433634,215.28439247360012C692.3916272258979,216.29101771908682 689.119082334935,217.0 686.1767474889698,217.0C683.2388602212169,217.0 679.8887119279451,216.275252780596 678.0873621746708,215.25C676.3962678705728,214.2875 675.0098000750501,213.12249786110306 675.0063226290645,212.6611063580068C675.002845183079,212.19971485491058 673.6154736231255,212.98721485491058 671.9232747180565,214.4111063580068C668.9585499973166,216.90575774103027 668.3733094437939,217.0 655.8463516411334,217.0zM356.51021829486706,182.97309919885663C344.91990342080635,182.94713890838057 344.3860577341632,182.85099291179105 341.24098514586166,180.22309919885663L337.9819702917233,177.5L338.0224100194808,163.5L338.06284974723826,149.5L340.78142487361913,147.5C343.06618300487713,145.819150271709 345.4149016302539,145.44559997132376 355.5,145.15909458021181C365.34231759998795,144.87948629578577 368.0676347044476,145.12354535748676 370.65691338694387,146.51643463192454L373.81382677388774,148.21468010342545L373.9470164234069,163.0296854270547L374.0802060729261,177.84469075068392L371.3003213313301,180.42234537534196C368.62938597265656,182.89897643001473 368.04973150890476,182.99894570244555 356.51021829486706,182.97309919885663zM425.2033945826787,183.0C416.70513908061514,183.0 413.7953674365433,182.65251029368616 412.64285714285717,181.5C411.8178571428572,180.675 410.73294604485295,180.0 410.2319435917367,180.0C409.73094113862044,180.0 408.79879828147756,178.85382614049337 408.16051502030814,177.45294697887417C407.4875843953712,175.97602513705382 407.0,169.9073538152317 407.0,163.0087106802005C407.0,151.87788539190962 407.155308543922,150.9307939148752 409.4110588491428,148.30576370132633C411.7826419625307,145.54593815140757 412.02933088910765,145.49454815275539 424.4780742709826,145.16701761748394C436.354356895103,144.85454871314641 437.34205350612297,144.97657464667313 440.5107318182721,147.1477878077368C442.3679173542981,148.42035172275968 444.13161580698863,150.3701937948919 444.43006171313993,151.48077019025283C444.7285076192913,152.5913465856138 444.97883524089673,158.3670836543402 444.98634531670757,164.31574145408933C444.9938553925184,170.2643992538385 444.55569228947024,175.96167945933152 444.01264953215616,176.97636413296277C443.469606774842,177.99104880659402 441.5039914799046,179.7614651522538 439.64461554340625,180.91062267887344C436.74919967431373,182.7000880975384 434.676288281811,183.0 425.2033945826787,183.0zM391.0,147.0C380.8475574111719,147.0 377.9718692583286,146.67620905218868 375.9725062434054,145.30796449821395C374.61262780953246,144.3773449722316 373.1693907485327,143.1398449722316 372.76531277451704,142.55796449821395C372.36123480050145,141.97608402419627 372.048632954025,135.65 372.0706420045693,128.5L372.11065846010456,115.5L375.17726286447976,113.07295974047372C376.86389528688613,111.73808759773426 380.1014971333626,110.37795271701481 382.3719336344275,110.05043778331938C384.6423701354924,109.72292284962396 390.34490831720814,109.69009096641078 395.044240704907,109.97747804284566C402.1842713579694,110.4141257122913 404.106241351013,110.91086449350558 406.7389114748547,113.0L409.8893415398955,115.5L409.9293579954307,128.5C409.951367045975,135.65 409.63876519949855,141.97608402419627 409.23468722548296,142.55796449821395C408.8306092514673,143.1398449722316 407.38737219046754,144.3773449722316 406.0274937565946,145.30796449821395C404.0281307416714,146.67620905218868 401.1524425888281,147.0 391.0,147.0zM105.1549875621121,115.0C105.61974440295045,115.0 106.0,114.64702338687997 106.0,114.2156075263999C106.0,113.78419166591985 107.30693142548643,112.65919166591985 108.9042920566365,111.7156075263999C111.1954683302414,110.36217640354731 114.24031960559238,110.0 123.32756677469303,110.0C134.2711284004255,110.0 135.0007712857576,110.12976913094725 137.9338171963978,112.5977645526685L141.02108495668256,115.19552910533699L142.91990763912383,112.8477645526685C144.70649336744643,110.63877332771298 145.5826166195816,110.48072187531919 157.74214436883534,110.17385304861224C170.450060624637,109.853144594162 170.7175668228847,109.89146828633858 173.7845053443503,112.47212691231476C176.88596460670624,115.08183282669607 176.91448059520053,115.08551940479948 178.87036730477826,113.12963269522174C180.80864378983142,111.19135621016858 180.8093466637727,111.13743622626326 178.9186411684808,109.42637126940713C177.1978444263911,107.86907162089295 177.0,106.21829518197902 177.0,93.41759258692073C177.0,79.18993183123402 177.00826535105764,79.13865877197614 179.63485869180138,77.0725801490328C181.3575696992384,75.71749547309017 181.7461428516444,74.99999999999999 180.75730340724357,75.0C179.925475720246,75.0 178.6818484959162,74.32157717665554 177.99368735317734,73.49239372590121C176.89920865345414,72.17362756976273 176.4283869112393,72.29888581603343 174.23487900137152,74.49239372590121C171.83872134336787,76.88855138390488 171.19779551291745,77.0 159.8139764367522,77.0C151.09111588493758,77.00000000000001 147.1105654558,76.59141581425753 144.95034007311583,75.4743198537684C143.32765303290213,74.63519577334104 142.0,73.52375733347658 142.0,73.00445665406963C142.0,72.48515597466269 140.36220392185513,73.1717120404669 138.36045315967806,74.53013680030122C135.01128109706218,76.80294635320219 133.8021177525635,77.0 123.2048440373239,77.0C112.38794405326163,77.0 111.48488745619592,76.84448223650072 108.33039207358942,74.43843131184266L104.97200239188722,71.87686262368534L102.35114250414236,73.93843131184266C100.35198267250132,75.5109706645966 100.13209066956847,76.0 101.42415830257369,76.0C102.3557899299706,76.0 102.88182485518409,76.38219440656262 102.59312480304813,76.84932090347249C102.30442475091216,77.31644740038236 103.17786710344343,78.66347135842327 104.53410780867318,79.84270747689675C106.88640951416242,81.88800749035545 107.0,82.51327794878455 107.0,93.41646349650118L107.0,104.84615384615385L103.88209792313927,107.96405592301457C100.8721065310342,110.97404731511965 100.82555561006254,111.14975977567073 102.53708548525137,113.04097899993765C103.51217478668642,114.11844054997194 104.69023072127374,115.0 105.1549875621121,115.0zM356.33157150546754,112.0C343.87646190357214,112.0 343.1734537807649,111.89009294687928 340.64602272683516,109.54774889946242C338.0293155039035,107.1226664910079 338.0001696514911,106.94263140151286 338.01531277451704,93.29774889946242C338.0237348005015,85.70898700475809 338.36123480050145,79.04084056580977 338.76531277451704,78.4796457017995C339.1693907485327,77.91845083778922 340.75867385950664,76.90595083778922 342.29705302112586,76.2296457017995C344.01269077042,75.475413812618 349.8413529093639,75.0 357.37273899441635,75.0C368.91448029232555,75.0 369.78186154312283,75.13889981041469 371.82568597329055,77.31445122136759C373.84452534310066,79.46340725430696 374.0,80.63077792577579 374.0,93.64013719465811C374.0,106.99294651750063 373.89123774132,107.75354878333664 371.68554877863244,109.82568597329052C369.55353453491495,111.82860935852399 368.34325488729735,112.0 356.33157150546754,112.0zM426.0,111.9273525738525C419.125,111.89286034890564 412.5112423284248,111.38692322750374 411.3027607298329,110.80304785962605C410.09427913124097,110.21917249174837 408.631779131241,108.38247814893967 408.0527607298329,106.72150487560674C407.4737423284248,105.0605316022738 407.0,98.83987779840544 407.0,92.89782975589927C407.0,86.95578171339308 407.4996223179937,80.99755450073874 408.11027181776376,79.65732483888962C408.72092131753385,78.3170951770405 410.31709517704047,76.72092131753388 411.6573248388896,76.11027181776379C413.00162877248516,75.4977659555547 419.36356627642004,75.0 425.84768847901023,75.0C433.15678532269493,75.0 438.6131011807672,75.47267350369428 440.27708798899766,76.25C441.74878737927355,76.9375 443.45207202443544,78.69881572008374 444.06216497824636,80.16403493351942C444.7394591990418,81.79064691003799 445.0406924495731,87.57230997489106 444.8357124471331,95.01097105987606C444.50028110345676,107.18367109494328 444.4974879979058,107.19588026071483 441.5,109.5919689814164C438.682547243282,111.84414372780343 437.73938648632515,111.98624967340514 426.0,111.9273525738525zM322.2342234575408,76.92690109946463C312.61151713402955,76.86695599487645 309.9793365035462,76.52090346004603 307.6065440506686,75.00380149193302C306.01514327853636,73.9863011030851 304.334534027069,72.55669560832601 303.87185682518566,71.82690039246839C303.40917962330235,71.09710517661078 303.0237348005015,64.78295454545454 303.01531277451704,57.795454545454525C303.00050170487805,45.50715844016042 303.0833987962722,45.007510294636866 305.54545454545456,42.54545454545452C308.021701579495,40.0692075114141 308.4585076450543,39.99999999999999 321.6111959995439,40.000000000000014C329.04735379929303,40.00000000000002 335.9207677483045,40.42241242725618 336.88544921956947,40.938694282791474C337.8501306908344,41.454976138326764 339.21399753789206,43.61838914708973 339.91626443525314,45.74627874670917C340.74072230032056,48.24441061508247 341.07032736897264,53.43325658637002 340.846556669773,60.391512004039C340.5014428763888,71.12298815849934 340.4864030553291,71.17999604438317 337.2342234575408,74.0839275401213C334.00728681449624,76.96531913327352 333.82889172724975,76.99913063435076 322.2342234575408,76.92690109946463zM460.7640244059797,76.95996236934481C452.7828615501303,76.93159356978398 448.70584923429357,76.48895486858682 446.7751413757946,75.44119800563956C445.2764691324816,74.62789830246203 443.5889691324816,73.10049889059707 443.0251413757946,72.04697709038409C442.46131361910756,70.99345529017111 442.0,64.45644470838391 442.0,57.520286908634766C442.0,45.463955353563435 442.10799451535905,44.80109639373179 444.4545454545455,42.45454545454543C446.82354935858365,40.08554155050729 447.39022221524397,40.0 460.71476374941255,40.0C474.11382356650313,40.0 474.60113029695157,40.07482342863988 477.26021829486706,42.54046899035633C479.94779116812504,45.03252721931787 479.9997397985894,45.30407288765488 479.98634531670757,56.79046899035633C479.97883524089673,63.23071104566035 479.730517894843,69.4 479.4345289921438,70.5C479.1385400894445,71.6 477.3509956796169,73.5125 475.46220808141584,74.75C472.4024743533589,76.7546830528095 470.7999349984686,76.99563470696664 460.7640244059797,76.95996236934481z">
        </path>
    </g>
</svg>